<svg width="24" height="24" viewBox="0 0 24 24" fill="none" xmlns="http://www.w3.org/2000/svg">
<path d="M12 2C6.47715 2 2 6.47715 2 12C2 17.5228 6.47715 22 12 22C17.5228 22 22 17.5228 22 12C22 6.47715 17.5228 2 12 2Z" fill="#FFD107" stroke="#FFD107"/>
<path d="M16.7071 10.2071C17.0976 9.81658 17.0976 9.18342 16.7071 8.79289C16.3166 8.40237 15.6834 8.40237 15.2929 8.79289L11 13.0858L8.70711 10.7929C8.31658 10.4024 7.68342 10.4024 7.29289 10.7929C6.90237 11.1834 6.90237 11.8166 7.29289 12.2071L10.2929 15.2071C10.3417 15.2559 10.3943 15.2986 10.4498 15.3352C10.8379 15.5915 11.3654 15.5488 11.7071 15.2071L16.7071 10.2071Z" fill="#121212"/>
</svg>
