<svg width="148" height="40" viewBox="0 0 148 40" fill="none" xmlns="http://www.w3.org/2000/svg">
<rect x="0.5" y="0.5" width="147" height="39" rx="9.5" stroke="#F7F7F7"/>
<path d="M25.245 16.96C24.825 17.77 24.63 18.7 24.63 19.75C24.63 20.815 24.825 21.745 25.245 22.555C25.65 23.365 26.235 23.98 27 24.43C27.75 24.88 28.635 25.09 29.64 25.09C30.81 25.09 31.77 24.775 32.55 24.145C33.33 23.515 33.81 22.66 34.02 21.565H32.715C32.505 22.315 32.145 22.885 31.605 23.29C31.065 23.695 30.39 23.89 29.58 23.89C28.86 23.89 28.215 23.725 27.675 23.365C27.12 23.02 26.7 22.525 26.4 21.895C26.1 21.265 25.965 20.56 25.965 19.75C25.965 18.94 26.1 18.235 26.4 17.605C26.7 16.975 27.12 16.495 27.675 16.135C28.215 15.79 28.86 15.61 29.58 15.61C30.375 15.61 31.05 15.82 31.605 16.225C32.16 16.645 32.535 17.215 32.73 17.935H34.035C33.825 16.855 33.33 15.985 32.55 15.355C31.77 14.725 30.795 14.41 29.64 14.41C28.635 14.41 27.75 14.635 27 15.085C26.235 15.535 25.65 16.15 25.245 16.96ZM37.0344 24.595C37.6044 24.925 38.2644 25.09 39.0144 25.09C39.7494 25.09 40.4094 24.925 40.9794 24.595C41.5494 24.265 41.9994 23.815 42.3294 23.215C42.6444 22.63 42.8094 21.955 42.8094 21.175C42.8094 20.41 42.6444 19.735 42.3294 19.135C41.9994 18.55 41.5494 18.085 40.9794 17.755C40.4094 17.425 39.7494 17.26 39.0144 17.26C38.2644 17.26 37.6044 17.425 37.0344 17.755C36.4644 18.085 36.0144 18.55 35.6994 19.135C35.3694 19.735 35.2194 20.41 35.2194 21.175C35.2194 21.955 35.3694 22.63 35.6994 23.215C36.0144 23.815 36.4644 24.265 37.0344 24.595ZM40.3344 23.635C39.9444 23.875 39.5094 23.995 39.0144 23.995C38.5044 23.995 38.0694 23.875 37.6794 23.635C37.2894 23.395 37.0044 23.065 36.7944 22.63C36.5844 22.21 36.4794 21.715 36.4794 21.175C36.4794 20.635 36.5844 20.155 36.7944 19.72C37.0044 19.3 37.2894 18.955 37.6794 18.715C38.0694 18.475 38.5044 18.355 39.0144 18.355C39.5094 18.355 39.9444 18.475 40.3344 18.715C40.7244 18.955 41.0244 19.3 41.2344 19.72C41.4444 20.155 41.5494 20.635 41.5494 21.175C41.5494 21.715 41.4444 22.21 41.2344 22.63C41.0244 23.065 40.7244 23.395 40.3344 23.635ZM54.8399 18.07C54.2999 17.53 53.6099 17.26 52.7549 17.26C51.5249 17.26 50.6399 17.755 50.0999 18.715C49.8899 18.235 49.5599 17.875 49.1399 17.635C48.7199 17.395 48.2249 17.26 47.6849 17.26C46.7399 17.26 45.9899 17.65 45.4499 18.4L45.2849 17.35H44.2199V25H45.4499V20.965C45.4499 20.2 45.6299 19.585 45.9899 19.105C46.3499 18.625 46.8449 18.385 47.4749 18.385C48.0599 18.385 48.5099 18.58 48.8399 18.97C49.1549 19.36 49.3199 19.93 49.3199 20.665V25H50.5499V20.905C50.5499 20.125 50.7299 19.51 51.0899 19.06C51.4499 18.61 51.9599 18.385 52.6049 18.385C53.1749 18.385 53.6249 18.58 53.9399 18.97C54.2549 19.36 54.4199 19.93 54.4199 20.665V25H55.6499V20.59C55.6499 19.45 55.3799 18.61 54.8399 18.07ZM58.4127 14.62C58.2627 14.47 58.0677 14.395 57.8427 14.395C57.6027 14.395 57.4227 14.47 57.2727 14.62C57.1227 14.77 57.0477 14.965 57.0477 15.19C57.0477 15.43 57.1227 15.61 57.2727 15.76C57.4227 15.91 57.6027 15.985 57.8427 15.985C58.0677 15.985 58.2627 15.91 58.4127 15.76C58.5627 15.61 58.6377 15.43 58.6377 15.19C58.6377 14.965 58.5627 14.77 58.4127 14.62ZM57.2277 17.35V25H58.4577V17.35H57.2277ZM66.1277 18.1C65.5577 17.545 64.8227 17.26 63.8927 17.26C62.7827 17.26 61.9427 17.635 61.3727 18.385L61.2077 17.35H60.1427V25H61.3727V21.175C61.3727 20.32 61.5677 19.645 61.9877 19.135C62.3927 18.64 62.9627 18.385 63.6827 18.385C64.3427 18.385 64.8527 18.595 65.2127 19.015C65.5727 19.435 65.7527 20.035 65.7527 20.815V25H66.9827V20.74C66.9827 19.54 66.6977 18.67 66.1277 18.1ZM75.8109 17.35H74.7459L74.5809 18.67C74.3259 18.22 73.9809 17.875 73.5459 17.635C73.0959 17.395 72.5709 17.26 71.9559 17.26C71.2509 17.26 70.6209 17.425 70.0659 17.755C69.4959 18.085 69.0609 18.55 68.7459 19.135C68.4309 19.735 68.2809 20.41 68.2809 21.175C68.2809 21.985 68.4309 22.69 68.7459 23.275C69.0609 23.875 69.4959 24.325 70.0509 24.625C70.6059 24.94 71.2359 25.09 71.9559 25.09C73.1559 25.09 74.0259 24.625 74.5809 23.68V24.58C74.5809 26.2 73.7559 26.995 72.1059 26.995C71.4609 26.995 70.9359 26.875 70.5309 26.605C70.1109 26.35 69.8559 25.975 69.7659 25.495H68.5059C68.5959 26.335 68.9559 26.965 69.5859 27.415C70.2159 27.865 71.0259 28.09 72.0159 28.09C74.5359 28.09 75.8109 26.935 75.8109 24.625V17.35ZM73.3809 23.65C72.9909 23.89 72.5559 23.995 72.0759 23.995C71.3109 23.995 70.6959 23.74 70.2309 23.215C69.7659 22.69 69.5409 22.015 69.5409 21.175C69.5409 20.35 69.7659 19.675 70.2309 19.15C70.6959 18.625 71.3109 18.355 72.0759 18.355C72.5559 18.355 72.9909 18.475 73.3809 18.715C73.7709 18.955 74.0709 19.3 74.2809 19.735C74.4909 20.17 74.5959 20.665 74.5959 21.205C74.5959 21.745 74.4909 22.24 74.2809 22.66C74.0709 23.08 73.7709 23.41 73.3809 23.65ZM82.3723 22.48H81.1423C81.1423 23.305 81.4573 23.95 82.0573 24.4C82.6573 24.865 83.4673 25.09 84.4723 25.09C85.0273 25.09 85.5373 25 86.0023 24.805C86.4523 24.625 86.8273 24.355 87.0973 23.995C87.3673 23.65 87.5023 23.245 87.5023 22.78C87.5023 22.255 87.3673 21.835 87.0973 21.52C86.8273 21.22 86.4823 20.995 86.0473 20.845C85.6123 20.71 85.0573 20.605 84.3973 20.515C83.9173 20.455 83.5573 20.41 83.3173 20.35C83.0773 20.305 82.8973 20.215 82.7473 20.065C82.5973 19.93 82.5223 19.735 82.5223 19.465C82.5223 19.12 82.6723 18.835 83.0023 18.625C83.3173 18.415 83.7373 18.295 84.2623 18.295C84.7723 18.295 85.1923 18.43 85.5373 18.685C85.8673 18.955 86.0623 19.285 86.1223 19.675H87.3523C87.2923 18.895 86.9773 18.295 86.4073 17.875C85.8373 17.455 85.1173 17.245 84.2173 17.245C83.6623 17.245 83.1673 17.35 82.7323 17.545C82.2823 17.74 81.9373 18.01 81.6823 18.355C81.4273 18.715 81.3073 19.105 81.3073 19.555C81.3073 20.065 81.4273 20.455 81.6973 20.74C81.9523 21.025 82.2973 21.235 82.7173 21.355C83.1373 21.49 83.6773 21.595 84.3373 21.67C84.8023 21.73 85.1623 21.79 85.4173 21.85C85.6723 21.91 85.8823 22.03 86.0473 22.18C86.1973 22.345 86.2873 22.57 86.2873 22.87C86.2873 23.23 86.1073 23.515 85.7773 23.725C85.4473 23.935 85.0123 24.04 84.4723 24.04C83.8573 24.04 83.3623 23.905 82.9723 23.605C82.5823 23.32 82.3873 22.945 82.3723 22.48ZM90.4426 24.595C91.0126 24.925 91.6726 25.09 92.4226 25.09C93.1576 25.09 93.8176 24.925 94.3876 24.595C94.9576 24.265 95.4076 23.815 95.7376 23.215C96.0526 22.63 96.2176 21.955 96.2176 21.175C96.2176 20.41 96.0526 19.735 95.7376 19.135C95.4076 18.55 94.9576 18.085 94.3876 17.755C93.8176 17.425 93.1576 17.26 92.4226 17.26C91.6726 17.26 91.0126 17.425 90.4426 17.755C89.8726 18.085 89.4226 18.55 89.1076 19.135C88.7776 19.735 88.6276 20.41 88.6276 21.175C88.6276 21.955 88.7776 22.63 89.1076 23.215C89.4226 23.815 89.8726 24.265 90.4426 24.595ZM93.7426 23.635C93.3526 23.875 92.9176 23.995 92.4226 23.995C91.9126 23.995 91.4776 23.875 91.0876 23.635C90.6976 23.395 90.4126 23.065 90.2026 22.63C89.9926 22.21 89.8876 21.715 89.8876 21.175C89.8876 20.635 89.9926 20.155 90.2026 19.72C90.4126 19.3 90.6976 18.955 91.0876 18.715C91.4776 18.475 91.9126 18.355 92.4226 18.355C92.9176 18.355 93.3526 18.475 93.7426 18.715C94.1326 18.955 94.4326 19.3 94.6426 19.72C94.8526 20.155 94.9576 20.635 94.9576 21.175C94.9576 21.715 94.8526 22.21 94.6426 22.63C94.4326 23.065 94.1326 23.395 93.7426 23.635ZM99.1731 24.595C99.7431 24.925 100.403 25.09 101.153 25.09C101.888 25.09 102.548 24.925 103.118 24.595C103.688 24.265 104.138 23.815 104.468 23.215C104.783 22.63 104.948 21.955 104.948 21.175C104.948 20.41 104.783 19.735 104.468 19.135C104.138 18.55 103.688 18.085 103.118 17.755C102.548 17.425 101.888 17.26 101.153 17.26C100.403 17.26 99.7431 17.425 99.1731 17.755C98.6031 18.085 98.1531 18.55 97.8381 19.135C97.5081 19.735 97.3581 20.41 97.3581 21.175C97.3581 21.955 97.5081 22.63 97.8381 23.215C98.1531 23.815 98.6031 24.265 99.1731 24.595ZM102.473 23.635C102.083 23.875 101.648 23.995 101.153 23.995C100.643 23.995 100.208 23.875 99.8181 23.635C99.4281 23.395 99.1431 23.065 98.9331 22.63C98.7231 22.21 98.6181 21.715 98.6181 21.175C98.6181 20.635 98.7231 20.155 98.9331 19.72C99.1431 19.3 99.4281 18.955 99.8181 18.715C100.208 18.475 100.643 18.355 101.153 18.355C101.648 18.355 102.083 18.475 102.473 18.715C102.863 18.955 103.163 19.3 103.373 19.72C103.583 20.155 103.688 20.635 103.688 21.175C103.688 21.715 103.583 22.21 103.373 22.63C103.163 23.065 102.863 23.395 102.473 23.635ZM112.344 18.1C111.774 17.545 111.039 17.26 110.109 17.26C108.999 17.26 108.159 17.635 107.589 18.385L107.424 17.35H106.359V25H107.589V21.175C107.589 20.32 107.784 19.645 108.204 19.135C108.609 18.64 109.179 18.385 109.899 18.385C110.559 18.385 111.069 18.595 111.429 19.015C111.789 19.435 111.969 20.035 111.969 20.815V25H113.199V20.74C113.199 19.54 112.914 18.67 112.344 18.1Z" fill="white"/>
<path fill-rule="evenodd" clip-rule="evenodd" d="M120.171 18.1709C120.399 17.943 120.768 17.943 120.996 18.1709L123.912 21.0875C124.14 21.3153 124.14 21.6847 123.912 21.9125L120.996 24.8291C120.768 25.057 120.399 25.057 120.171 24.8291C119.943 24.6013 119.943 24.232 120.171 24.0042L122.675 21.5L120.171 18.9958C119.943 18.768 119.943 18.3987 120.171 18.1709Z" fill="white"/>
</svg>
