<svg width="110" height="29" viewBox="0 0 110 29" fill="none" xmlns="http://www.w3.org/2000/svg">
<path d="M34.096 24H37.816L39.112 20.328H45.496L46.792 24H50.656L44.56 7.2H40.24L34.096 24ZM40.072 17.424L42.28 11.04L44.512 17.424H40.072ZM49.4916 11.664L53.9316 24H58.1316L62.5716 11.664H59.0196L56.0916 20.544L53.1156 11.664H49.4916ZM63.5187 14.52C62.9907 15.48 62.7507 16.584 62.7507 17.856C62.7507 19.128 63.0147 20.232 63.5427 21.192C64.0707 22.152 64.8387 22.872 65.8467 23.376C66.8547 23.904 68.0307 24.144 69.4227 24.144C70.4787 24.144 71.4147 23.976 72.2307 23.592C73.0467 23.208 73.6947 22.704 74.1987 22.032C74.6787 21.384 74.9907 20.64 75.1347 19.824H71.7987C71.6547 20.4 71.3427 20.856 70.8867 21.144C70.4307 21.432 69.8547 21.576 69.1827 21.576C68.3187 21.576 67.6227 21.336 67.1427 20.808C66.6387 20.304 66.3507 19.608 66.2787 18.696V18.6H75.2307C75.2787 18.264 75.3267 17.88 75.3267 17.448C75.3027 16.248 75.0147 15.216 74.4867 14.328C73.9587 13.44 73.2147 12.744 72.2547 12.264C71.2947 11.784 70.2147 11.52 68.9667 11.52C67.7187 11.52 66.6387 11.784 65.7027 12.312C64.7667 12.84 64.0467 13.56 63.5187 14.52ZM71.9427 16.392H66.3507C66.4467 15.672 66.7347 15.12 67.2387 14.688C67.7427 14.256 68.3667 14.04 69.1107 14.04C69.8787 14.04 70.5027 14.256 71.0067 14.664C71.5107 15.072 71.8227 15.648 71.9427 16.392ZM87.808 12.864C86.872 11.976 85.696 11.52 84.256 11.52C83.344 11.52 82.6 11.688 82 11.976C81.376 12.264 80.872 12.672 80.44 13.2L80.128 11.664H77.176V24H80.56V17.688C80.56 16.632 80.8 15.792 81.28 15.192C81.76 14.616 82.432 14.304 83.32 14.304C84.976 14.304 85.816 15.384 85.816 17.496V24H89.2V17.304C89.2 15.24 88.72 13.776 87.808 12.864ZM94.4283 7.08C94.0443 6.72 93.5883 6.528 93.0363 6.528C92.4603 6.528 92.0043 6.72 91.6203 7.08C91.2363 7.44 91.0683 7.896 91.0683 8.424C91.0683 8.976 91.2363 9.432 91.6203 9.792C92.0043 10.176 92.4603 10.344 93.0363 10.344C93.5883 10.344 94.0443 10.176 94.4283 9.792C94.7883 9.432 94.9803 8.976 94.9803 8.424C94.9803 7.896 94.7883 7.44 94.4283 7.08ZM91.3323 11.664V24H94.7163V11.664H91.3323ZM100.554 17.712L95.9704 24H99.5944L102.402 20.136L105.234 24H109.098L104.514 17.712L108.858 11.664H105.234L102.618 15.312L100.05 11.664H96.1864L100.554 17.712Z" fill="white"/>
<path d="M0 8C0 5.23858 2.23858 3 5 3H20C22.7614 3 25 5.23858 25 8V23C25 25.7614 22.7614 28 20 28H5C2.23858 28 0 25.7614 0 23V8Z" fill="#FFD107"/>
<path d="M12.5 8L21.25 23.1554L12.5 18.7031L3.75 23.1554L12.5 8Z" fill="#1C1C1C"/>
</svg>
