<svg width="20" height="16" viewBox="0 0 20 16" fill="none" xmlns="http://www.w3.org/2000/svg">
<path fill-rule="evenodd" clip-rule="evenodd" d="M9.72365 3.99925C7.51435 3.99925 5.72412 5.78989 5.72412 7.99972C5.72412 10.2088 7.51455 11.9992 9.72365 11.9992C11.9323 11.9992 13.7241 10.2092 13.7241 7.99972C13.7241 5.78947 11.9325 3.99925 9.72365 3.99925ZM7.72412 7.99972C7.72412 6.89404 8.61933 5.99925 9.72365 5.99925C10.8284 5.99925 11.7241 6.89446 11.7241 7.99972C11.7241 9.10384 10.8286 9.99925 9.72365 9.99925C8.61912 9.99925 7.72412 9.10425 7.72412 7.99972Z" fill="#FFD107"/>
<path fill-rule="evenodd" clip-rule="evenodd" d="M13.963 1.00067C11.2945 -0.333558 8.15362 -0.333558 5.48516 1.00067C3.87281 1.80685 2.52378 3.05609 1.59632 4.60186L0.37911 6.63054C-0.12637 7.47301 -0.12637 8.52549 0.37911 9.36796L1.59632 11.3966C2.52378 12.9424 3.87281 14.1916 5.48516 14.9978C8.15362 16.3321 11.2945 16.3321 13.963 14.9978C15.5753 14.1916 16.9244 12.9424 17.8518 11.3966L19.069 9.36796C19.5745 8.52549 19.5745 7.47301 19.069 6.63054L17.8518 4.60186C16.9244 3.05609 15.5753 1.80685 13.963 1.00067ZM6.37958 2.78953C8.48499 1.73682 10.9632 1.73682 13.0686 2.78953C14.3407 3.4256 15.4051 4.41124 16.1368 5.63085L17.3541 7.65953C17.4795 7.86863 17.4795 8.12986 17.3541 8.33896L16.1368 10.3676C15.4051 11.5873 14.3407 12.5729 13.0686 13.209C10.9632 14.2617 8.48499 14.2617 6.37958 13.209C5.10745 12.5729 4.04307 11.5873 3.31131 10.3676L2.0941 8.33896C1.96863 8.12986 1.96863 7.86863 2.0941 7.65953L3.3113 5.63085C4.04307 4.41124 5.10745 3.4256 6.37958 2.78953Z" fill="#FFD107"/>
</svg>
