<svg width="282" height="297" viewBox="0 0 282 297" fill="none" xmlns="http://www.w3.org/2000/svg">
<rect width="282" height="297" rx="10" fill="#F7F7F7"/>
<path d="M82.1 48.5H77.96V59H79.685V55.19H82.1C82.82 55.19 83.45 55.055 84.005 54.785C84.545 54.515 84.98 54.125 85.28 53.615C85.58 53.105 85.73 52.52 85.73 51.845C85.73 51.185 85.58 50.6 85.28 50.09C84.98 49.58 84.545 49.19 84.005 48.92C83.45 48.65 82.82 48.5 82.1 48.5ZM79.685 53.69V50H81.965C82.58 50 83.075 50.165 83.435 50.495C83.795 50.825 83.975 51.275 83.975 51.845C83.975 52.415 83.78 52.865 83.42 53.195C83.06 53.525 82.565 53.69 81.95 53.69H79.685ZM90.6567 54.23L86.6217 57.665V59H94.0617V57.545H88.9917L91.7817 55.22C92.5167 54.605 93.0717 54.035 93.4467 53.495C93.8067 52.955 94.0017 52.34 94.0017 51.62C94.0017 50.645 93.6717 49.865 93.0267 49.28C92.3667 48.695 91.4667 48.395 90.2967 48.395C89.5617 48.395 88.9167 48.545 88.3767 48.845C87.8217 49.145 87.3867 49.565 87.0867 50.075C86.7867 50.6 86.6367 51.185 86.6367 51.845V52.13H88.3017V51.935C88.3017 51.305 88.4817 50.795 88.8417 50.405C89.2017 50.015 89.6967 49.82 90.2967 49.82C90.9117 49.82 91.4067 49.985 91.7667 50.315C92.1267 50.645 92.3067 51.11 92.3067 51.695C92.3067 52.16 92.1567 52.58 91.8867 52.97C91.6167 53.36 91.1967 53.78 90.6567 54.23ZM99.7514 48.5H95.6114V59H97.3364V55.19H99.7514C100.471 55.19 101.101 55.055 101.656 54.785C102.196 54.515 102.631 54.125 102.931 53.615C103.231 53.105 103.381 52.52 103.381 51.845C103.381 51.185 103.231 50.6 102.931 50.09C102.631 49.58 102.196 49.19 101.656 48.92C101.101 48.65 100.471 48.5 99.7514 48.5ZM97.3364 53.69V50H99.6164C100.231 50 100.726 50.165 101.086 50.495C101.446 50.825 101.626 51.275 101.626 51.845C101.626 52.415 101.431 52.865 101.071 53.195C100.711 53.525 100.216 53.69 99.6014 53.69H97.3364ZM107.946 48.5V50.03H111.186V59H112.911V50.03H116.151V48.5H107.946ZM120.814 51.32H120.454C119.854 51.32 119.389 51.425 119.044 51.635C118.684 51.845 118.399 52.115 118.189 52.475L118.009 51.32H116.569V59H118.189V55.145C118.189 54.485 118.339 53.93 118.639 53.495C118.939 53.06 119.419 52.835 120.094 52.835H120.814V51.32ZM128.9 57.59H128.585C128.24 57.59 128.075 57.41 128.075 57.05V54.02C128.075 53.12 127.79 52.43 127.235 51.95C126.665 51.47 125.87 51.23 124.85 51.23C123.875 51.23 123.095 51.455 122.495 51.875C121.895 52.295 121.55 52.895 121.475 53.66H123.065C123.125 53.33 123.305 53.06 123.605 52.85C123.905 52.64 124.295 52.535 124.775 52.535C125.3 52.535 125.72 52.67 126.02 52.91C126.32 53.15 126.47 53.495 126.47 53.915V54.38H124.535C123.455 54.38 122.645 54.605 122.09 55.025C121.52 55.445 121.25 56.06 121.25 56.84C121.25 57.545 121.505 58.1 122.03 58.49C122.54 58.895 123.23 59.09 124.1 59.09C125.21 59.09 126.05 58.655 126.635 57.77C126.635 58.175 126.74 58.475 126.965 58.685C127.175 58.895 127.535 59 128.045 59H128.9V57.59ZM126.47 55.58V55.85C126.455 56.45 126.26 56.93 125.885 57.29C125.51 57.65 124.985 57.83 124.325 57.83C123.875 57.83 123.53 57.74 123.275 57.53C123.02 57.335 122.9 57.065 122.9 56.735C122.9 56.36 123.035 56.075 123.305 55.88C123.575 55.685 123.95 55.58 124.46 55.58H126.47ZM137.237 48.5H135.617V52.385C135.347 52.025 135.017 51.755 134.597 51.545C134.177 51.335 133.682 51.23 133.127 51.23C132.437 51.23 131.807 51.395 131.267 51.725C130.712 52.055 130.277 52.505 129.962 53.105C129.647 53.705 129.497 54.38 129.497 55.16C129.497 55.97 129.647 56.66 129.962 57.26C130.262 57.86 130.697 58.31 131.252 58.625C131.792 58.94 132.422 59.09 133.127 59.09C134.177 59.09 135.017 58.685 135.632 57.845L135.827 59H137.237V48.5ZM135.017 57.02C134.597 57.5 134.057 57.725 133.397 57.725C132.722 57.725 132.182 57.5 131.777 57.02C131.357 56.54 131.162 55.925 131.162 55.16C131.162 54.41 131.357 53.81 131.777 53.33C132.182 52.85 132.722 52.61 133.397 52.61C134.057 52.61 134.597 52.85 135.017 53.33C135.422 53.81 135.632 54.425 135.632 55.19C135.632 55.94 135.422 56.555 135.017 57.02ZM139 53.105C138.685 53.705 138.535 54.395 138.535 55.175C138.535 55.955 138.685 56.645 139.015 57.23C139.345 57.83 139.795 58.28 140.395 58.61C140.995 58.94 141.685 59.09 142.495 59.09C143.41 59.09 144.175 58.85 144.79 58.34C145.405 57.845 145.78 57.2 145.93 56.42H144.31C144.19 56.855 143.965 57.185 143.635 57.425C143.29 57.665 142.87 57.77 142.375 57.77C141.745 57.77 141.235 57.575 140.86 57.185C140.47 56.795 140.26 56.27 140.23 55.595V55.505H146.02C146.05 55.295 146.065 55.1 146.065 54.89C146.05 54.155 145.885 53.51 145.555 52.955C145.225 52.415 144.79 51.98 144.22 51.68C143.65 51.38 143.005 51.23 142.27 51.23C141.535 51.23 140.89 51.395 140.32 51.725C139.75 52.055 139.315 52.505 139 53.105ZM144.415 54.32H140.29C140.35 53.78 140.56 53.36 140.95 53.03C141.34 52.7 141.79 52.535 142.33 52.535C142.9 52.535 143.365 52.7 143.74 53.015C144.115 53.33 144.34 53.765 144.415 54.32Z" fill="#1C1C1C"/>
<path d="M26.108 86.9H22.884V96H26.199C27.265 96 28.071 95.779 28.643 95.337C29.215 94.895 29.501 94.271 29.501 93.491C29.501 92.295 28.825 91.58 27.499 91.32C28.019 91.19 28.422 90.943 28.708 90.592C28.981 90.241 29.124 89.799 29.124 89.253C29.124 88.525 28.851 87.94 28.331 87.524C27.811 87.108 27.07 86.9 26.108 86.9ZM24.015 90.852V87.927H26.16C26.745 87.927 27.2 88.057 27.512 88.317C27.824 88.577 27.993 88.928 27.993 89.383C27.993 89.851 27.824 90.202 27.512 90.462C27.187 90.722 26.732 90.852 26.16 90.852H24.015ZM24.015 94.973V91.866H26.199C26.875 91.866 27.408 92.009 27.785 92.282C28.149 92.555 28.344 92.945 28.344 93.452C28.344 93.933 28.149 94.31 27.785 94.57C27.421 94.843 26.888 94.973 26.199 94.973H24.015ZM36.5346 89.37H35.4686V92.685C35.4686 93.439 35.2866 94.024 34.9486 94.453C34.6106 94.895 34.1296 95.103 33.5316 95.103C32.9726 95.103 32.5436 94.934 32.2446 94.57C31.9456 94.206 31.8026 93.686 31.8026 92.997V89.37H30.7366V93.062C30.7366 94.102 30.9706 94.869 31.4516 95.35C31.9196 95.844 32.5566 96.078 33.3496 96.078C34.2596 96.078 34.9616 95.766 35.4686 95.116L35.6116 96H36.5346V89.37ZM38.4558 89.37H37.3248L39.9248 96.052L39.5868 96.845C39.4828 97.079 39.4048 97.248 39.3398 97.352C39.2748 97.456 39.1968 97.521 39.0928 97.56C38.9888 97.612 38.8328 97.625 38.6248 97.625H37.6758V98.6H38.9498C39.2488 98.6 39.4958 98.561 39.6778 98.457C39.8598 98.366 40.0028 98.223 40.1328 98.015C40.2498 97.82 40.3928 97.521 40.5488 97.118L43.6038 89.37H42.4728L40.4968 94.778L38.4558 89.37ZM45.1131 95.025C44.9311 94.765 44.6841 94.635 44.3721 94.635C44.0991 94.635 43.8911 94.713 43.7351 94.856C43.5791 94.999 43.5141 95.181 43.5141 95.389C43.5141 95.623 43.5791 95.792 43.7091 95.909C43.8391 96.039 43.9951 96.091 44.2031 96.091C44.3851 96.091 44.5411 96.039 44.6451 95.935C44.6451 95.974 44.6581 96.026 44.6581 96.104C44.6581 96.377 44.5671 96.611 44.3981 96.819C44.2161 97.027 43.9431 97.144 43.5661 97.144V97.755C44.1381 97.742 44.5801 97.573 44.9051 97.261C45.2301 96.949 45.3991 96.52 45.3991 95.961C45.3991 95.597 45.2951 95.285 45.1131 95.025ZM50.8041 93.816H49.7381C49.7381 94.531 50.0111 95.09 50.5311 95.48C51.0511 95.883 51.7531 96.078 52.6241 96.078C53.1051 96.078 53.5471 96 53.9501 95.831C54.3401 95.675 54.6651 95.441 54.8991 95.129C55.1331 94.83 55.2501 94.479 55.2501 94.076C55.2501 93.621 55.1331 93.257 54.8991 92.984C54.6651 92.724 54.3661 92.529 53.9891 92.399C53.6121 92.282 53.1311 92.191 52.5591 92.113C52.1431 92.061 51.8311 92.022 51.6231 91.97C51.4151 91.931 51.2591 91.853 51.1291 91.723C50.9991 91.606 50.9341 91.437 50.9341 91.203C50.9341 90.904 51.0641 90.657 51.3501 90.475C51.6231 90.293 51.9871 90.189 52.4421 90.189C52.8841 90.189 53.2481 90.306 53.5471 90.527C53.8331 90.761 54.0021 91.047 54.0541 91.385H55.1201C55.0681 90.709 54.7951 90.189 54.3011 89.825C53.8071 89.461 53.1831 89.279 52.4031 89.279C51.9221 89.279 51.4931 89.37 51.1161 89.539C50.7261 89.708 50.4271 89.942 50.2061 90.241C49.9851 90.553 49.8811 90.891 49.8811 91.281C49.8811 91.723 49.9851 92.061 50.2191 92.308C50.4401 92.555 50.7391 92.737 51.1031 92.841C51.4671 92.958 51.9351 93.049 52.5071 93.114C52.9101 93.166 53.2221 93.218 53.4431 93.27C53.6641 93.322 53.8461 93.426 53.9891 93.556C54.1191 93.699 54.1971 93.894 54.1971 94.154C54.1971 94.466 54.0411 94.713 53.7551 94.895C53.4691 95.077 53.0921 95.168 52.6241 95.168C52.0911 95.168 51.6621 95.051 51.3241 94.791C50.9861 94.544 50.8171 94.219 50.8041 93.816ZM56.6154 90.904C56.3554 91.424 56.2254 92.009 56.2254 92.685C56.2254 93.361 56.3554 93.946 56.6284 94.466C56.9014 94.986 57.2914 95.376 57.7854 95.662C58.2794 95.948 58.8514 96.078 59.5144 96.078C60.2684 96.078 60.9054 95.87 61.4254 95.441C61.9454 95.012 62.2704 94.453 62.4004 93.777H61.3214C61.2044 94.206 60.9834 94.544 60.6454 94.778C60.3074 95.012 59.9044 95.129 59.4364 95.129C58.8124 95.129 58.3184 94.934 57.9414 94.544C57.5514 94.154 57.3564 93.634 57.3434 92.984V92.893H62.4914C62.5044 92.685 62.5174 92.542 62.5174 92.438C62.4914 91.801 62.3484 91.242 62.0884 90.761C61.8154 90.293 61.4514 89.929 60.9834 89.669C60.5154 89.422 59.9694 89.292 59.3714 89.292C58.7474 89.292 58.2014 89.435 57.7334 89.721C57.2524 90.007 56.8754 90.397 56.6154 90.904ZM61.4124 92.009H57.4084C57.4604 91.489 57.6684 91.06 58.0584 90.722C58.4354 90.397 58.8774 90.228 59.3844 90.228C59.9434 90.228 60.4114 90.384 60.7754 90.696C61.1394 91.008 61.3604 91.45 61.4124 92.009ZM63.7339 86.9V96H64.7999V86.9H63.7339ZM66.2602 86.9V96H67.3262V86.9H66.2602ZM78.3899 95.025H78.0649C77.7659 95.025 77.6229 94.869 77.6229 94.544V91.684C77.6229 90.917 77.3889 90.332 76.9209 89.916C76.4529 89.5 75.8029 89.292 74.9579 89.292C74.1519 89.292 73.5019 89.474 73.0079 89.838C72.5139 90.202 72.2279 90.709 72.1499 91.359H73.2159C73.2809 91.021 73.4629 90.761 73.7619 90.553C74.0609 90.345 74.4379 90.241 74.9059 90.241C75.4259 90.241 75.8289 90.371 76.1149 90.605C76.4009 90.852 76.5569 91.19 76.5569 91.619V92.074H74.6069C73.7359 92.074 73.0729 92.256 72.6179 92.607C72.1629 92.971 71.9419 93.478 71.9419 94.141C71.9419 94.739 72.1629 95.22 72.6049 95.558C73.0469 95.909 73.6449 96.078 74.3859 96.078C75.3479 96.078 76.0889 95.714 76.6089 94.973C76.6089 95.311 76.7129 95.571 76.8949 95.74C77.0769 95.922 77.3759 96 77.8049 96H78.3899V95.025ZM76.5569 92.971V93.296C76.5569 93.868 76.3619 94.323 75.9979 94.661C75.6209 94.999 75.1139 95.168 74.4639 95.168C74.0219 95.168 73.6709 95.077 73.4109 94.869C73.1509 94.674 73.0209 94.414 73.0209 94.076C73.0209 93.348 73.5149 92.971 74.5029 92.971H76.5569ZM84.3964 90.02C83.9024 89.539 83.2654 89.292 82.4594 89.292C81.4974 89.292 80.7694 89.617 80.2754 90.267L80.1324 89.37H79.2094V96H80.2754V92.685C80.2754 91.944 80.4444 91.359 80.8084 90.917C81.1594 90.488 81.6534 90.267 82.2774 90.267C82.8494 90.267 83.2914 90.449 83.6034 90.813C83.9154 91.177 84.0714 91.697 84.0714 92.373V96H85.1374V92.308C85.1374 91.268 84.8904 90.514 84.3964 90.02ZM92.7886 86.9H91.7226V90.384C91.5016 90.046 91.2026 89.786 90.8256 89.591C90.4356 89.396 89.9806 89.292 89.4476 89.292C88.8366 89.292 88.2906 89.435 87.8096 89.721C87.3156 90.007 86.9386 90.41 86.6656 90.917C86.3926 91.437 86.2626 92.022 86.2626 92.685C86.2626 93.387 86.3926 93.998 86.6656 94.505C86.9386 95.025 87.3156 95.415 87.7966 95.675C88.2776 95.948 88.8236 96.078 89.4476 96.078C90.4096 96.078 91.1636 95.701 91.7226 94.934L91.8656 96H92.7886V86.9ZM90.6826 94.83C90.3446 95.038 89.9676 95.129 89.5516 95.129C88.8886 95.129 88.3556 94.908 87.9526 94.453C87.5496 93.998 87.3546 93.413 87.3546 92.685C87.3546 91.97 87.5496 91.385 87.9526 90.93C88.3556 90.475 88.8886 90.241 89.5516 90.241C89.9676 90.241 90.3446 90.345 90.6826 90.553C91.0206 90.761 91.2806 91.06 91.4626 91.437C91.6446 91.814 91.7356 92.243 91.7356 92.711C91.7356 93.179 91.6446 93.608 91.4626 93.972C91.2806 94.336 91.0206 94.622 90.6826 94.83ZM97.799 90.904C97.539 91.424 97.409 92.009 97.409 92.685C97.409 93.361 97.539 93.946 97.812 94.466C98.085 94.986 98.475 95.376 98.969 95.662C99.463 95.948 100.035 96.078 100.698 96.078C101.452 96.078 102.089 95.87 102.609 95.441C103.129 95.012 103.454 94.453 103.584 93.777H102.505C102.388 94.206 102.167 94.544 101.829 94.778C101.491 95.012 101.088 95.129 100.62 95.129C99.996 95.129 99.502 94.934 99.125 94.544C98.735 94.154 98.54 93.634 98.527 92.984V92.893H103.675C103.688 92.685 103.701 92.542 103.701 92.438C103.675 91.801 103.532 91.242 103.272 90.761C102.999 90.293 102.635 89.929 102.167 89.669C101.699 89.422 101.153 89.292 100.555 89.292C99.931 89.292 99.385 89.435 98.917 89.721C98.436 90.007 98.059 90.397 97.799 90.904ZM102.596 92.009H98.592C98.644 91.489 98.852 91.06 99.242 90.722C99.619 90.397 100.061 90.228 100.568 90.228C101.127 90.228 101.595 90.384 101.959 90.696C102.323 91.008 102.544 91.45 102.596 92.009ZM106.562 92.594L104.04 96H105.223L107.173 93.335L109.123 96H110.397L107.862 92.594L110.228 89.37H109.045L107.251 91.827L105.483 89.37H104.209L106.562 92.594ZM115.85 95.454C116.357 95.038 116.682 94.453 116.825 93.712H115.759C115.655 94.154 115.447 94.505 115.122 94.752C114.784 95.012 114.381 95.129 113.9 95.129C113.263 95.129 112.743 94.908 112.353 94.453C111.963 93.998 111.768 93.4 111.768 92.672C111.768 91.957 111.963 91.372 112.353 90.917C112.743 90.475 113.263 90.241 113.9 90.241C114.368 90.241 114.758 90.371 115.096 90.618C115.421 90.878 115.642 91.216 115.746 91.632H116.825C116.695 90.904 116.37 90.332 115.863 89.916C115.356 89.5 114.719 89.292 113.939 89.292C113.289 89.292 112.73 89.435 112.236 89.721C111.742 90.007 111.352 90.397 111.079 90.904C110.806 91.424 110.676 92.009 110.676 92.672C110.676 93.348 110.806 93.933 111.079 94.453C111.339 94.973 111.716 95.363 112.21 95.649C112.691 95.935 113.25 96.078 113.9 96.078C114.68 96.078 115.33 95.87 115.85 95.454ZM123.257 90.02C122.763 89.539 122.113 89.292 121.307 89.292C120.787 89.292 120.345 89.409 119.981 89.617C119.617 89.838 119.331 90.124 119.123 90.462V86.9H118.057V96H119.123V92.685C119.123 91.944 119.292 91.359 119.656 90.917C120.02 90.488 120.501 90.267 121.125 90.267C121.697 90.267 122.152 90.449 122.464 90.813C122.776 91.177 122.932 91.697 122.932 92.373V96H123.998V92.308C123.998 91.268 123.751 90.514 123.257 90.02ZM131.558 95.025H131.233C130.934 95.025 130.791 94.869 130.791 94.544V91.684C130.791 90.917 130.557 90.332 130.089 89.916C129.621 89.5 128.971 89.292 128.126 89.292C127.32 89.292 126.67 89.474 126.176 89.838C125.682 90.202 125.396 90.709 125.318 91.359H126.384C126.449 91.021 126.631 90.761 126.93 90.553C127.229 90.345 127.606 90.241 128.074 90.241C128.594 90.241 128.997 90.371 129.283 90.605C129.569 90.852 129.725 91.19 129.725 91.619V92.074H127.775C126.904 92.074 126.241 92.256 125.786 92.607C125.331 92.971 125.11 93.478 125.11 94.141C125.11 94.739 125.331 95.22 125.773 95.558C126.215 95.909 126.813 96.078 127.554 96.078C128.516 96.078 129.257 95.714 129.777 94.973C129.777 95.311 129.881 95.571 130.063 95.74C130.245 95.922 130.544 96 130.973 96H131.558V95.025ZM129.725 92.971V93.296C129.725 93.868 129.53 94.323 129.166 94.661C128.789 94.999 128.282 95.168 127.632 95.168C127.19 95.168 126.839 95.077 126.579 94.869C126.319 94.674 126.189 94.414 126.189 94.076C126.189 93.348 126.683 92.971 127.671 92.971H129.725ZM137.564 90.02C137.07 89.539 136.433 89.292 135.627 89.292C134.665 89.292 133.937 89.617 133.443 90.267L133.3 89.37H132.377V96H133.443V92.685C133.443 91.944 133.612 91.359 133.976 90.917C134.327 90.488 134.821 90.267 135.445 90.267C136.017 90.267 136.459 90.449 136.771 90.813C137.083 91.177 137.239 91.697 137.239 92.373V96H138.305V92.308C138.305 91.268 138.058 90.514 137.564 90.02ZM145.957 89.37H145.034L144.891 90.514C144.67 90.124 144.371 89.825 143.994 89.617C143.604 89.409 143.149 89.292 142.616 89.292C142.005 89.292 141.459 89.435 140.978 89.721C140.484 90.007 140.107 90.41 139.834 90.917C139.561 91.437 139.431 92.022 139.431 92.685C139.431 93.387 139.561 93.998 139.834 94.505C140.107 95.025 140.484 95.415 140.965 95.675C141.446 95.948 141.992 96.078 142.616 96.078C143.656 96.078 144.41 95.675 144.891 94.856V95.636C144.891 97.04 144.176 97.729 142.746 97.729C142.187 97.729 141.732 97.625 141.381 97.391C141.017 97.17 140.796 96.845 140.718 96.429H139.626C139.704 97.157 140.016 97.703 140.562 98.093C141.108 98.483 141.81 98.678 142.668 98.678C144.852 98.678 145.957 97.677 145.957 95.675V89.37ZM143.851 94.83C143.513 95.038 143.136 95.129 142.72 95.129C142.057 95.129 141.524 94.908 141.121 94.453C140.718 93.998 140.523 93.413 140.523 92.685C140.523 91.97 140.718 91.385 141.121 90.93C141.524 90.475 142.057 90.241 142.72 90.241C143.136 90.241 143.513 90.345 143.851 90.553C144.189 90.761 144.449 91.06 144.631 91.437C144.813 91.814 144.904 92.243 144.904 92.711C144.904 93.179 144.813 93.608 144.631 93.972C144.449 94.336 144.189 94.622 143.851 94.83ZM147.565 90.904C147.305 91.424 147.175 92.009 147.175 92.685C147.175 93.361 147.305 93.946 147.578 94.466C147.851 94.986 148.241 95.376 148.735 95.662C149.229 95.948 149.801 96.078 150.464 96.078C151.218 96.078 151.855 95.87 152.375 95.441C152.895 95.012 153.22 94.453 153.35 93.777H152.271C152.154 94.206 151.933 94.544 151.595 94.778C151.257 95.012 150.854 95.129 150.386 95.129C149.762 95.129 149.268 94.934 148.891 94.544C148.501 94.154 148.306 93.634 148.293 92.984V92.893H153.441C153.454 92.685 153.467 92.542 153.467 92.438C153.441 91.801 153.298 91.242 153.038 90.761C152.765 90.293 152.401 89.929 151.933 89.669C151.465 89.422 150.919 89.292 150.321 89.292C149.697 89.292 149.151 89.435 148.683 89.721C148.202 90.007 147.825 90.397 147.565 90.904ZM152.362 92.009H148.358C148.41 91.489 148.618 91.06 149.008 90.722C149.385 90.397 149.827 90.228 150.334 90.228C150.893 90.228 151.361 90.384 151.725 90.696C152.089 91.008 152.31 91.45 152.362 92.009ZM164.377 86.9H163.311V90.384C163.09 90.046 162.791 89.786 162.414 89.591C162.024 89.396 161.569 89.292 161.036 89.292C160.425 89.292 159.879 89.435 159.398 89.721C158.904 90.007 158.527 90.41 158.254 90.917C157.981 91.437 157.851 92.022 157.851 92.685C157.851 93.387 157.981 93.998 158.254 94.505C158.527 95.025 158.904 95.415 159.385 95.675C159.866 95.948 160.412 96.078 161.036 96.078C161.998 96.078 162.752 95.701 163.311 94.934L163.454 96H164.377V86.9ZM162.271 94.83C161.933 95.038 161.556 95.129 161.14 95.129C160.477 95.129 159.944 94.908 159.541 94.453C159.138 93.998 158.943 93.413 158.943 92.685C158.943 91.97 159.138 91.385 159.541 90.93C159.944 90.475 160.477 90.241 161.14 90.241C161.556 90.241 161.933 90.345 162.271 90.553C162.609 90.761 162.869 91.06 163.051 91.437C163.233 91.814 163.324 92.243 163.324 92.711C163.324 93.179 163.233 93.608 163.051 93.972C162.869 94.336 162.609 94.622 162.271 94.83ZM166.857 87.004C166.727 86.874 166.558 86.809 166.363 86.809C166.155 86.809 165.999 86.874 165.869 87.004C165.739 87.134 165.674 87.303 165.674 87.498C165.674 87.706 165.739 87.862 165.869 87.992C165.999 88.122 166.155 88.187 166.363 88.187C166.558 88.187 166.727 88.122 166.857 87.992C166.987 87.862 167.052 87.706 167.052 87.498C167.052 87.303 166.987 87.134 166.857 87.004ZM165.83 89.37V96H166.896V89.37H165.83ZM174.648 89.37H173.725L173.582 90.514C173.361 90.124 173.062 89.825 172.685 89.617C172.295 89.409 171.84 89.292 171.307 89.292C170.696 89.292 170.15 89.435 169.669 89.721C169.175 90.007 168.798 90.41 168.525 90.917C168.252 91.437 168.122 92.022 168.122 92.685C168.122 93.387 168.252 93.998 168.525 94.505C168.798 95.025 169.175 95.415 169.656 95.675C170.137 95.948 170.683 96.078 171.307 96.078C172.347 96.078 173.101 95.675 173.582 94.856V95.636C173.582 97.04 172.867 97.729 171.437 97.729C170.878 97.729 170.423 97.625 170.072 97.391C169.708 97.17 169.487 96.845 169.409 96.429H168.317C168.395 97.157 168.707 97.703 169.253 98.093C169.799 98.483 170.501 98.678 171.359 98.678C173.543 98.678 174.648 97.677 174.648 95.675V89.37ZM172.542 94.83C172.204 95.038 171.827 95.129 171.411 95.129C170.748 95.129 170.215 94.908 169.812 94.453C169.409 93.998 169.214 93.413 169.214 92.685C169.214 91.97 169.409 91.385 169.812 90.93C170.215 90.475 170.748 90.241 171.411 90.241C171.827 90.241 172.204 90.345 172.542 90.553C172.88 90.761 173.14 91.06 173.322 91.437C173.504 91.814 173.595 92.243 173.595 92.711C173.595 93.179 173.504 93.608 173.322 93.972C173.14 94.336 172.88 94.622 172.542 94.83ZM177.127 87.004C176.997 86.874 176.828 86.809 176.633 86.809C176.425 86.809 176.269 86.874 176.139 87.004C176.009 87.134 175.944 87.303 175.944 87.498C175.944 87.706 176.009 87.862 176.139 87.992C176.269 88.122 176.425 88.187 176.633 88.187C176.828 88.187 176.997 88.122 177.127 87.992C177.257 87.862 177.322 87.706 177.322 87.498C177.322 87.303 177.257 87.134 177.127 87.004ZM176.1 89.37V96H177.166V89.37H176.1ZM179.068 90.345V94.271C179.068 94.869 179.198 95.311 179.458 95.584C179.718 95.87 180.173 96 180.797 96H182.019V95.025H180.862C180.589 95.025 180.394 94.973 180.29 94.856C180.186 94.739 180.134 94.544 180.134 94.258V90.345H181.811V89.37H180.134V87.511H179.068V89.37H177.872V90.345H179.068ZM188.877 95.025H188.552C188.253 95.025 188.11 94.869 188.11 94.544V91.684C188.11 90.917 187.876 90.332 187.408 89.916C186.94 89.5 186.29 89.292 185.445 89.292C184.639 89.292 183.989 89.474 183.495 89.838C183.001 90.202 182.715 90.709 182.637 91.359H183.703C183.768 91.021 183.95 90.761 184.249 90.553C184.548 90.345 184.925 90.241 185.393 90.241C185.913 90.241 186.316 90.371 186.602 90.605C186.888 90.852 187.044 91.19 187.044 91.619V92.074H185.094C184.223 92.074 183.56 92.256 183.105 92.607C182.65 92.971 182.429 93.478 182.429 94.141C182.429 94.739 182.65 95.22 183.092 95.558C183.534 95.909 184.132 96.078 184.873 96.078C185.835 96.078 186.576 95.714 187.096 94.973C187.096 95.311 187.2 95.571 187.382 95.74C187.564 95.922 187.863 96 188.292 96H188.877V95.025ZM187.044 92.971V93.296C187.044 93.868 186.849 94.323 186.485 94.661C186.108 94.999 185.601 95.168 184.951 95.168C184.509 95.168 184.158 95.077 183.898 94.869C183.638 94.674 183.508 94.414 183.508 94.076C183.508 93.348 184.002 92.971 184.99 92.971H187.044ZM189.697 86.9V96H190.763V86.9H189.697ZM201.826 95.025H201.501C201.202 95.025 201.059 94.869 201.059 94.544V91.684C201.059 90.917 200.825 90.332 200.357 89.916C199.889 89.5 199.239 89.292 198.394 89.292C197.588 89.292 196.938 89.474 196.444 89.838C195.95 90.202 195.664 90.709 195.586 91.359H196.652C196.717 91.021 196.899 90.761 197.198 90.553C197.497 90.345 197.874 90.241 198.342 90.241C198.862 90.241 199.265 90.371 199.551 90.605C199.837 90.852 199.993 91.19 199.993 91.619V92.074H198.043C197.172 92.074 196.509 92.256 196.054 92.607C195.599 92.971 195.378 93.478 195.378 94.141C195.378 94.739 195.599 95.22 196.041 95.558C196.483 95.909 197.081 96.078 197.822 96.078C198.784 96.078 199.525 95.714 200.045 94.973C200.045 95.311 200.149 95.571 200.331 95.74C200.513 95.922 200.812 96 201.241 96H201.826V95.025ZM199.993 92.971V93.296C199.993 93.868 199.798 94.323 199.434 94.661C199.057 94.999 198.55 95.168 197.9 95.168C197.458 95.168 197.107 95.077 196.847 94.869C196.587 94.674 196.457 94.414 196.457 94.076C196.457 93.348 196.951 92.971 197.939 92.971H199.993ZM203.478 93.816H202.412C202.412 94.531 202.685 95.09 203.205 95.48C203.725 95.883 204.427 96.078 205.298 96.078C205.779 96.078 206.221 96 206.624 95.831C207.014 95.675 207.339 95.441 207.573 95.129C207.807 94.83 207.924 94.479 207.924 94.076C207.924 93.621 207.807 93.257 207.573 92.984C207.339 92.724 207.04 92.529 206.663 92.399C206.286 92.282 205.805 92.191 205.233 92.113C204.817 92.061 204.505 92.022 204.297 91.97C204.089 91.931 203.933 91.853 203.803 91.723C203.673 91.606 203.608 91.437 203.608 91.203C203.608 90.904 203.738 90.657 204.024 90.475C204.297 90.293 204.661 90.189 205.116 90.189C205.558 90.189 205.922 90.306 206.221 90.527C206.507 90.761 206.676 91.047 206.728 91.385H207.794C207.742 90.709 207.469 90.189 206.975 89.825C206.481 89.461 205.857 89.279 205.077 89.279C204.596 89.279 204.167 89.37 203.79 89.539C203.4 89.708 203.101 89.942 202.88 90.241C202.659 90.553 202.555 90.891 202.555 91.281C202.555 91.723 202.659 92.061 202.893 92.308C203.114 92.555 203.413 92.737 203.777 92.841C204.141 92.958 204.609 93.049 205.181 93.114C205.584 93.166 205.896 93.218 206.117 93.27C206.338 93.322 206.52 93.426 206.663 93.556C206.793 93.699 206.871 93.894 206.871 94.154C206.871 94.466 206.715 94.713 206.429 94.895C206.143 95.077 205.766 95.168 205.298 95.168C204.765 95.168 204.336 95.051 203.998 94.791C203.66 94.544 203.491 94.219 203.478 93.816ZM209.838 93.816H208.772C208.772 94.531 209.045 95.09 209.565 95.48C210.085 95.883 210.787 96.078 211.658 96.078C212.139 96.078 212.581 96 212.984 95.831C213.374 95.675 213.699 95.441 213.933 95.129C214.167 94.83 214.284 94.479 214.284 94.076C214.284 93.621 214.167 93.257 213.933 92.984C213.699 92.724 213.4 92.529 213.023 92.399C212.646 92.282 212.165 92.191 211.593 92.113C211.177 92.061 210.865 92.022 210.657 91.97C210.449 91.931 210.293 91.853 210.163 91.723C210.033 91.606 209.968 91.437 209.968 91.203C209.968 90.904 210.098 90.657 210.384 90.475C210.657 90.293 211.021 90.189 211.476 90.189C211.918 90.189 212.282 90.306 212.581 90.527C212.867 90.761 213.036 91.047 213.088 91.385H214.154C214.102 90.709 213.829 90.189 213.335 89.825C212.841 89.461 212.217 89.279 211.437 89.279C210.956 89.279 210.527 89.37 210.15 89.539C209.76 89.708 209.461 89.942 209.24 90.241C209.019 90.553 208.915 90.891 208.915 91.281C208.915 91.723 209.019 92.061 209.253 92.308C209.474 92.555 209.773 92.737 210.137 92.841C210.501 92.958 210.969 93.049 211.541 93.114C211.944 93.166 212.256 93.218 212.477 93.27C212.698 93.322 212.88 93.426 213.023 93.556C213.153 93.699 213.231 93.894 213.231 94.154C213.231 94.466 213.075 94.713 212.789 94.895C212.503 95.077 212.126 95.168 211.658 95.168C211.125 95.168 210.696 95.051 210.358 94.791C210.02 94.544 209.851 94.219 209.838 93.816ZM215.65 90.904C215.39 91.424 215.26 92.009 215.26 92.685C215.26 93.361 215.39 93.946 215.663 94.466C215.936 94.986 216.326 95.376 216.82 95.662C217.314 95.948 217.886 96.078 218.549 96.078C219.303 96.078 219.94 95.87 220.46 95.441C220.98 95.012 221.305 94.453 221.435 93.777H220.356C220.239 94.206 220.018 94.544 219.68 94.778C219.342 95.012 218.939 95.129 218.471 95.129C217.847 95.129 217.353 94.934 216.976 94.544C216.586 94.154 216.391 93.634 216.378 92.984V92.893H221.526C221.539 92.685 221.552 92.542 221.552 92.438C221.526 91.801 221.383 91.242 221.123 90.761C220.85 90.293 220.486 89.929 220.018 89.669C219.55 89.422 219.004 89.292 218.406 89.292C217.782 89.292 217.236 89.435 216.768 89.721C216.287 90.007 215.91 90.397 215.65 90.904ZM220.447 92.009H216.443C216.495 91.489 216.703 91.06 217.093 90.722C217.47 90.397 217.912 90.228 218.419 90.228C218.978 90.228 219.446 90.384 219.81 90.696C220.174 91.008 220.395 91.45 220.447 92.009ZM223.134 90.345V94.271C223.134 94.869 223.264 95.311 223.524 95.584C223.784 95.87 224.239 96 224.863 96H226.085V95.025H224.928C224.655 95.025 224.46 94.973 224.356 94.856C224.252 94.739 224.2 94.544 224.2 94.258V90.345H225.877V89.37H224.2V87.511H223.134V89.37H221.938V90.345H223.134ZM227.675 93.816H226.609C226.609 94.531 226.882 95.09 227.402 95.48C227.922 95.883 228.624 96.078 229.495 96.078C229.976 96.078 230.418 96 230.821 95.831C231.211 95.675 231.536 95.441 231.77 95.129C232.004 94.83 232.121 94.479 232.121 94.076C232.121 93.621 232.004 93.257 231.77 92.984C231.536 92.724 231.237 92.529 230.86 92.399C230.483 92.282 230.002 92.191 229.43 92.113C229.014 92.061 228.702 92.022 228.494 91.97C228.286 91.931 228.13 91.853 228 91.723C227.87 91.606 227.805 91.437 227.805 91.203C227.805 90.904 227.935 90.657 228.221 90.475C228.494 90.293 228.858 90.189 229.313 90.189C229.755 90.189 230.119 90.306 230.418 90.527C230.704 90.761 230.873 91.047 230.925 91.385H231.991C231.939 90.709 231.666 90.189 231.172 89.825C230.678 89.461 230.054 89.279 229.274 89.279C228.793 89.279 228.364 89.37 227.987 89.539C227.597 89.708 227.298 89.942 227.077 90.241C226.856 90.553 226.752 90.891 226.752 91.281C226.752 91.723 226.856 92.061 227.09 92.308C227.311 92.555 227.61 92.737 227.974 92.841C228.338 92.958 228.806 93.049 229.378 93.114C229.781 93.166 230.093 93.218 230.314 93.27C230.535 93.322 230.717 93.426 230.86 93.556C230.99 93.699 231.068 93.894 231.068 94.154C231.068 94.466 230.912 94.713 230.626 94.895C230.34 95.077 229.963 95.168 229.495 95.168C228.962 95.168 228.533 95.051 228.195 94.791C227.857 94.544 227.688 94.219 227.675 93.816ZM22.104 109.37L24.249 116.013L25.419 116L27.083 111.073L28.682 116H29.852L32.062 109.37H30.983L29.254 114.765L27.603 109.37H26.615L24.873 114.765L23.222 109.37H22.104ZM33.9239 107.004C33.7939 106.874 33.6249 106.809 33.4299 106.809C33.2219 106.809 33.0659 106.874 32.9359 107.004C32.8059 107.134 32.7409 107.303 32.7409 107.498C32.7409 107.706 32.8059 107.862 32.9359 107.992C33.0659 108.122 33.2219 108.187 33.4299 108.187C33.6249 108.187 33.7939 108.122 33.9239 107.992C34.0539 107.862 34.1189 107.706 34.1189 107.498C34.1189 107.303 34.0539 107.134 33.9239 107.004ZM32.8969 109.37V116H33.9629V109.37H32.8969ZM35.8653 110.345V114.271C35.8653 114.869 35.9953 115.311 36.2553 115.584C36.5153 115.87 36.9703 116 37.5943 116H38.8163V115.025H37.6593C37.3863 115.025 37.1913 114.973 37.0873 114.856C36.9833 114.739 36.9313 114.544 36.9313 114.258V110.345H38.6083V109.37H36.9313V107.511H35.8653V109.37H34.6693V110.345H35.8653ZM44.7747 110.02C44.2807 109.539 43.6307 109.292 42.8247 109.292C42.3047 109.292 41.8627 109.409 41.4987 109.617C41.1347 109.838 40.8487 110.124 40.6407 110.462V106.9H39.5747V116H40.6407V112.685C40.6407 111.944 40.8097 111.359 41.1737 110.917C41.5377 110.488 42.0187 110.267 42.6427 110.267C43.2147 110.267 43.6697 110.449 43.9817 110.813C44.2937 111.177 44.4497 111.697 44.4497 112.373V116H45.5157V112.308C45.5157 111.268 45.2687 110.514 44.7747 110.02ZM55.2558 109.695C54.7748 109.435 54.2288 109.292 53.6178 109.292C52.6558 109.292 51.8888 109.682 51.3428 110.436L51.1998 109.37H50.2768V118.6H51.3428V114.986C51.5508 115.324 51.8498 115.597 52.2398 115.792C52.6168 115.987 53.0718 116.078 53.6178 116.078C54.2158 116.078 54.7618 115.935 55.2558 115.649C55.7368 115.363 56.1138 114.973 56.3868 114.453C56.6598 113.946 56.8028 113.361 56.8028 112.685C56.8028 111.983 56.6598 111.385 56.3868 110.865C56.1138 110.358 55.7368 109.968 55.2558 109.695ZM55.0998 114.453C54.6968 114.908 54.1638 115.129 53.5138 115.129C53.0848 115.129 52.7078 115.025 52.3698 114.817C52.0318 114.609 51.7848 114.323 51.6028 113.946C51.4208 113.569 51.3298 113.14 51.3298 112.659C51.3298 112.191 51.4208 111.775 51.6028 111.411C51.7848 111.047 52.0318 110.761 52.3698 110.553C52.7078 110.345 53.0848 110.241 53.5138 110.241C54.1638 110.241 54.6968 110.475 55.0998 110.93C55.5028 111.385 55.7108 111.97 55.7108 112.685C55.7108 113.413 55.5028 113.998 55.0998 114.453ZM58.177 110.904C57.917 111.424 57.787 112.009 57.787 112.685C57.787 113.361 57.917 113.946 58.19 114.466C58.463 114.986 58.853 115.376 59.347 115.662C59.841 115.948 60.413 116.078 61.076 116.078C61.83 116.078 62.467 115.87 62.987 115.441C63.507 115.012 63.832 114.453 63.962 113.777H62.883C62.766 114.206 62.545 114.544 62.207 114.778C61.869 115.012 61.466 115.129 60.998 115.129C60.374 115.129 59.88 114.934 59.503 114.544C59.113 114.154 58.918 113.634 58.905 112.984V112.893H64.053C64.066 112.685 64.079 112.542 64.079 112.438C64.053 111.801 63.91 111.242 63.65 110.761C63.377 110.293 63.013 109.929 62.545 109.669C62.077 109.422 61.531 109.292 60.933 109.292C60.309 109.292 59.763 109.435 59.295 109.721C58.814 110.007 58.437 110.397 58.177 110.904ZM62.974 112.009H58.97C59.022 111.489 59.23 111.06 59.62 110.722C59.997 110.397 60.439 110.228 60.946 110.228C61.505 110.228 61.973 110.384 62.337 110.696C62.701 111.008 62.922 111.45 62.974 112.009ZM65.4514 110.904C65.1914 111.424 65.0614 112.009 65.0614 112.685C65.0614 113.361 65.1914 113.946 65.4644 114.466C65.7374 114.986 66.1274 115.376 66.6214 115.662C67.1154 115.948 67.6874 116.078 68.3504 116.078C69.1044 116.078 69.7414 115.87 70.2614 115.441C70.7814 115.012 71.1064 114.453 71.2364 113.777H70.1574C70.0404 114.206 69.8194 114.544 69.4814 114.778C69.1434 115.012 68.7404 115.129 68.2724 115.129C67.6484 115.129 67.1544 114.934 66.7774 114.544C66.3874 114.154 66.1924 113.634 66.1794 112.984V112.893H71.3274C71.3404 112.685 71.3534 112.542 71.3534 112.438C71.3274 111.801 71.1844 111.242 70.9244 110.761C70.6514 110.293 70.2874 109.929 69.8194 109.669C69.3514 109.422 68.8054 109.292 68.2074 109.292C67.5834 109.292 67.0374 109.435 66.5694 109.721C66.0884 110.007 65.7114 110.397 65.4514 110.904ZM70.2484 112.009H66.2444C66.2964 111.489 66.5044 111.06 66.8944 110.722C67.2714 110.397 67.7134 110.228 68.2204 110.228C68.7794 110.228 69.2474 110.384 69.6114 110.696C69.9754 111.008 70.1964 111.45 70.2484 112.009ZM75.9368 109.37H75.6378C75.0918 109.37 74.6758 109.461 74.3768 109.643C74.0648 109.825 73.8178 110.072 73.6358 110.371L73.4928 109.37H72.5698V116H73.6358V112.62C73.6358 111.996 73.7658 111.476 74.0388 111.047C74.3118 110.631 74.7668 110.41 75.4038 110.41H75.9368V109.37ZM77.5024 113.816H76.4364C76.4364 114.531 76.7094 115.09 77.2294 115.48C77.7494 115.883 78.4514 116.078 79.3224 116.078C79.8034 116.078 80.2454 116 80.6484 115.831C81.0384 115.675 81.3634 115.441 81.5974 115.129C81.8314 114.83 81.9484 114.479 81.9484 114.076C81.9484 113.621 81.8314 113.257 81.5974 112.984C81.3634 112.724 81.0644 112.529 80.6874 112.399C80.3104 112.282 79.8294 112.191 79.2574 112.113C78.8414 112.061 78.5294 112.022 78.3214 111.97C78.1134 111.931 77.9574 111.853 77.8274 111.723C77.6974 111.606 77.6324 111.437 77.6324 111.203C77.6324 110.904 77.7624 110.657 78.0484 110.475C78.3214 110.293 78.6854 110.189 79.1404 110.189C79.5824 110.189 79.9464 110.306 80.2454 110.527C80.5314 110.761 80.7004 111.047 80.7524 111.385H81.8184C81.7664 110.709 81.4934 110.189 80.9994 109.825C80.5054 109.461 79.8814 109.279 79.1014 109.279C78.6204 109.279 78.1914 109.37 77.8144 109.539C77.4244 109.708 77.1254 109.942 76.9044 110.241C76.6834 110.553 76.5794 110.891 76.5794 111.281C76.5794 111.723 76.6834 112.061 76.9174 112.308C77.1384 112.555 77.4374 112.737 77.8014 112.841C78.1654 112.958 78.6334 113.049 79.2054 113.114C79.6084 113.166 79.9204 113.218 80.1414 113.27C80.3624 113.322 80.5444 113.426 80.6874 113.556C80.8174 113.699 80.8954 113.894 80.8954 114.154C80.8954 114.466 80.7394 114.713 80.4534 114.895C80.1674 115.077 79.7904 115.168 79.3224 115.168C78.7894 115.168 78.3604 115.051 78.0224 114.791C77.6844 114.544 77.5154 114.219 77.5024 113.816Z" fill="#3E3E3E"/>
<rect x="22" y="32" width="40" height="40" rx="10" fill="#10CC67" fill-opacity="0.1"/>
<path d="M39.7071 46.7071C40.0977 46.3166 40.0977 45.6834 39.7071 45.2929C39.3166 44.9024 38.6835 44.9024 38.2929 45.2929L34.298 49.2878C34.1141 49.4691 34 49.7213 34 50C34 50.5523 34.4477 51 35 51H49C49.5523 51 50 50.5523 50 50C50 49.4477 49.5523 49 49 49H37.4143L39.7071 46.7071Z" fill="#10CC67"/>
<path d="M34 54C34 53.4477 34.4477 53 35 53H49C49.5523 53 50 53.4477 50 54C50 54.2706 49.8925 54.5161 49.7179 54.6961C49.7144 54.6997 49.7108 54.7034 49.7071 54.7071L45.7071 58.7071C45.3166 59.0976 44.6834 59.0976 44.2929 58.7071C43.9024 58.3166 43.9024 57.6834 44.2929 57.2929L46.5858 55H35C34.4477 55 34 54.5523 34 54Z" fill="#10CC67"/>
<path d="M78.17 193.96C77.75 194.77 77.555 195.7 77.555 196.75C77.555 197.83 77.75 198.76 78.17 199.57C78.59 200.38 79.175 200.995 79.94 201.43C80.705 201.88 81.605 202.09 82.625 202.09C83.42 202.09 84.14 201.94 84.77 201.64C85.4 201.34 85.91 200.92 86.3 200.365C86.69 199.825 86.945 199.18 87.065 198.43H85.34C85.16 199.105 84.83 199.63 84.35 200.005C83.87 200.395 83.27 200.575 82.55 200.575C81.89 200.575 81.32 200.425 80.84 200.095C80.345 199.765 79.97 199.315 79.715 198.73C79.445 198.16 79.325 197.5 79.325 196.75C79.325 196 79.445 195.34 79.715 194.77C79.97 194.2 80.345 193.75 80.84 193.42C81.32 193.09 81.89 192.925 82.55 192.925C83.27 192.925 83.87 193.12 84.365 193.495C84.845 193.885 85.175 194.41 85.355 195.07H87.08C86.96 194.35 86.705 193.705 86.315 193.15C85.91 192.595 85.385 192.16 84.755 191.86C84.125 191.56 83.405 191.41 82.625 191.41C81.605 191.41 80.705 191.635 79.94 192.085C79.175 192.535 78.59 193.15 78.17 193.96ZM92.6308 194.32H92.2708C91.6708 194.32 91.2058 194.425 90.8608 194.635C90.5008 194.845 90.2158 195.115 90.0058 195.475L89.8258 194.32H88.3858V202H90.0058V198.145C90.0058 197.485 90.1558 196.93 90.4558 196.495C90.7558 196.06 91.2358 195.835 91.9108 195.835H92.6308V194.32ZM94.7071 194.32H92.9821L95.9821 202.06L95.6671 202.795C95.5321 203.125 95.4121 203.35 95.2921 203.44C95.1721 203.53 94.9471 203.575 94.6471 203.575H93.5071V205H95.2471C95.6071 205 95.9071 204.94 96.1321 204.82C96.3421 204.7 96.5371 204.505 96.6871 204.265C96.8371 204.025 97.0021 203.665 97.1821 203.2L100.662 194.32H98.9371L96.8521 200.245L94.7071 194.32ZM107.467 194.71C106.912 194.395 106.282 194.23 105.592 194.23C104.542 194.23 103.702 194.65 103.087 195.46L102.892 194.32H101.482V205H103.102V200.92C103.342 201.28 103.687 201.565 104.107 201.775C104.527 201.985 105.022 202.09 105.592 202.09C106.282 202.09 106.912 201.94 107.467 201.61C108.007 201.28 108.442 200.83 108.757 200.23C109.057 199.63 109.222 198.94 109.222 198.16C109.222 197.365 109.057 196.675 108.757 196.075C108.442 195.475 108.007 195.025 107.467 194.71ZM106.942 200.005C106.522 200.485 105.982 200.725 105.322 200.725C104.647 200.725 104.107 200.485 103.702 200.005C103.282 199.525 103.087 198.91 103.087 198.13C103.087 197.38 103.282 196.78 103.702 196.315C104.107 195.85 104.647 195.61 105.322 195.61C105.982 195.61 106.522 195.85 106.942 196.315C107.362 196.795 107.572 197.41 107.572 198.16C107.572 198.91 107.362 199.525 106.942 200.005ZM110.956 195.745V199.915C110.956 200.635 111.121 201.16 111.451 201.49C111.781 201.835 112.321 202 113.056 202H114.616V200.575H113.386C113.086 200.575 112.891 200.515 112.771 200.395C112.651 200.275 112.591 200.05 112.591 199.75V195.745H114.436V194.32H112.591V192.175H110.956V194.32H109.621V195.745H110.956ZM116.899 201.61C117.499 201.94 118.174 202.09 118.954 202.09C119.719 202.09 120.394 201.94 120.994 201.61C121.594 201.28 122.044 200.83 122.374 200.23C122.704 199.63 122.869 198.94 122.869 198.16C122.869 197.395 122.704 196.72 122.374 196.12C122.044 195.52 121.594 195.055 120.994 194.725C120.394 194.395 119.719 194.23 118.954 194.23C118.174 194.23 117.499 194.395 116.899 194.725C116.299 195.055 115.849 195.52 115.519 196.12C115.189 196.72 115.039 197.395 115.039 198.16C115.039 198.94 115.189 199.63 115.519 200.23C115.849 200.83 116.299 201.28 116.899 201.61ZM120.589 200.005C120.169 200.485 119.629 200.71 118.954 200.71C118.264 200.71 117.724 200.485 117.319 200.005C116.899 199.525 116.704 198.91 116.704 198.16C116.704 197.41 116.899 196.81 117.319 196.33C117.724 195.85 118.264 195.61 118.954 195.61C119.629 195.61 120.169 195.85 120.589 196.33C121.009 196.81 121.219 197.41 121.219 198.16C121.219 198.91 121.009 199.525 120.589 200.005ZM128.175 202H134.415V200.47H129.9V191.5H128.175V202ZM136.807 201.61C137.407 201.94 138.082 202.09 138.862 202.09C139.627 202.09 140.302 201.94 140.902 201.61C141.502 201.28 141.952 200.83 142.282 200.23C142.612 199.63 142.777 198.94 142.777 198.16C142.777 197.395 142.612 196.72 142.282 196.12C141.952 195.52 141.502 195.055 140.902 194.725C140.302 194.395 139.627 194.23 138.862 194.23C138.082 194.23 137.407 194.395 136.807 194.725C136.207 195.055 135.757 195.52 135.427 196.12C135.097 196.72 134.947 197.395 134.947 198.16C134.947 198.94 135.097 199.63 135.427 200.23C135.757 200.83 136.207 201.28 136.807 201.61ZM140.497 200.005C140.077 200.485 139.537 200.71 138.862 200.71C138.172 200.71 137.632 200.485 137.227 200.005C136.807 199.525 136.612 198.91 136.612 198.16C136.612 197.41 136.807 196.81 137.227 196.33C137.632 195.85 138.172 195.61 138.862 195.61C139.537 195.61 140.077 195.85 140.497 196.33C140.917 196.81 141.127 197.41 141.127 198.16C141.127 198.91 140.917 199.525 140.497 200.005ZM151.429 200.59H151.114C150.769 200.59 150.604 200.41 150.604 200.05V197.02C150.604 196.12 150.319 195.43 149.764 194.95C149.194 194.47 148.399 194.23 147.379 194.23C146.404 194.23 145.624 194.455 145.024 194.875C144.424 195.295 144.079 195.895 144.004 196.66H145.594C145.654 196.33 145.834 196.06 146.134 195.85C146.434 195.64 146.824 195.535 147.304 195.535C147.829 195.535 148.249 195.67 148.549 195.91C148.849 196.15 148.999 196.495 148.999 196.915V197.38H147.064C145.984 197.38 145.174 197.605 144.619 198.025C144.049 198.445 143.779 199.06 143.779 199.84C143.779 200.545 144.034 201.1 144.559 201.49C145.069 201.895 145.759 202.09 146.629 202.09C147.739 202.09 148.579 201.655 149.164 200.77C149.164 201.175 149.269 201.475 149.494 201.685C149.704 201.895 150.064 202 150.574 202H151.429V200.59ZM148.999 198.58V198.85C148.984 199.45 148.789 199.93 148.414 200.29C148.039 200.65 147.514 200.83 146.854 200.83C146.404 200.83 146.059 200.74 145.804 200.53C145.549 200.335 145.429 200.065 145.429 199.735C145.429 199.36 145.564 199.075 145.834 198.88C146.104 198.685 146.479 198.58 146.989 198.58H148.999ZM158.582 195.07C158.012 194.515 157.262 194.23 156.362 194.23C155.297 194.23 154.472 194.605 153.902 195.325L153.722 194.32H152.312V202H153.932V198.13C153.932 197.35 154.112 196.75 154.472 196.3C154.832 195.85 155.342 195.625 155.987 195.625C156.587 195.625 157.037 195.82 157.352 196.195C157.652 196.585 157.817 197.14 157.817 197.86V202H159.452V197.77C159.452 196.54 159.152 195.64 158.582 195.07Z" fill="#1C1C1C"/>
<path d="M26.108 229.9H22.884V239H26.199C27.265 239 28.071 238.779 28.643 238.337C29.215 237.895 29.501 237.271 29.501 236.491C29.501 235.295 28.825 234.58 27.499 234.32C28.019 234.19 28.422 233.943 28.708 233.592C28.981 233.241 29.124 232.799 29.124 232.253C29.124 231.525 28.851 230.94 28.331 230.524C27.811 230.108 27.07 229.9 26.108 229.9ZM24.015 233.852V230.927H26.16C26.745 230.927 27.2 231.057 27.512 231.317C27.824 231.577 27.993 231.928 27.993 232.383C27.993 232.851 27.824 233.202 27.512 233.462C27.187 233.722 26.732 233.852 26.16 233.852H24.015ZM24.015 237.973V234.866H26.199C26.875 234.866 27.408 235.009 27.785 235.282C28.149 235.555 28.344 235.945 28.344 236.452C28.344 236.933 28.149 237.31 27.785 237.57C27.421 237.843 26.888 237.973 26.199 237.973H24.015ZM32.1666 238.649C32.6606 238.935 33.2326 239.078 33.8826 239.078C34.5196 239.078 35.0916 238.935 35.5856 238.649C36.0796 238.363 36.4696 237.973 36.7556 237.453C37.0286 236.946 37.1716 236.361 37.1716 235.685C37.1716 235.022 37.0286 234.437 36.7556 233.917C36.4696 233.41 36.0796 233.007 35.5856 232.721C35.0916 232.435 34.5196 232.292 33.8826 232.292C33.2326 232.292 32.6606 232.435 32.1666 232.721C31.6726 233.007 31.2826 233.41 31.0096 233.917C30.7236 234.437 30.5936 235.022 30.5936 235.685C30.5936 236.361 30.7236 236.946 31.0096 237.453C31.2826 237.973 31.6726 238.363 32.1666 238.649ZM35.0266 237.817C34.6886 238.025 34.3116 238.129 33.8826 238.129C33.4406 238.129 33.0636 238.025 32.7256 237.817C32.3876 237.609 32.1406 237.323 31.9586 236.946C31.7766 236.582 31.6856 236.153 31.6856 235.685C31.6856 235.217 31.7766 234.801 31.9586 234.424C32.1406 234.06 32.3876 233.761 32.7256 233.553C33.0636 233.345 33.4406 233.241 33.8826 233.241C34.3116 233.241 34.6886 233.345 35.0266 233.553C35.3646 233.761 35.6246 234.06 35.8066 234.424C35.9886 234.801 36.0796 235.217 36.0796 235.685C36.0796 236.153 35.9886 236.582 35.8066 236.946C35.6246 237.323 35.3646 237.609 35.0266 237.817ZM41.761 232.37H41.462C40.916 232.37 40.5 232.461 40.201 232.643C39.889 232.825 39.642 233.072 39.46 233.371L39.317 232.37H38.394V239H39.46V235.62C39.46 234.996 39.59 234.476 39.863 234.047C40.136 233.631 40.591 233.41 41.228 233.41H41.761V232.37ZM46.1028 232.37H45.8038C45.2578 232.37 44.8418 232.461 44.5428 232.643C44.2308 232.825 43.9838 233.072 43.8018 233.371L43.6588 232.37H42.7358V239H43.8018V235.62C43.8018 234.996 43.9318 234.476 44.2048 234.047C44.4778 233.631 44.9328 233.41 45.5698 233.41H46.1028V232.37ZM48.0358 238.649C48.5298 238.935 49.1018 239.078 49.7518 239.078C50.3888 239.078 50.9608 238.935 51.4548 238.649C51.9488 238.363 52.3388 237.973 52.6248 237.453C52.8978 236.946 53.0408 236.361 53.0408 235.685C53.0408 235.022 52.8978 234.437 52.6248 233.917C52.3388 233.41 51.9488 233.007 51.4548 232.721C50.9608 232.435 50.3888 232.292 49.7518 232.292C49.1018 232.292 48.5298 232.435 48.0358 232.721C47.5418 233.007 47.1518 233.41 46.8788 233.917C46.5928 234.437 46.4628 235.022 46.4628 235.685C46.4628 236.361 46.5928 236.946 46.8788 237.453C47.1518 237.973 47.5418 238.363 48.0358 238.649ZM50.8958 237.817C50.5578 238.025 50.1808 238.129 49.7518 238.129C49.3097 238.129 48.9328 238.025 48.5948 237.817C48.2568 237.609 48.0098 237.323 47.8278 236.946C47.6458 236.582 47.5548 236.153 47.5548 235.685C47.5548 235.217 47.6458 234.801 47.8278 234.424C48.0098 234.06 48.2568 233.761 48.5948 233.553C48.9328 233.345 49.3097 233.241 49.7518 233.241C50.1808 233.241 50.5578 233.345 50.8958 233.553C51.2338 233.761 51.4938 234.06 51.6758 234.424C51.8578 234.801 51.9488 235.217 51.9488 235.685C51.9488 236.153 51.8578 236.582 51.6758 236.946C51.4938 237.323 51.2338 237.609 50.8958 237.817ZM53.4487 232.37L55.5937 239.013L56.7637 239L58.4277 234.073L60.0267 239H61.1967L63.4067 232.37H62.3277L60.5987 237.765L58.9477 232.37H57.9597L56.2177 237.765L54.5667 232.37H53.4487ZM72.584 238.454C73.091 238.038 73.416 237.453 73.559 236.712H72.493C72.389 237.154 72.181 237.505 71.856 237.752C71.518 238.012 71.115 238.129 70.634 238.129C69.997 238.129 69.477 237.908 69.087 237.453C68.697 236.998 68.502 236.4 68.502 235.672C68.502 234.957 68.697 234.372 69.087 233.917C69.477 233.475 69.997 233.241 70.634 233.241C71.102 233.241 71.492 233.371 71.83 233.618C72.155 233.878 72.376 234.216 72.48 234.632H73.559C73.429 233.904 73.104 233.332 72.597 232.916C72.09 232.5 71.453 232.292 70.673 232.292C70.023 232.292 69.464 232.435 68.97 232.721C68.476 233.007 68.086 233.397 67.813 233.904C67.54 234.424 67.41 235.009 67.41 235.672C67.41 236.348 67.54 236.933 67.813 237.453C68.073 237.973 68.45 238.363 68.944 238.649C69.425 238.935 69.984 239.078 70.634 239.078C71.414 239.078 72.064 238.87 72.584 238.454ZM78.1585 232.37H77.8595C77.3135 232.37 76.8975 232.461 76.5985 232.643C76.2865 232.825 76.0395 233.072 75.8575 233.371L75.7145 232.37H74.7915V239H75.8575V235.62C75.8575 234.996 75.9875 234.476 76.2605 234.047C76.5335 233.631 76.9885 233.41 77.6255 233.41H78.1585V232.37ZM79.6648 232.37H78.5338L81.1338 239.052L80.7958 239.845C80.6918 240.079 80.6138 240.248 80.5488 240.352C80.4838 240.456 80.4058 240.521 80.3018 240.56C80.1978 240.612 80.0418 240.625 79.8338 240.625H78.8848V241.6H80.1588C80.4578 241.6 80.7048 241.561 80.8868 241.457C81.0688 241.366 81.2118 241.223 81.3418 241.015C81.4588 240.82 81.6018 240.521 81.7578 240.118L84.8128 232.37H83.6818L81.7058 237.778L79.6648 232.37ZM90.5869 232.695C90.1059 232.435 89.5599 232.292 88.9489 232.292C87.9869 232.292 87.2199 232.682 86.6739 233.436L86.5309 232.37H85.6079V241.6H86.6739V237.986C86.8819 238.324 87.1809 238.597 87.5709 238.792C87.9479 238.987 88.4029 239.078 88.9489 239.078C89.5469 239.078 90.0929 238.935 90.5869 238.649C91.0679 238.363 91.4449 237.973 91.7179 237.453C91.9909 236.946 92.1339 236.361 92.1339 235.685C92.1339 234.983 91.9909 234.385 91.7179 233.865C91.4449 233.358 91.0679 232.968 90.5869 232.695ZM90.4309 237.453C90.0279 237.908 89.4949 238.129 88.8449 238.129C88.4159 238.129 88.0389 238.025 87.7009 237.817C87.3629 237.609 87.1159 237.323 86.9339 236.946C86.7519 236.569 86.6609 236.14 86.6609 235.659C86.6609 235.191 86.7519 234.775 86.9339 234.411C87.1159 234.047 87.3629 233.761 87.7009 233.553C88.0389 233.345 88.4159 233.241 88.8449 233.241C89.4949 233.241 90.0279 233.475 90.4309 233.93C90.8339 234.385 91.0419 234.97 91.0419 235.685C91.0419 236.413 90.8339 236.998 90.4309 237.453ZM93.7179 233.345V237.271C93.7179 237.869 93.8479 238.311 94.1079 238.584C94.3679 238.87 94.8229 239 95.4469 239H96.6689V238.025H95.5119C95.2389 238.025 95.0439 237.973 94.9399 237.856C94.8359 237.739 94.7839 237.544 94.7839 237.258V233.345H96.4609V232.37H94.7839V230.511H93.7179V232.37H92.5219V233.345H93.7179ZM98.6012 238.649C99.0952 238.935 99.6672 239.078 100.317 239.078C100.954 239.078 101.526 238.935 102.02 238.649C102.514 238.363 102.904 237.973 103.19 237.453C103.463 236.946 103.606 236.361 103.606 235.685C103.606 235.022 103.463 234.437 103.19 233.917C102.904 233.41 102.514 233.007 102.02 232.721C101.526 232.435 100.954 232.292 100.317 232.292C99.6672 232.292 99.0952 232.435 98.6012 232.721C98.1072 233.007 97.7172 233.41 97.4442 233.917C97.1582 234.437 97.0282 235.022 97.0282 235.685C97.0282 236.361 97.1582 236.946 97.4442 237.453C97.7172 237.973 98.1072 238.363 98.6012 238.649ZM101.461 237.817C101.123 238.025 100.746 238.129 100.317 238.129C99.8752 238.129 99.4982 238.025 99.1602 237.817C98.8222 237.609 98.5752 237.323 98.3932 236.946C98.2112 236.582 98.1202 236.153 98.1202 235.685C98.1202 235.217 98.2112 234.801 98.3932 234.424C98.5752 234.06 98.8222 233.761 99.1602 233.553C99.4982 233.345 99.8752 233.241 100.317 233.241C100.746 233.241 101.123 233.345 101.461 233.553C101.799 233.761 102.059 234.06 102.241 234.424C102.423 234.801 102.514 235.217 102.514 235.685C102.514 236.153 102.423 236.582 102.241 236.946C102.059 237.323 101.799 237.609 101.461 237.817ZM108.673 232.37H107.477V233.345H108.673V239H109.739V233.345H111.611V232.37H109.739V231.603C109.739 231.343 109.791 231.161 109.908 231.044C110.012 230.94 110.207 230.875 110.467 230.875H111.624V229.9H110.402C109.791 229.9 109.349 230.043 109.076 230.329C108.803 230.615 108.673 231.044 108.673 231.629V232.37ZM118.039 232.37H116.973V235.685C116.973 236.439 116.791 237.024 116.453 237.453C116.115 237.895 115.634 238.103 115.036 238.103C114.477 238.103 114.048 237.934 113.749 237.57C113.45 237.206 113.307 236.686 113.307 235.997V232.37H112.241V236.062C112.241 237.102 112.475 237.869 112.956 238.35C113.424 238.844 114.061 239.078 114.854 239.078C115.764 239.078 116.466 238.766 116.973 238.116L117.116 239H118.039V232.37ZM124.679 233.02C124.185 232.539 123.548 232.292 122.742 232.292C121.78 232.292 121.052 232.617 120.558 233.267L120.415 232.37H119.492V239H120.558V235.685C120.558 234.944 120.727 234.359 121.091 233.917C121.442 233.488 121.936 233.267 122.56 233.267C123.132 233.267 123.574 233.449 123.886 233.813C124.198 234.177 124.354 234.697 124.354 235.373V239H125.42V235.308C125.42 234.268 125.173 233.514 124.679 233.02ZM133.071 229.9H132.005V233.384C131.784 233.046 131.485 232.786 131.108 232.591C130.718 232.396 130.263 232.292 129.73 232.292C129.119 232.292 128.573 232.435 128.092 232.721C127.598 233.007 127.221 233.41 126.948 233.917C126.675 234.437 126.545 235.022 126.545 235.685C126.545 236.387 126.675 236.998 126.948 237.505C127.221 238.025 127.598 238.415 128.079 238.675C128.56 238.948 129.106 239.078 129.73 239.078C130.692 239.078 131.446 238.701 132.005 237.934L132.148 239H133.071V229.9ZM130.965 237.83C130.627 238.038 130.25 238.129 129.834 238.129C129.171 238.129 128.638 237.908 128.235 237.453C127.832 236.998 127.637 236.413 127.637 235.685C127.637 234.97 127.832 234.385 128.235 233.93C128.638 233.475 129.171 233.241 129.834 233.241C130.25 233.241 130.627 233.345 130.965 233.553C131.303 233.761 131.563 234.06 131.745 234.437C131.927 234.814 132.018 235.243 132.018 235.711C132.018 236.179 131.927 236.608 131.745 236.972C131.563 237.336 131.303 237.622 130.965 237.83ZM135.355 236.816H134.289C134.289 237.531 134.562 238.09 135.082 238.48C135.602 238.883 136.304 239.078 137.175 239.078C137.656 239.078 138.098 239 138.501 238.831C138.891 238.675 139.216 238.441 139.45 238.129C139.684 237.83 139.801 237.479 139.801 237.076C139.801 236.621 139.684 236.257 139.45 235.984C139.216 235.724 138.917 235.529 138.54 235.399C138.163 235.282 137.682 235.191 137.11 235.113C136.694 235.061 136.382 235.022 136.174 234.97C135.966 234.931 135.81 234.853 135.68 234.723C135.55 234.606 135.485 234.437 135.485 234.203C135.485 233.904 135.615 233.657 135.901 233.475C136.174 233.293 136.538 233.189 136.993 233.189C137.435 233.189 137.799 233.306 138.098 233.527C138.384 233.761 138.553 234.047 138.605 234.385H139.671C139.619 233.709 139.346 233.189 138.852 232.825C138.358 232.461 137.734 232.279 136.954 232.279C136.473 232.279 136.044 232.37 135.667 232.539C135.277 232.708 134.978 232.942 134.757 233.241C134.536 233.553 134.432 233.891 134.432 234.281C134.432 234.723 134.536 235.061 134.77 235.308C134.991 235.555 135.29 235.737 135.654 235.841C136.018 235.958 136.486 236.049 137.058 236.114C137.461 236.166 137.773 236.218 137.994 236.27C138.215 236.322 138.397 236.426 138.54 236.556C138.67 236.699 138.748 236.894 138.748 237.154C138.748 237.466 138.592 237.713 138.306 237.895C138.02 238.077 137.643 238.168 137.175 238.168C136.642 238.168 136.213 238.051 135.875 237.791C135.537 237.544 135.368 237.219 135.355 236.816ZM150.614 238.025H150.289C149.99 238.025 149.847 237.869 149.847 237.544V234.684C149.847 233.917 149.613 233.332 149.145 232.916C148.677 232.5 148.027 232.292 147.182 232.292C146.376 232.292 145.726 232.474 145.232 232.838C144.738 233.202 144.452 233.709 144.374 234.359H145.44C145.505 234.021 145.687 233.761 145.986 233.553C146.285 233.345 146.662 233.241 147.13 233.241C147.65 233.241 148.053 233.371 148.339 233.605C148.625 233.852 148.781 234.19 148.781 234.619V235.074H146.831C145.96 235.074 145.297 235.256 144.842 235.607C144.387 235.971 144.166 236.478 144.166 237.141C144.166 237.739 144.387 238.22 144.829 238.558C145.271 238.909 145.869 239.078 146.61 239.078C147.572 239.078 148.313 238.714 148.833 237.973C148.833 238.311 148.937 238.571 149.119 238.74C149.301 238.922 149.6 239 150.029 239H150.614V238.025ZM148.781 235.971V236.296C148.781 236.868 148.586 237.323 148.222 237.661C147.845 237.999 147.338 238.168 146.688 238.168C146.246 238.168 145.895 238.077 145.635 237.869C145.375 237.674 145.245 237.414 145.245 237.076C145.245 236.348 145.739 235.971 146.727 235.971H148.781ZM157.725 232.37H156.802L156.659 233.514C156.438 233.124 156.139 232.825 155.762 232.617C155.372 232.409 154.917 232.292 154.384 232.292C153.773 232.292 153.227 232.435 152.746 232.721C152.252 233.007 151.875 233.41 151.602 233.917C151.329 234.437 151.199 235.022 151.199 235.685C151.199 236.387 151.329 236.998 151.602 237.505C151.875 238.025 152.252 238.415 152.733 238.675C153.214 238.948 153.76 239.078 154.384 239.078C155.424 239.078 156.178 238.675 156.659 237.856V238.636C156.659 240.04 155.944 240.729 154.514 240.729C153.955 240.729 153.5 240.625 153.149 240.391C152.785 240.17 152.564 239.845 152.486 239.429H151.394C151.472 240.157 151.784 240.703 152.33 241.093C152.876 241.483 153.578 241.678 154.436 241.678C156.62 241.678 157.725 240.677 157.725 238.675V232.37ZM155.619 237.83C155.281 238.038 154.904 238.129 154.488 238.129C153.825 238.129 153.292 237.908 152.889 237.453C152.486 236.998 152.291 236.413 152.291 235.685C152.291 234.97 152.486 234.385 152.889 233.93C153.292 233.475 153.825 233.241 154.488 233.241C154.904 233.241 155.281 233.345 155.619 233.553C155.957 233.761 156.217 234.06 156.399 234.437C156.581 234.814 156.672 235.243 156.672 235.711C156.672 236.179 156.581 236.608 156.399 236.972C156.217 237.336 155.957 237.622 155.619 237.83ZM165.378 238.025H165.053C164.754 238.025 164.611 237.869 164.611 237.544V234.684C164.611 233.917 164.377 233.332 163.909 232.916C163.441 232.5 162.791 232.292 161.946 232.292C161.14 232.292 160.49 232.474 159.996 232.838C159.502 233.202 159.216 233.709 159.138 234.359H160.204C160.269 234.021 160.451 233.761 160.75 233.553C161.049 233.345 161.426 233.241 161.894 233.241C162.414 233.241 162.817 233.371 163.103 233.605C163.389 233.852 163.545 234.19 163.545 234.619V235.074H161.595C160.724 235.074 160.061 235.256 159.606 235.607C159.151 235.971 158.93 236.478 158.93 237.141C158.93 237.739 159.151 238.22 159.593 238.558C160.035 238.909 160.633 239.078 161.374 239.078C162.336 239.078 163.077 238.714 163.597 237.973C163.597 238.311 163.701 238.571 163.883 238.74C164.065 238.922 164.364 239 164.793 239H165.378V238.025ZM163.545 235.971V236.296C163.545 236.868 163.35 237.323 162.986 237.661C162.609 237.999 162.102 238.168 161.452 238.168C161.01 238.168 160.659 238.077 160.399 237.869C160.139 237.674 160.009 237.414 160.009 237.076C160.009 236.348 160.503 235.971 161.491 235.971H163.545ZM167.225 230.004C167.095 229.874 166.926 229.809 166.731 229.809C166.523 229.809 166.367 229.874 166.237 230.004C166.107 230.134 166.042 230.303 166.042 230.498C166.042 230.706 166.107 230.862 166.237 230.992C166.367 231.122 166.523 231.187 166.731 231.187C166.926 231.187 167.095 231.122 167.225 230.992C167.355 230.862 167.42 230.706 167.42 230.498C167.42 230.303 167.355 230.134 167.225 230.004ZM166.198 232.37V239H167.264V232.37H166.198ZM173.911 233.02C173.417 232.539 172.78 232.292 171.974 232.292C171.012 232.292 170.284 232.617 169.79 233.267L169.647 232.37H168.724V239H169.79V235.685C169.79 234.944 169.959 234.359 170.323 233.917C170.674 233.488 171.168 233.267 171.792 233.267C172.364 233.267 172.806 233.449 173.118 233.813C173.43 234.177 173.586 234.697 173.586 235.373V239H174.652V235.308C174.652 234.268 174.405 233.514 173.911 233.02ZM176.843 236.816H175.777C175.777 237.531 176.05 238.09 176.57 238.48C177.09 238.883 177.792 239.078 178.663 239.078C179.144 239.078 179.586 239 179.989 238.831C180.379 238.675 180.704 238.441 180.938 238.129C181.172 237.83 181.289 237.479 181.289 237.076C181.289 236.621 181.172 236.257 180.938 235.984C180.704 235.724 180.405 235.529 180.028 235.399C179.651 235.282 179.17 235.191 178.598 235.113C178.182 235.061 177.87 235.022 177.662 234.97C177.454 234.931 177.298 234.853 177.168 234.723C177.038 234.606 176.973 234.437 176.973 234.203C176.973 233.904 177.103 233.657 177.389 233.475C177.662 233.293 178.026 233.189 178.481 233.189C178.923 233.189 179.287 233.306 179.586 233.527C179.872 233.761 180.041 234.047 180.093 234.385H181.159C181.107 233.709 180.834 233.189 180.34 232.825C179.846 232.461 179.222 232.279 178.442 232.279C177.961 232.279 177.532 232.37 177.155 232.539C176.765 232.708 176.466 232.942 176.245 233.241C176.024 233.553 175.92 233.891 175.92 234.281C175.92 234.723 176.024 235.061 176.258 235.308C176.479 235.555 176.778 235.737 177.142 235.841C177.506 235.958 177.974 236.049 178.546 236.114C178.949 236.166 179.261 236.218 179.482 236.27C179.703 236.322 179.885 236.426 180.028 236.556C180.158 236.699 180.236 236.894 180.236 237.154C180.236 237.466 180.08 237.713 179.794 237.895C179.508 238.077 179.131 238.168 178.663 238.168C178.13 238.168 177.701 238.051 177.363 237.791C177.025 237.544 176.856 237.219 176.843 236.816ZM182.941 233.345V237.271C182.941 237.869 183.071 238.311 183.331 238.584C183.591 238.87 184.046 239 184.67 239H185.892V238.025H184.735C184.462 238.025 184.267 237.973 184.163 237.856C184.059 237.739 184.007 237.544 184.007 237.258V233.345H185.684V232.37H184.007V230.511H182.941V232.37H181.745V233.345H182.941ZM190.52 232.37H189.389L191.989 239.052L191.651 239.845C191.547 240.079 191.469 240.248 191.404 240.352C191.339 240.456 191.261 240.521 191.157 240.56C191.053 240.612 190.897 240.625 190.689 240.625H189.74V241.6H191.014C191.313 241.6 191.56 241.561 191.742 241.457C191.924 241.366 192.067 241.223 192.197 241.015C192.314 240.82 192.457 240.521 192.613 240.118L195.668 232.37H194.537L192.561 237.778L190.52 232.37ZM197.548 238.649C198.042 238.935 198.614 239.078 199.264 239.078C199.901 239.078 200.473 238.935 200.967 238.649C201.461 238.363 201.851 237.973 202.137 237.453C202.41 236.946 202.553 236.361 202.553 235.685C202.553 235.022 202.41 234.437 202.137 233.917C201.851 233.41 201.461 233.007 200.967 232.721C200.473 232.435 199.901 232.292 199.264 232.292C198.614 232.292 198.042 232.435 197.548 232.721C197.054 233.007 196.664 233.41 196.391 233.917C196.105 234.437 195.975 235.022 195.975 235.685C195.975 236.361 196.105 236.946 196.391 237.453C196.664 237.973 197.054 238.363 197.548 238.649ZM200.408 237.817C200.07 238.025 199.693 238.129 199.264 238.129C198.822 238.129 198.445 238.025 198.107 237.817C197.769 237.609 197.522 237.323 197.34 236.946C197.158 236.582 197.067 236.153 197.067 235.685C197.067 235.217 197.158 234.801 197.34 234.424C197.522 234.06 197.769 233.761 198.107 233.553C198.445 233.345 198.822 233.241 199.264 233.241C199.693 233.241 200.07 233.345 200.408 233.553C200.746 233.761 201.006 234.06 201.188 234.424C201.37 234.801 201.461 235.217 201.461 235.685C201.461 236.153 201.37 236.582 201.188 236.946C201.006 237.323 200.746 237.609 200.408 237.817ZM209.483 232.37H208.417V235.685C208.417 236.439 208.235 237.024 207.897 237.453C207.559 237.895 207.078 238.103 206.48 238.103C205.921 238.103 205.492 237.934 205.193 237.57C204.894 237.206 204.751 236.686 204.751 235.997V232.37H203.685V236.062C203.685 237.102 203.919 237.869 204.4 238.35C204.868 238.844 205.505 239.078 206.298 239.078C207.208 239.078 207.91 238.766 208.417 238.116L208.56 239H209.483V232.37ZM214.303 232.37H214.004C213.458 232.37 213.042 232.461 212.743 232.643C212.431 232.825 212.184 233.072 212.002 233.371L211.859 232.37H210.936V239H212.002V235.62C212.002 234.996 212.132 234.476 212.405 234.047C212.678 233.631 213.133 233.41 213.77 233.41H214.303V232.37ZM223.62 238.454C224.127 238.038 224.452 237.453 224.595 236.712H223.529C223.425 237.154 223.217 237.505 222.892 237.752C222.554 238.012 222.151 238.129 221.67 238.129C221.033 238.129 220.513 237.908 220.123 237.453C219.733 236.998 219.538 236.4 219.538 235.672C219.538 234.957 219.733 234.372 220.123 233.917C220.513 233.475 221.033 233.241 221.67 233.241C222.138 233.241 222.528 233.371 222.866 233.618C223.191 233.878 223.412 234.216 223.516 234.632H224.595C224.465 233.904 224.14 233.332 223.633 232.916C223.126 232.5 222.489 232.292 221.709 232.292C221.059 232.292 220.5 232.435 220.006 232.721C219.512 233.007 219.122 233.397 218.849 233.904C218.576 234.424 218.446 235.009 218.446 235.672C218.446 236.348 218.576 236.933 218.849 237.453C219.109 237.973 219.486 238.363 219.98 238.649C220.461 238.935 221.02 239.078 221.67 239.078C222.45 239.078 223.1 238.87 223.62 238.454ZM229.195 232.37H228.896C228.35 232.37 227.934 232.461 227.635 232.643C227.323 232.825 227.076 233.072 226.894 233.371L226.751 232.37H225.828V239H226.894V235.62C226.894 234.996 227.024 234.476 227.297 234.047C227.57 233.631 228.025 233.41 228.662 233.41H229.195V232.37ZM230.701 232.37H229.57L232.17 239.052L231.832 239.845C231.728 240.079 231.65 240.248 231.585 240.352C231.52 240.456 231.442 240.521 231.338 240.56C231.234 240.612 231.078 240.625 230.87 240.625H229.921V241.6H231.195C231.494 241.6 231.741 241.561 231.923 241.457C232.105 241.366 232.248 241.223 232.378 241.015C232.495 240.82 232.638 240.521 232.794 240.118L235.849 232.37H234.718L232.742 237.778L230.701 232.37ZM241.623 232.695C241.142 232.435 240.596 232.292 239.985 232.292C239.023 232.292 238.256 232.682 237.71 233.436L237.567 232.37H236.644V241.6H237.71V237.986C237.918 238.324 238.217 238.597 238.607 238.792C238.984 238.987 239.439 239.078 239.985 239.078C240.583 239.078 241.129 238.935 241.623 238.649C242.104 238.363 242.481 237.973 242.754 237.453C243.027 236.946 243.17 236.361 243.17 235.685C243.17 234.983 243.027 234.385 242.754 233.865C242.481 233.358 242.104 232.968 241.623 232.695ZM241.467 237.453C241.064 237.908 240.531 238.129 239.881 238.129C239.452 238.129 239.075 238.025 238.737 237.817C238.399 237.609 238.152 237.323 237.97 236.946C237.788 236.569 237.697 236.14 237.697 235.659C237.697 235.191 237.788 234.775 237.97 234.411C238.152 234.047 238.399 233.761 238.737 233.553C239.075 233.345 239.452 233.241 239.881 233.241C240.531 233.241 241.064 233.475 241.467 233.93C241.87 234.385 242.078 234.97 242.078 235.685C242.078 236.413 241.87 236.998 241.467 237.453ZM244.754 233.345V237.271C244.754 237.869 244.884 238.311 245.144 238.584C245.404 238.87 245.859 239 246.483 239H247.705V238.025H246.548C246.275 238.025 246.08 237.973 245.976 237.856C245.872 237.739 245.82 237.544 245.82 237.258V233.345H247.497V232.37H245.82V230.511H244.754V232.37H243.558V233.345H244.754ZM249.637 238.649C250.131 238.935 250.703 239.078 251.353 239.078C251.99 239.078 252.562 238.935 253.056 238.649C253.55 238.363 253.94 237.973 254.226 237.453C254.499 236.946 254.642 236.361 254.642 235.685C254.642 235.022 254.499 234.437 254.226 233.917C253.94 233.41 253.55 233.007 253.056 232.721C252.562 232.435 251.99 232.292 251.353 232.292C250.703 232.292 250.131 232.435 249.637 232.721C249.143 233.007 248.753 233.41 248.48 233.917C248.194 234.437 248.064 235.022 248.064 235.685C248.064 236.361 248.194 236.946 248.48 237.453C248.753 237.973 249.143 238.363 249.637 238.649ZM252.497 237.817C252.159 238.025 251.782 238.129 251.353 238.129C250.911 238.129 250.534 238.025 250.196 237.817C249.858 237.609 249.611 237.323 249.429 236.946C249.247 236.582 249.156 236.153 249.156 235.685C249.156 235.217 249.247 234.801 249.429 234.424C249.611 234.06 249.858 233.761 250.196 233.553C250.534 233.345 250.911 233.241 251.353 233.241C251.782 233.241 252.159 233.345 252.497 233.553C252.835 233.761 253.095 234.06 253.277 234.424C253.459 234.801 253.55 235.217 253.55 235.685C253.55 236.153 253.459 236.582 253.277 236.946C253.095 237.323 252.835 237.609 252.497 237.817ZM28.929 258.025H28.604C28.305 258.025 28.162 257.869 28.162 257.544V254.684C28.162 253.917 27.928 253.332 27.46 252.916C26.992 252.5 26.342 252.292 25.497 252.292C24.691 252.292 24.041 252.474 23.547 252.838C23.053 253.202 22.767 253.709 22.689 254.359H23.755C23.82 254.021 24.002 253.761 24.301 253.553C24.6 253.345 24.977 253.241 25.445 253.241C25.965 253.241 26.368 253.371 26.654 253.605C26.94 253.852 27.096 254.19 27.096 254.619V255.074H25.146C24.275 255.074 23.612 255.256 23.157 255.607C22.702 255.971 22.481 256.478 22.481 257.141C22.481 257.739 22.702 258.22 23.144 258.558C23.586 258.909 24.184 259.078 24.925 259.078C25.887 259.078 26.628 258.714 27.148 257.973C27.148 258.311 27.252 258.571 27.434 258.74C27.616 258.922 27.915 259 28.344 259H28.929V258.025ZM27.096 255.971V256.296C27.096 256.868 26.901 257.323 26.537 257.661C26.16 257.999 25.653 258.168 25.003 258.168C24.561 258.168 24.21 258.077 23.95 257.869C23.69 257.674 23.56 257.414 23.56 257.076C23.56 256.348 24.054 255.971 25.042 255.971H27.096ZM30.5805 256.816H29.5145C29.5145 257.531 29.7875 258.09 30.3075 258.48C30.8275 258.883 31.5295 259.078 32.4005 259.078C32.8815 259.078 33.3235 259 33.7265 258.831C34.1165 258.675 34.4415 258.441 34.6755 258.129C34.9095 257.83 35.0265 257.479 35.0265 257.076C35.0265 256.621 34.9095 256.257 34.6755 255.984C34.4415 255.724 34.1425 255.529 33.7655 255.399C33.3885 255.282 32.9075 255.191 32.3355 255.113C31.9195 255.061 31.6075 255.022 31.3995 254.97C31.1915 254.931 31.0355 254.853 30.9055 254.723C30.7755 254.606 30.7105 254.437 30.7105 254.203C30.7105 253.904 30.8405 253.657 31.1265 253.475C31.3995 253.293 31.7635 253.189 32.2185 253.189C32.6605 253.189 33.0245 253.306 33.3235 253.527C33.6095 253.761 33.7785 254.047 33.8305 254.385H34.8965C34.8445 253.709 34.5715 253.189 34.0775 252.825C33.5835 252.461 32.9595 252.279 32.1795 252.279C31.6985 252.279 31.2695 252.37 30.8925 252.539C30.5025 252.708 30.2035 252.942 29.9825 253.241C29.7615 253.553 29.6575 253.891 29.6575 254.281C29.6575 254.723 29.7615 255.061 29.9955 255.308C30.2165 255.555 30.5155 255.737 30.8795 255.841C31.2435 255.958 31.7115 256.049 32.2835 256.114C32.6865 256.166 32.9985 256.218 33.2195 256.27C33.4405 256.322 33.6225 256.426 33.7655 256.556C33.8955 256.699 33.9735 256.894 33.9735 257.154C33.9735 257.466 33.8175 257.713 33.5315 257.895C33.2455 258.077 32.8685 258.168 32.4005 258.168C31.8675 258.168 31.4385 258.051 31.1005 257.791C30.7625 257.544 30.5935 257.219 30.5805 256.816ZM36.9409 256.816H35.8749C35.8749 257.531 36.1479 258.09 36.6679 258.48C37.1879 258.883 37.8899 259.078 38.7609 259.078C39.2419 259.078 39.6839 259 40.0869 258.831C40.4769 258.675 40.8019 258.441 41.0359 258.129C41.2699 257.83 41.3869 257.479 41.3869 257.076C41.3869 256.621 41.2699 256.257 41.0359 255.984C40.8019 255.724 40.5029 255.529 40.1259 255.399C39.7489 255.282 39.2679 255.191 38.6959 255.113C38.2799 255.061 37.9679 255.022 37.7599 254.97C37.5519 254.931 37.3959 254.853 37.2659 254.723C37.1359 254.606 37.0709 254.437 37.0709 254.203C37.0709 253.904 37.2009 253.657 37.4869 253.475C37.7599 253.293 38.1239 253.189 38.5789 253.189C39.0209 253.189 39.3849 253.306 39.6839 253.527C39.9699 253.761 40.1389 254.047 40.1909 254.385H41.2569C41.2049 253.709 40.9319 253.189 40.4379 252.825C39.9439 252.461 39.3199 252.279 38.5399 252.279C38.0589 252.279 37.6299 252.37 37.2529 252.539C36.8629 252.708 36.5639 252.942 36.3429 253.241C36.1219 253.553 36.0179 253.891 36.0179 254.281C36.0179 254.723 36.1219 255.061 36.3559 255.308C36.5769 255.555 36.8759 255.737 37.2399 255.841C37.6039 255.958 38.0719 256.049 38.6439 256.114C39.0469 256.166 39.3589 256.218 39.5799 256.27C39.8009 256.322 39.9829 256.426 40.1259 256.556C40.2559 256.699 40.3339 256.894 40.3339 257.154C40.3339 257.466 40.1779 257.713 39.8919 257.895C39.6059 258.077 39.2289 258.168 38.7609 258.168C38.2279 258.168 37.7989 258.051 37.4609 257.791C37.1229 257.544 36.9539 257.219 36.9409 256.816ZM42.7522 253.904C42.4922 254.424 42.3622 255.009 42.3622 255.685C42.3622 256.361 42.4922 256.946 42.7652 257.466C43.0382 257.986 43.4282 258.376 43.9222 258.662C44.4162 258.948 44.9882 259.078 45.6512 259.078C46.4052 259.078 47.0422 258.87 47.5622 258.441C48.0822 258.012 48.4072 257.453 48.5372 256.777H47.4582C47.3412 257.206 47.1202 257.544 46.7822 257.778C46.4442 258.012 46.0412 258.129 45.5732 258.129C44.9492 258.129 44.4552 257.934 44.0782 257.544C43.6882 257.154 43.4932 256.634 43.4802 255.984V255.893H48.6282C48.6412 255.685 48.6542 255.542 48.6542 255.438C48.6282 254.801 48.4852 254.242 48.2252 253.761C47.9522 253.293 47.5882 252.929 47.1202 252.669C46.6522 252.422 46.1062 252.292 45.5082 252.292C44.8842 252.292 44.3382 252.435 43.8702 252.721C43.3892 253.007 43.0122 253.397 42.7522 253.904ZM47.5492 255.009H43.5452C43.5972 254.489 43.8052 254.06 44.1952 253.722C44.5722 253.397 45.0142 253.228 45.5212 253.228C46.0802 253.228 46.5482 253.384 46.9122 253.696C47.2762 254.008 47.4972 254.45 47.5492 255.009ZM50.2364 253.345V257.271C50.2364 257.869 50.3664 258.311 50.6264 258.584C50.8864 258.87 51.3414 259 51.9654 259H53.1874V258.025H52.0304C51.7574 258.025 51.5624 257.973 51.4584 257.856C51.3544 257.739 51.3024 257.544 51.3024 257.258V253.345H52.9794V252.37H51.3024V250.511H50.2364V252.37H49.0404V253.345H50.2364ZM54.7778 256.816H53.7118C53.7118 257.531 53.9848 258.09 54.5048 258.48C55.0248 258.883 55.7268 259.078 56.5978 259.078C57.0788 259.078 57.5208 259 57.9238 258.831C58.3138 258.675 58.6388 258.441 58.8728 258.129C59.1068 257.83 59.2238 257.479 59.2238 257.076C59.2238 256.621 59.1068 256.257 58.8728 255.984C58.6388 255.724 58.3398 255.529 57.9628 255.399C57.5858 255.282 57.1048 255.191 56.5328 255.113C56.1168 255.061 55.8048 255.022 55.5968 254.97C55.3888 254.931 55.2328 254.853 55.1028 254.723C54.9728 254.606 54.9078 254.437 54.9078 254.203C54.9078 253.904 55.0378 253.657 55.3238 253.475C55.5968 253.293 55.9608 253.189 56.4158 253.189C56.8578 253.189 57.2218 253.306 57.5208 253.527C57.8068 253.761 57.9758 254.047 58.0278 254.385H59.0938C59.0418 253.709 58.7688 253.189 58.2748 252.825C57.7808 252.461 57.1568 252.279 56.3768 252.279C55.8958 252.279 55.4668 252.37 55.0898 252.539C54.6998 252.708 54.4008 252.942 54.1798 253.241C53.9588 253.553 53.8548 253.891 53.8548 254.281C53.8548 254.723 53.9588 255.061 54.1928 255.308C54.4138 255.555 54.7128 255.737 55.0768 255.841C55.4408 255.958 55.9088 256.049 56.4808 256.114C56.8838 256.166 57.1958 256.218 57.4168 256.27C57.6378 256.322 57.8198 256.426 57.9628 256.556C58.0928 256.699 58.1708 256.894 58.1708 257.154C58.1708 257.466 58.0148 257.713 57.7288 257.895C57.4428 258.077 57.0658 258.168 56.5978 258.168C56.0648 258.168 55.6358 258.051 55.2978 257.791C54.9598 257.544 54.7908 257.219 54.7778 256.816ZM60.4095 257.83C60.2665 257.96 60.2015 258.142 60.2015 258.35C60.2015 258.571 60.2665 258.753 60.4095 258.883C60.5395 259.013 60.7215 259.078 60.9425 259.078C61.1505 259.078 61.3325 259.013 61.4755 258.883C61.6055 258.753 61.6835 258.571 61.6835 258.35C61.6835 258.142 61.6055 257.96 61.4755 257.83C61.3325 257.7 61.1505 257.622 60.9425 257.622C60.7215 257.622 60.5395 257.7 60.4095 257.83Z" fill="#3E3E3E"/>
<rect x="22" y="175" width="40" height="40" rx="10" fill="#6219FC" fill-opacity="0.1"/>
<path fill-rule="evenodd" clip-rule="evenodd" d="M41.5971 185C38.3405 185 36.53 188.767 38.5644 191.31L38.7871 191.588C38.2967 191.803 37.8297 192.075 37.3962 192.4L36.684 192.934C35.4039 193.894 34.5095 195.281 34.1623 196.843C33.2321 201.029 36.4176 205 40.706 205H42.4864C46.7748 205 49.9604 201.029 49.0301 196.843C48.6829 195.281 47.7885 193.894 46.5084 192.934L45.7962 192.4C45.3631 192.075 44.8965 191.804 44.4066 191.589L44.6298 191.31C46.6641 188.767 44.8536 185 41.5971 185ZM40.1261 190.061C39.1394 188.827 40.0176 187 41.5971 187C43.1766 187 44.0548 188.827 43.0681 190.061L42.7659 190.438C42.4818 190.793 42.0518 191 41.5971 191C41.1424 191 40.7124 190.793 40.4283 190.438L40.1261 190.061ZM38.5962 194C39.4617 193.351 40.5144 193 41.5962 193C42.6781 193 43.7307 193.351 44.5962 194L45.3084 194.534C46.2066 195.208 46.8341 196.18 47.0777 197.276C47.7304 200.214 45.4953 203 42.4864 203H40.706C37.6971 203 35.462 200.214 36.1147 197.276C36.3583 196.18 36.9858 195.208 37.884 194.534L38.5962 194Z" fill="#6219FC"/>
</svg>
