<svg width="509" height="571" viewBox="0 0 509 571" fill="none" xmlns="http://www.w3.org/2000/svg">
<rect width="509" height="571" rx="5" fill="#1C1C1C"/>
<path d="M48.02 53.44L45.76 53.4C45.76 54.32 46 55.14 46.48 55.86C46.96 56.58 47.62 57.12 48.46 57.52C49.3 57.92 50.26 58.12 51.38 58.12C52.38 58.12 53.26 57.94 54.06 57.58C54.84 57.22 55.46 56.7 55.9 56.04C56.34 55.4 56.56 54.66 56.56 53.82C56.56 52.98 56.34 52.28 55.94 51.76C55.52 51.24 54.98 50.86 54.34 50.58C53.68 50.32 52.9 50.1 52 49.94C51.1 49.78 50.42 49.64 49.94 49.5C49.46 49.38 49.06 49.18 48.78 48.9C48.5 48.64 48.36 48.28 48.36 47.82C48.36 47.18 48.6 46.7 49.08 46.34C49.56 45.98 50.22 45.8 51.04 45.8C51.88 45.8 52.56 46.02 53.12 46.46C53.66 46.9 53.98 47.48 54.06 48.2H56.32C56.28 47.36 56.02 46.62 55.58 45.96C55.12 45.32 54.5 44.8 53.72 44.42C52.92 44.06 52.04 43.86 51.04 43.86C50.06 43.86 49.2 44.04 48.44 44.38C47.68 44.74 47.1 45.22 46.68 45.84C46.26 46.48 46.06 47.18 46.06 47.98C46.06 48.86 46.26 49.56 46.66 50.08C47.06 50.62 47.6 51.02 48.24 51.28C48.88 51.54 49.66 51.74 50.58 51.9C51.46 52.06 52.16 52.22 52.66 52.36C53.14 52.52 53.54 52.72 53.82 53C54.1 53.28 54.26 53.64 54.26 54.1C54.26 54.76 53.98 55.28 53.46 55.64C52.94 56 52.24 56.18 51.4 56.18C50.42 56.18 49.62 55.94 49.02 55.44C48.42 54.94 48.08 54.28 48.02 53.44ZM58.6047 50.14C58.1847 50.94 57.9847 51.86 57.9847 52.9C57.9847 53.94 58.1847 54.86 58.6247 55.64C59.0647 56.44 59.6647 57.04 60.4647 57.48C61.2647 57.92 62.1847 58.12 63.2647 58.12C64.4847 58.12 65.5047 57.8 66.3247 57.12C67.1447 56.46 67.6447 55.6 67.8447 54.56H65.6847C65.5247 55.14 65.2247 55.58 64.7847 55.9C64.3247 56.22 63.7647 56.36 63.1047 56.36C62.2647 56.36 61.5847 56.1 61.0847 55.58C60.5647 55.06 60.2847 54.36 60.2447 53.46V53.34H67.9647C68.0047 53.06 68.0247 52.8 68.0247 52.52C68.0047 51.54 67.7847 50.68 67.3447 49.94C66.9047 49.22 66.3247 48.64 65.5647 48.24C64.8047 47.84 63.9447 47.64 62.9647 47.64C61.9847 47.64 61.1247 47.86 60.3647 48.3C59.6047 48.74 59.0247 49.34 58.6047 50.14ZM65.8247 51.76H60.3247C60.4047 51.04 60.6847 50.48 61.2047 50.04C61.7247 49.6 62.3247 49.38 63.0447 49.38C63.8047 49.38 64.4247 49.6 64.9247 50.02C65.4247 50.44 65.7247 51.02 65.8247 51.76ZM78.1309 48.76C77.3709 48.02 76.3709 47.64 75.1709 47.64C73.7509 47.64 72.6509 48.14 71.8909 49.1L71.6509 47.76H69.7709V58H71.9309V52.84C71.9309 51.8 72.1709 51 72.6509 50.4C73.1309 49.8 73.8109 49.5 74.6709 49.5C75.4709 49.5 76.0709 49.76 76.4909 50.26C76.8909 50.78 77.1109 51.52 77.1109 52.48V58H79.2909V52.36C79.2909 50.72 78.8909 49.52 78.1309 48.76ZM91.1953 44H89.0353V49.18C88.6753 48.7 88.2353 48.34 87.6753 48.06C87.1153 47.78 86.4553 47.64 85.7153 47.64C84.7953 47.64 83.9553 47.86 83.2353 48.3C82.4953 48.74 81.9153 49.34 81.4953 50.14C81.0753 50.94 80.8753 51.84 80.8753 52.88C80.8753 53.96 81.0753 54.88 81.4953 55.68C81.8953 56.48 82.4753 57.08 83.2153 57.5C83.9353 57.92 84.7753 58.12 85.7153 58.12C87.1153 58.12 88.2353 57.58 89.0553 56.46L89.3153 58H91.1953V44ZM88.2353 55.36C87.6753 56 86.9553 56.3 86.0753 56.3C85.1753 56.3 84.4553 56 83.9153 55.36C83.3553 54.72 83.0953 53.9 83.0953 52.88C83.0953 51.88 83.3553 51.08 83.9153 50.44C84.4553 49.8 85.1753 49.48 86.0753 49.48C86.9553 49.48 87.6753 49.8 88.2353 50.44C88.7753 51.08 89.0553 51.9 89.0553 52.92C89.0553 53.92 88.7753 54.74 88.2353 55.36ZM106.403 48.28C105.663 47.86 104.823 47.64 103.903 47.64C102.503 47.64 101.383 48.2 100.583 49.28V44H98.4233V58H100.303L100.563 56.52C100.903 57.02 101.363 57.42 101.923 57.7C102.483 57.98 103.143 58.12 103.903 58.12C104.823 58.12 105.663 57.9 106.403 57.46C107.123 57.02 107.703 56.42 108.123 55.62C108.523 54.82 108.743 53.92 108.743 52.88C108.743 51.8 108.523 50.88 108.123 50.08C107.703 49.3 107.123 48.7 106.403 48.28ZM105.703 55.36C105.143 56 104.423 56.3 103.543 56.3C102.643 56.3 101.923 55.98 101.383 55.34C100.823 54.7 100.563 53.88 100.563 52.86C100.563 51.86 100.823 51.06 101.383 50.42C101.923 49.8 102.643 49.48 103.543 49.48C104.423 49.48 105.143 49.8 105.703 50.44C106.263 51.08 106.543 51.88 106.543 52.88C106.543 53.9 106.263 54.72 105.703 55.36ZM112.494 44.04C112.234 43.8 111.914 43.66 111.554 43.66C111.174 43.66 110.854 43.8 110.614 44.04C110.354 44.28 110.234 44.6 110.234 44.96C110.234 45.34 110.354 45.66 110.614 45.9C110.854 46.14 111.174 46.26 111.554 46.26C111.914 46.26 112.234 46.14 112.494 45.9C112.734 45.66 112.874 45.34 112.874 44.96C112.874 44.6 112.734 44.28 112.494 44.04ZM110.474 47.76V58H112.634V47.76H110.474ZM115.411 49.66V55.22C115.411 56.18 115.631 56.88 116.071 57.32C116.511 57.78 117.231 58 118.211 58H120.291V56.1H118.651C118.251 56.1 117.991 56.02 117.831 55.86C117.671 55.7 117.591 55.4 117.591 55V49.66H120.051V47.76H117.591V44.9H115.411V47.76H113.631V49.66H115.411ZM129.136 57.12C129.956 56.44 130.476 55.52 130.676 54.32H128.476C128.336 54.92 128.056 55.4 127.616 55.76C127.176 56.12 126.616 56.28 125.956 56.28C125.076 56.28 124.376 55.98 123.856 55.34C123.336 54.7 123.076 53.88 123.076 52.86C123.076 51.86 123.336 51.06 123.856 50.42C124.376 49.8 125.076 49.48 125.956 49.48C126.596 49.48 127.136 49.66 127.576 50C128.016 50.36 128.296 50.82 128.456 51.4H130.676C130.476 50.24 129.956 49.34 129.156 48.66C128.336 47.98 127.296 47.64 126.016 47.64C124.976 47.64 124.076 47.86 123.296 48.3C122.516 48.74 121.916 49.34 121.496 50.12C121.056 50.92 120.856 51.82 120.856 52.86C120.856 53.9 121.056 54.82 121.476 55.62C121.896 56.42 122.496 57.04 123.276 57.48C124.036 57.92 124.936 58.12 125.956 58.12C127.236 58.12 128.296 57.8 129.136 57.12ZM134.332 57.48C135.132 57.92 136.032 58.12 137.072 58.12C138.092 58.12 138.992 57.92 139.792 57.48C140.592 57.04 141.192 56.44 141.632 55.64C142.072 54.84 142.292 53.92 142.292 52.88C142.292 51.86 142.072 50.96 141.632 50.16C141.192 49.36 140.592 48.74 139.792 48.3C138.992 47.86 138.092 47.64 137.072 47.64C136.032 47.64 135.132 47.86 134.332 48.3C133.532 48.74 132.932 49.36 132.492 50.16C132.052 50.96 131.852 51.86 131.852 52.88C131.852 53.92 132.052 54.84 132.492 55.64C132.932 56.44 133.532 57.04 134.332 57.48ZM139.252 55.34C138.692 55.98 137.972 56.28 137.072 56.28C136.152 56.28 135.432 55.98 134.892 55.34C134.332 54.7 134.072 53.88 134.072 52.88C134.072 51.88 134.332 51.08 134.892 50.44C135.432 49.8 136.152 49.48 137.072 49.48C137.972 49.48 138.692 49.8 139.252 50.44C139.812 51.08 140.092 51.88 140.092 52.88C140.092 53.88 139.812 54.7 139.252 55.34ZM146.049 44.04C145.789 43.8 145.469 43.66 145.109 43.66C144.729 43.66 144.409 43.8 144.169 44.04C143.909 44.28 143.789 44.6 143.789 44.96C143.789 45.34 143.909 45.66 144.169 45.9C144.409 46.14 144.729 46.26 145.109 46.26C145.469 46.26 145.789 46.14 146.049 45.9C146.289 45.66 146.429 45.34 146.429 44.96C146.429 44.6 146.289 44.28 146.049 44.04ZM144.029 47.76V58H146.189V47.76H144.029ZM156.666 48.76C155.906 48.02 154.906 47.64 153.706 47.64C152.286 47.64 151.186 48.14 150.426 49.1L150.186 47.76H148.306V58H150.466V52.84C150.466 51.8 150.706 51 151.186 50.4C151.666 49.8 152.346 49.5 153.206 49.5C154.006 49.5 154.606 49.76 155.026 50.26C155.426 50.78 155.646 51.52 155.646 52.48V58H157.826V52.36C157.826 50.72 157.426 49.52 156.666 48.76Z" fill="white"/>
<path d="M65.952 220.2V230H72.378V228.88H67.17V225.576H71.356V224.456H67.17V221.32H72.196V220.2H65.952ZM83.489 223.532C82.985 223.028 82.341 222.776 81.543 222.776C80.395 222.776 79.569 223.238 79.065 224.134C78.869 223.686 78.561 223.35 78.169 223.126C77.777 222.902 77.315 222.776 76.811 222.776C75.929 222.776 75.229 223.14 74.725 223.84L74.571 222.86H73.577V230H74.725V226.234C74.725 225.52 74.893 224.946 75.229 224.498C75.565 224.05 76.027 223.826 76.615 223.826C77.161 223.826 77.581 224.008 77.889 224.372C78.183 224.736 78.337 225.268 78.337 225.954V230H79.485V226.178C79.485 225.45 79.653 224.876 79.989 224.456C80.325 224.036 80.801 223.826 81.403 223.826C81.935 223.826 82.355 224.008 82.649 224.372C82.943 224.736 83.097 225.268 83.097 225.954V230H84.245V225.884C84.245 224.82 83.993 224.036 83.489 223.532ZM92.3956 228.95H92.0456C91.7236 228.95 91.5696 228.782 91.5696 228.432V225.352C91.5696 224.526 91.3176 223.896 90.8136 223.448C90.3096 223 89.6096 222.776 88.6996 222.776C87.8316 222.776 87.1316 222.972 86.5996 223.364C86.0676 223.756 85.7596 224.302 85.6756 225.002H86.8236C86.8936 224.638 87.0896 224.358 87.4116 224.134C87.7336 223.91 88.1396 223.798 88.6436 223.798C89.2036 223.798 89.6376 223.938 89.9456 224.19C90.2536 224.456 90.4216 224.82 90.4216 225.282V225.772H88.3216C87.3836 225.772 86.6696 225.968 86.1796 226.346C85.6896 226.738 85.4516 227.284 85.4516 227.998C85.4516 228.642 85.6896 229.16 86.1656 229.524C86.6416 229.902 87.2856 230.084 88.0836 230.084C89.1196 230.084 89.9176 229.692 90.4776 228.894C90.4776 229.258 90.5896 229.538 90.7856 229.72C90.9816 229.916 91.3036 230 91.7656 230H92.3956V228.95ZM90.4216 226.738V227.088C90.4216 227.704 90.2116 228.194 89.8196 228.558C89.4136 228.922 88.8676 229.104 88.1676 229.104C87.6916 229.104 87.3136 229.006 87.0336 228.782C86.7536 228.572 86.6136 228.292 86.6136 227.928C86.6136 227.144 87.1456 226.738 88.2096 226.738H90.4216ZM94.3841 220.312C94.2441 220.172 94.0621 220.102 93.8521 220.102C93.6281 220.102 93.4601 220.172 93.3201 220.312C93.1801 220.452 93.1101 220.634 93.1101 220.844C93.1101 221.068 93.1801 221.236 93.3201 221.376C93.4601 221.516 93.6281 221.586 93.8521 221.586C94.0621 221.586 94.2441 221.516 94.3841 221.376C94.5241 221.236 94.5941 221.068 94.5941 220.844C94.5941 220.634 94.5241 220.452 94.3841 220.312ZM93.2781 222.86V230H94.4261V222.86H93.2781ZM95.9988 220.2V230H97.1468V220.2H95.9988ZM109.062 228.95H108.712C108.39 228.95 108.236 228.782 108.236 228.432V225.352C108.236 224.526 107.984 223.896 107.48 223.448C106.976 223 106.276 222.776 105.366 222.776C104.498 222.776 103.798 222.972 103.266 223.364C102.734 223.756 102.426 224.302 102.342 225.002H103.49C103.56 224.638 103.756 224.358 104.078 224.134C104.4 223.91 104.806 223.798 105.31 223.798C105.87 223.798 106.304 223.938 106.612 224.19C106.92 224.456 107.088 224.82 107.088 225.282V225.772H104.988C104.05 225.772 103.336 225.968 102.846 226.346C102.356 226.738 102.118 227.284 102.118 227.998C102.118 228.642 102.356 229.16 102.832 229.524C103.308 229.902 103.952 230.084 104.75 230.084C105.786 230.084 106.584 229.692 107.144 228.894C107.144 229.258 107.256 229.538 107.452 229.72C107.648 229.916 107.97 230 108.432 230H109.062V228.95ZM107.088 226.738V227.088C107.088 227.704 106.878 228.194 106.486 228.558C106.08 228.922 105.534 229.104 104.834 229.104C104.358 229.104 103.98 229.006 103.7 228.782C103.42 228.572 103.28 228.292 103.28 227.928C103.28 227.144 103.812 226.738 104.876 226.738H107.088ZM116.72 220.2H115.572V223.952C115.334 223.588 115.012 223.308 114.606 223.098C114.186 222.888 113.696 222.776 113.122 222.776C112.464 222.776 111.876 222.93 111.358 223.238C110.826 223.546 110.42 223.98 110.126 224.526C109.832 225.086 109.692 225.716 109.692 226.43C109.692 227.186 109.832 227.844 110.126 228.39C110.42 228.95 110.826 229.37 111.344 229.65C111.862 229.944 112.45 230.084 113.122 230.084C114.158 230.084 114.97 229.678 115.572 228.852L115.726 230H116.72V220.2ZM114.452 228.74C114.088 228.964 113.682 229.062 113.234 229.062C112.52 229.062 111.946 228.824 111.512 228.334C111.078 227.844 110.868 227.214 110.868 226.43C110.868 225.66 111.078 225.03 111.512 224.54C111.946 224.05 112.52 223.798 113.234 223.798C113.682 223.798 114.088 223.91 114.452 224.134C114.816 224.358 115.096 224.68 115.292 225.086C115.488 225.492 115.586 225.954 115.586 226.458C115.586 226.962 115.488 227.424 115.292 227.816C115.096 228.208 114.816 228.516 114.452 228.74ZM125.06 220.2H123.912V223.952C123.674 223.588 123.352 223.308 122.946 223.098C122.526 222.888 122.036 222.776 121.462 222.776C120.804 222.776 120.216 222.93 119.698 223.238C119.166 223.546 118.76 223.98 118.466 224.526C118.172 225.086 118.032 225.716 118.032 226.43C118.032 227.186 118.172 227.844 118.466 228.39C118.76 228.95 119.166 229.37 119.684 229.65C120.202 229.944 120.79 230.084 121.462 230.084C122.498 230.084 123.31 229.678 123.912 228.852L124.066 230H125.06V220.2ZM122.792 228.74C122.428 228.964 122.022 229.062 121.574 229.062C120.86 229.062 120.286 228.824 119.852 228.334C119.418 227.844 119.208 227.214 119.208 226.43C119.208 225.66 119.418 225.03 119.852 224.54C120.286 224.05 120.86 223.798 121.574 223.798C122.022 223.798 122.428 223.91 122.792 224.134C123.156 224.358 123.436 224.68 123.632 225.086C123.828 225.492 123.926 225.954 123.926 226.458C123.926 226.962 123.828 227.424 123.632 227.816C123.436 228.208 123.156 228.516 122.792 228.74ZM130.25 222.86H129.928C129.34 222.86 128.892 222.958 128.57 223.154C128.234 223.35 127.968 223.616 127.772 223.938L127.618 222.86H126.624V230H127.772V226.36C127.772 225.688 127.912 225.128 128.206 224.666C128.5 224.218 128.99 223.98 129.676 223.98H130.25V222.86ZM131.057 224.512C130.777 225.072 130.637 225.702 130.637 226.43C130.637 227.158 130.777 227.788 131.071 228.348C131.365 228.908 131.785 229.328 132.317 229.636C132.849 229.944 133.465 230.084 134.179 230.084C134.991 230.084 135.677 229.86 136.237 229.398C136.797 228.936 137.147 228.334 137.287 227.606H136.125C135.999 228.068 135.761 228.432 135.397 228.684C135.033 228.936 134.599 229.062 134.095 229.062C133.423 229.062 132.891 228.852 132.485 228.432C132.065 228.012 131.855 227.452 131.841 226.752V226.654H137.385C137.399 226.43 137.413 226.276 137.413 226.164C137.385 225.478 137.231 224.876 136.951 224.358C136.657 223.854 136.265 223.462 135.761 223.182C135.257 222.916 134.669 222.776 134.025 222.776C133.353 222.776 132.765 222.93 132.261 223.238C131.743 223.546 131.337 223.966 131.057 224.512ZM136.223 225.702H131.911C131.967 225.142 132.191 224.68 132.611 224.316C133.017 223.966 133.493 223.784 134.039 223.784C134.641 223.784 135.145 223.952 135.537 224.288C135.929 224.624 136.167 225.1 136.223 225.702ZM139.592 227.648H138.444C138.444 228.418 138.738 229.02 139.298 229.44C139.858 229.874 140.614 230.084 141.552 230.084C142.07 230.084 142.546 230 142.98 229.818C143.4 229.65 143.75 229.398 144.002 229.062C144.254 228.74 144.38 228.362 144.38 227.928C144.38 227.438 144.254 227.046 144.002 226.752C143.75 226.472 143.428 226.262 143.022 226.122C142.616 225.996 142.098 225.898 141.482 225.814C141.034 225.758 140.698 225.716 140.474 225.66C140.25 225.618 140.082 225.534 139.942 225.394C139.802 225.268 139.732 225.086 139.732 224.834C139.732 224.512 139.872 224.246 140.18 224.05C140.474 223.854 140.866 223.742 141.356 223.742C141.832 223.742 142.224 223.868 142.546 224.106C142.854 224.358 143.036 224.666 143.092 225.03H144.24C144.184 224.302 143.89 223.742 143.358 223.35C142.826 222.958 142.154 222.762 141.314 222.762C140.796 222.762 140.334 222.86 139.928 223.042C139.508 223.224 139.186 223.476 138.948 223.798C138.71 224.134 138.598 224.498 138.598 224.918C138.598 225.394 138.71 225.758 138.962 226.024C139.2 226.29 139.522 226.486 139.914 226.598C140.306 226.724 140.81 226.822 141.426 226.892C141.86 226.948 142.196 227.004 142.434 227.06C142.672 227.116 142.868 227.228 143.022 227.368C143.162 227.522 143.246 227.732 143.246 228.012C143.246 228.348 143.078 228.614 142.77 228.81C142.462 229.006 142.056 229.104 141.552 229.104C140.978 229.104 140.516 228.978 140.152 228.698C139.788 228.432 139.606 228.082 139.592 227.648ZM146.442 227.648H145.294C145.294 228.418 145.588 229.02 146.148 229.44C146.708 229.874 147.464 230.084 148.402 230.084C148.92 230.084 149.396 230 149.83 229.818C150.25 229.65 150.6 229.398 150.852 229.062C151.104 228.74 151.23 228.362 151.23 227.928C151.23 227.438 151.104 227.046 150.852 226.752C150.6 226.472 150.278 226.262 149.872 226.122C149.466 225.996 148.948 225.898 148.332 225.814C147.884 225.758 147.548 225.716 147.324 225.66C147.1 225.618 146.932 225.534 146.792 225.394C146.652 225.268 146.582 225.086 146.582 224.834C146.582 224.512 146.722 224.246 147.03 224.05C147.324 223.854 147.716 223.742 148.206 223.742C148.682 223.742 149.074 223.868 149.396 224.106C149.704 224.358 149.886 224.666 149.942 225.03H151.09C151.034 224.302 150.74 223.742 150.208 223.35C149.676 222.958 149.004 222.762 148.164 222.762C147.646 222.762 147.184 222.86 146.778 223.042C146.358 223.224 146.036 223.476 145.798 223.798C145.56 224.134 145.448 224.498 145.448 224.918C145.448 225.394 145.56 225.758 145.812 226.024C146.05 226.29 146.372 226.486 146.764 226.598C147.156 226.724 147.66 226.822 148.276 226.892C148.71 226.948 149.046 227.004 149.284 227.06C149.522 227.116 149.718 227.228 149.872 227.368C150.012 227.522 150.096 227.732 150.096 228.012C150.096 228.348 149.928 228.614 149.62 228.81C149.312 229.006 148.906 229.104 148.402 229.104C147.828 229.104 147.366 228.978 147.002 228.698C146.638 228.432 146.456 228.082 146.442 227.648Z" fill="#6E6E6E"/>
<path d="M45 201C45 198.239 47.2386 196 50 196H460C462.761 196 465 198.239 465 201V251H45V201Z" fill="#313131"/>
<line x1="45" y1="251.5" x2="465" y2="251.5" stroke="#FFD107"/>
<path d="M65.11 214H66.01L66.75 212.11H69.8L70.54 214H71.47L68.81 207H67.78L65.11 214ZM67.01 211.32L68.27 207.95L69.54 211.32H67.01ZM71.1633 208.9L73.0733 214H74.0633L75.9733 208.9H75.1133L73.5833 213.07L72.0433 208.9H71.1633ZM76.5101 210.08C76.3101 210.48 76.2101 210.93 76.2101 211.45C76.2101 211.97 76.3101 212.42 76.5201 212.82C76.7301 213.22 77.0301 213.52 77.4101 213.74C77.7901 213.96 78.2301 214.06 78.7401 214.06C79.3201 214.06 79.8101 213.9 80.2101 213.57C80.6101 213.24 80.8601 212.81 80.9601 212.29H80.1301C80.0401 212.62 79.8701 212.88 79.6101 213.06C79.3501 213.24 79.0401 213.33 78.6801 213.33C78.2001 213.33 77.8201 213.18 77.5301 212.88C77.2301 212.58 77.0801 212.18 77.0701 211.68V211.61H81.0301C81.0401 211.45 81.0501 211.34 81.0501 211.26C81.0301 210.77 80.9201 210.34 80.7201 209.97C80.5101 209.61 80.2301 209.33 79.8701 209.13C79.5101 208.94 79.0901 208.84 78.6301 208.84C78.1501 208.84 77.7301 208.95 77.3701 209.17C77.0001 209.39 76.7101 209.69 76.5101 210.08ZM80.2001 210.93H77.1201C77.1601 210.53 77.3201 210.2 77.6201 209.94C77.9101 209.69 78.2501 209.56 78.6401 209.56C79.0701 209.56 79.4301 209.68 79.7101 209.92C79.9901 210.16 80.1601 210.5 80.2001 210.93ZM85.9758 209.4C85.5958 209.03 85.1058 208.84 84.4858 208.84C83.7458 208.84 83.1858 209.09 82.8058 209.59L82.6958 208.9H81.9858V214H82.8058V211.45C82.8058 210.88 82.9358 210.43 83.2158 210.09C83.4858 209.76 83.8658 209.59 84.3458 209.59C84.7858 209.59 85.1258 209.73 85.3658 210.01C85.6058 210.29 85.7258 210.69 85.7258 211.21V214H86.5458V211.16C86.5458 210.36 86.3558 209.78 85.9758 209.4ZM88.3813 207.08C88.2812 206.98 88.1513 206.93 88.0013 206.93C87.8413 206.93 87.7213 206.98 87.6213 207.08C87.5213 207.18 87.4713 207.31 87.4713 207.46C87.4713 207.62 87.5213 207.74 87.6213 207.84C87.7213 207.94 87.8413 207.99 88.0013 207.99C88.1513 207.99 88.2812 207.94 88.3813 207.84C88.4813 207.74 88.5313 207.62 88.5313 207.46C88.5313 207.31 88.4813 207.18 88.3813 207.08ZM87.5913 208.9V214H88.4113V208.9H87.5913ZM90.9946 211.38L89.0546 214H89.9646L91.4646 211.95L92.9646 214H93.9446L91.9946 211.38L93.8146 208.9H92.9046L91.5246 210.79L90.1646 208.9H89.1846L90.9946 211.38ZM101.191 209.4C100.811 209.03 100.321 208.84 99.7006 208.84C98.9606 208.84 98.4006 209.09 98.0206 209.59L97.9106 208.9H97.2006V214H98.0206V211.45C98.0206 210.88 98.1506 210.43 98.4306 210.09C98.7006 209.76 99.0806 209.59 99.5606 209.59C100.001 209.59 100.341 209.73 100.581 210.01C100.821 210.29 100.941 210.69 100.941 211.21V214H101.761V211.16C101.761 210.36 101.571 209.78 101.191 209.4ZM103.836 213.73C104.216 213.95 104.656 214.06 105.156 214.06C105.646 214.06 106.086 213.95 106.466 213.73C106.846 213.51 107.146 213.21 107.366 212.81C107.576 212.42 107.686 211.97 107.686 211.45C107.686 210.94 107.576 210.49 107.366 210.09C107.146 209.7 106.846 209.39 106.466 209.17C106.086 208.95 105.646 208.84 105.156 208.84C104.656 208.84 104.216 208.95 103.836 209.17C103.456 209.39 103.156 209.7 102.946 210.09C102.726 210.49 102.626 210.94 102.626 211.45C102.626 211.97 102.726 212.42 102.946 212.81C103.156 213.21 103.456 213.51 103.836 213.73ZM106.036 213.09C105.776 213.25 105.486 213.33 105.156 213.33C104.816 213.33 104.526 213.25 104.266 213.09C104.006 212.93 103.816 212.71 103.676 212.42C103.536 212.14 103.466 211.81 103.466 211.45C103.466 211.09 103.536 210.77 103.676 210.48C103.816 210.2 104.006 209.97 104.266 209.81C104.526 209.65 104.816 209.57 105.156 209.57C105.486 209.57 105.776 209.65 106.036 209.81C106.296 209.97 106.496 210.2 106.636 210.48C106.776 210.77 106.846 211.09 106.846 211.45C106.846 211.81 106.776 212.14 106.636 212.42C106.496 212.71 106.296 212.93 106.036 213.09ZM111.584 209.65V212.67C111.584 213.13 111.684 213.47 111.884 213.68C112.084 213.9 112.434 214 112.914 214H113.854V213.25H112.964C112.754 213.25 112.604 213.21 112.524 213.12C112.444 213.03 112.404 212.88 112.404 212.66V209.65H113.694V208.9H112.404V207.47H111.584V208.9H110.664V209.65H111.584ZM119.129 213.25H118.879C118.649 213.25 118.539 213.13 118.539 212.88V210.68C118.539 210.09 118.359 209.64 117.999 209.32C117.639 209 117.139 208.84 116.489 208.84C115.869 208.84 115.369 208.98 114.989 209.26C114.609 209.54 114.389 209.93 114.329 210.43H115.149C115.199 210.17 115.339 209.97 115.569 209.81C115.799 209.65 116.089 209.57 116.449 209.57C116.849 209.57 117.159 209.67 117.379 209.85C117.599 210.04 117.719 210.3 117.719 210.63V210.98H116.219C115.549 210.98 115.039 211.12 114.689 211.39C114.339 211.67 114.169 212.06 114.169 212.57C114.169 213.03 114.339 213.4 114.679 213.66C115.019 213.93 115.479 214.06 116.049 214.06C116.789 214.06 117.359 213.78 117.759 213.21C117.759 213.47 117.839 213.67 117.979 213.8C118.119 213.94 118.349 214 118.679 214H119.129V213.25ZM117.719 211.67V211.92C117.719 212.36 117.569 212.71 117.289 212.97C116.999 213.23 116.609 213.36 116.109 213.36C115.769 213.36 115.499 213.29 115.299 213.13C115.099 212.98 114.999 212.78 114.999 212.52C114.999 211.96 115.379 211.67 116.139 211.67H117.719ZM124.599 208.9H123.889L123.779 209.78C123.609 209.48 123.379 209.25 123.089 209.09C122.789 208.93 122.439 208.84 122.029 208.84C121.559 208.84 121.139 208.95 120.769 209.17C120.389 209.39 120.099 209.7 119.889 210.09C119.679 210.49 119.579 210.94 119.579 211.45C119.579 211.99 119.679 212.46 119.889 212.85C120.099 213.25 120.389 213.55 120.759 213.75C121.129 213.96 121.549 214.06 122.029 214.06C122.829 214.06 123.409 213.75 123.779 213.12V213.72C123.779 214.8 123.229 215.33 122.129 215.33C121.699 215.33 121.349 215.25 121.079 215.07C120.799 214.9 120.629 214.65 120.569 214.33H119.729C119.789 214.89 120.029 215.31 120.449 215.61C120.869 215.91 121.409 216.06 122.069 216.06C123.749 216.06 124.599 215.29 124.599 213.75V208.9ZM122.979 213.1C122.719 213.26 122.429 213.33 122.109 213.33C121.599 213.33 121.189 213.16 120.879 212.81C120.569 212.46 120.419 212.01 120.419 211.45C120.419 210.9 120.569 210.45 120.879 210.1C121.189 209.75 121.599 209.57 122.109 209.57C122.429 209.57 122.719 209.65 122.979 209.81C123.239 209.97 123.439 210.2 123.579 210.49C123.719 210.78 123.789 211.11 123.789 211.47C123.789 211.83 123.719 212.16 123.579 212.44C123.439 212.72 123.239 212.94 122.979 213.1Z" fill="#6E6E6E"/>
<path d="M65.952 227.2V239.8H67.1V227.2H65.952Z" fill="white"/>
<circle cx="450" cy="53" r="15" fill="#3E3E3E"/>
<path d="M454.537 58.7489C454.872 59.0837 455.414 59.0837 455.749 58.7489C456.084 58.4142 456.084 57.8715 455.749 57.5368L451.212 53L455.749 48.4632C456.084 48.1285 456.084 47.5858 455.749 47.2511C455.414 46.9163 454.872 46.9163 454.537 47.2511L450 51.7878L445.463 47.2511C445.128 46.9163 444.586 46.9163 444.251 47.2511C443.916 47.5858 443.916 48.1285 444.251 48.4632L448.788 53L444.251 57.5368C443.916 57.8715 443.916 58.4142 444.251 58.7489C444.586 59.0837 445.128 59.0837 445.463 58.7489L450 54.2122L454.537 58.7489Z" fill="white"/>
<rect x="45" y="473" width="420" height="55" rx="5" fill="#313131"/>
<path d="M226.022 498.482C225.63 499.238 225.448 500.106 225.448 501.1C225.448 502.108 225.63 502.976 226.022 503.732C226.414 504.488 226.96 505.062 227.688 505.468C228.416 505.888 229.27 506.084 230.25 506.084C231.006 506.084 231.692 505.944 232.308 505.636C232.91 505.342 233.4 504.922 233.778 504.376C234.142 503.844 234.366 503.214 234.45 502.5H232.35C232.224 503.06 231.972 503.508 231.58 503.83C231.188 504.152 230.712 504.306 230.138 504.306C229.354 504.306 228.724 504.012 228.276 503.424C227.814 502.836 227.59 502.052 227.59 501.1C227.59 500.148 227.814 499.364 228.276 498.776C228.724 498.188 229.354 497.894 230.138 497.894C230.712 497.894 231.188 498.062 231.58 498.384C231.972 498.706 232.224 499.14 232.35 499.7H234.45C234.366 499 234.142 498.37 233.778 497.824C233.4 497.292 232.91 496.872 232.308 496.564C231.692 496.27 231.006 496.116 230.25 496.116C229.27 496.116 228.416 496.326 227.688 496.732C226.96 497.152 226.414 497.726 226.022 498.482ZM237.028 505.636C237.602 505.944 238.274 506.084 239.03 506.084C239.786 506.084 240.444 505.944 241.018 505.636C241.592 505.328 242.04 504.908 242.348 504.348C242.656 503.788 242.824 503.144 242.824 502.402C242.824 501.674 242.656 501.03 242.348 500.47C242.04 499.91 241.592 499.49 241.018 499.182C240.444 498.874 239.786 498.72 239.03 498.72C238.274 498.72 237.602 498.874 237.028 499.182C236.454 499.49 236.006 499.91 235.698 500.47C235.39 501.03 235.236 501.674 235.236 502.402C235.236 503.13 235.39 503.774 235.698 504.334C236.006 504.894 236.454 505.328 237.028 505.636ZM240.332 503.9C240.01 504.292 239.576 504.474 239.03 504.474C238.484 504.474 238.05 504.292 237.728 503.9C237.406 503.522 237.252 503.018 237.252 502.402C237.252 501.786 237.406 501.296 237.728 500.904C238.05 500.526 238.484 500.33 239.03 500.33C239.576 500.33 240.01 500.526 240.332 500.904C240.654 501.296 240.822 501.786 240.822 502.402C240.822 503.018 240.654 503.522 240.332 503.9ZM250.113 499.504C249.567 498.986 248.881 498.72 248.041 498.72C247.509 498.72 247.075 498.818 246.725 498.986C246.361 499.154 246.067 499.392 245.815 499.7L245.633 498.804H243.911V506H245.885V502.318C245.885 501.702 246.025 501.212 246.305 500.862C246.585 500.526 246.977 500.344 247.495 500.344C248.461 500.344 248.951 500.974 248.951 502.206V506H250.925V502.094C250.925 500.89 250.645 500.036 250.113 499.504ZM252.63 500.47V503.942C252.63 505.314 253.316 506 254.688 506H256.326V504.334H255.304C255.052 504.334 254.87 504.278 254.758 504.166C254.646 504.054 254.604 503.872 254.604 503.62V500.47H256.242V498.804H254.604V496.788H252.63V498.804H251.44V500.47H252.63ZM258.965 496.13C258.741 495.92 258.475 495.808 258.153 495.808C257.817 495.808 257.551 495.92 257.327 496.13C257.103 496.34 257.005 496.606 257.005 496.914C257.005 497.236 257.103 497.502 257.327 497.712C257.551 497.936 257.817 498.034 258.153 498.034C258.475 498.034 258.741 497.936 258.965 497.712C259.175 497.502 259.287 497.236 259.287 496.914C259.287 496.606 259.175 496.34 258.965 496.13ZM257.159 498.804V506H259.133V498.804H257.159ZM266.71 499.504C266.164 498.986 265.478 498.72 264.638 498.72C264.106 498.72 263.672 498.818 263.322 498.986C262.958 499.154 262.664 499.392 262.412 499.7L262.23 498.804H260.508V506H262.482V502.318C262.482 501.702 262.622 501.212 262.902 500.862C263.182 500.526 263.574 500.344 264.092 500.344C265.058 500.344 265.548 500.974 265.548 502.206V506H267.522V502.094C267.522 500.89 267.242 500.036 266.71 499.504ZM275.542 498.804H273.568V502.346C273.568 503.018 273.428 503.536 273.162 503.9C272.882 504.264 272.504 504.446 272.014 504.446C271.538 504.446 271.174 504.292 270.95 503.956C270.726 503.62 270.614 503.13 270.614 502.472V498.804H268.64V502.71C268.64 503.928 268.906 504.796 269.438 505.314C269.97 505.832 270.656 506.084 271.496 506.084C271.972 506.084 272.392 506 272.728 505.832C273.064 505.664 273.358 505.44 273.61 505.132L273.792 506H275.542V498.804ZM277.083 500.47C276.775 501.03 276.635 501.674 276.635 502.416C276.635 503.158 276.789 503.802 277.097 504.362C277.405 504.922 277.853 505.342 278.441 505.636C279.029 505.944 279.715 506.084 280.527 506.084C281.143 506.084 281.689 505.986 282.165 505.762C282.641 505.538 283.019 505.244 283.313 504.852C283.593 504.474 283.775 504.04 283.859 503.564H281.913C281.829 503.9 281.647 504.166 281.381 504.334C281.115 504.502 280.779 504.586 280.387 504.586C279.883 504.586 279.477 504.446 279.197 504.138C278.903 503.844 278.735 503.438 278.693 502.906V502.85H283.915C283.943 502.654 283.971 502.43 283.971 502.178C283.957 501.478 283.789 500.876 283.481 500.358C283.173 499.84 282.739 499.434 282.179 499.154C281.619 498.874 280.989 498.72 280.261 498.72C279.533 498.72 278.903 498.874 278.357 499.182C277.811 499.49 277.391 499.91 277.083 500.47ZM281.997 501.562H278.735C278.791 501.142 278.959 500.82 279.253 500.568C279.547 500.316 279.911 500.19 280.345 500.19C280.793 500.19 281.157 500.316 281.451 500.554C281.745 500.792 281.927 501.128 281.997 501.562Z" fill="white"/>
<path d="M45 312C45 309.239 47.2386 307 50 307H460C462.761 307 465 309.239 465 312V362H45V312Z" fill="#313131"/>
<line x1="45" y1="362.5" x2="465" y2="362.5" stroke="#6E6E6E"/>
<path d="M400 307H460C462.761 307 465 309.239 465 312V362H400V307Z" fill="#313131"/>
<path d="M412.536 336.252H411.504C411.528 336.804 411.672 337.296 411.936 337.728C412.2 338.16 412.584 338.484 413.076 338.724C413.556 338.964 414.132 339.072 414.792 339.072C415.368 339.072 415.884 338.976 416.34 338.76C416.796 338.556 417.144 338.268 417.396 337.884C417.648 337.512 417.78 337.08 417.78 336.6C417.78 335.868 417.528 335.34 417.024 335.004C416.52 334.668 415.848 334.428 415.008 334.284C414.48 334.2 414.06 334.116 413.76 334.02C413.448 333.924 413.208 333.792 413.016 333.612C412.824 333.432 412.728 333.18 412.728 332.856C412.728 332.424 412.884 332.076 413.22 331.836C413.544 331.596 413.988 331.464 414.552 331.464C415.104 331.464 415.572 331.62 415.956 331.908C416.328 332.208 416.544 332.604 416.616 333.084H417.648C417.612 332.58 417.468 332.136 417.204 331.752C416.94 331.368 416.58 331.056 416.124 330.84C415.668 330.624 415.14 330.516 414.552 330.516C413.988 330.516 413.484 330.624 413.052 330.816C412.62 331.02 412.284 331.308 412.044 331.668C411.804 332.028 411.684 332.448 411.684 332.916C411.684 333.66 411.924 334.188 412.428 334.512C412.92 334.848 413.592 335.076 414.432 335.22C414.96 335.316 415.368 335.4 415.68 335.496C415.992 335.592 416.244 335.724 416.436 335.916C416.628 336.108 416.736 336.372 416.736 336.696C416.736 337.152 416.556 337.5 416.196 337.752C415.836 338.004 415.38 338.124 414.804 338.124C414.156 338.124 413.628 337.956 413.22 337.62C412.8 337.284 412.572 336.828 412.536 336.252ZM419.105 334.296C418.865 334.776 418.745 335.316 418.745 335.94C418.745 336.564 418.865 337.104 419.117 337.584C419.369 338.064 419.729 338.424 420.185 338.688C420.641 338.952 421.169 339.072 421.781 339.072C422.477 339.072 423.065 338.88 423.545 338.484C424.025 338.088 424.325 337.572 424.445 336.948H423.449C423.341 337.344 423.137 337.656 422.825 337.872C422.513 338.088 422.141 338.196 421.709 338.196C421.133 338.196 420.677 338.016 420.329 337.656C419.969 337.296 419.789 336.816 419.777 336.216V336.132H424.529C424.541 335.94 424.553 335.808 424.553 335.712C424.529 335.124 424.397 334.608 424.157 334.164C423.905 333.732 423.569 333.396 423.137 333.156C422.705 332.928 422.201 332.808 421.649 332.808C421.073 332.808 420.569 332.94 420.137 333.204C419.693 333.468 419.345 333.828 419.105 334.296ZM423.533 335.316H419.837C419.885 334.836 420.077 334.44 420.437 334.128C420.785 333.828 421.193 333.672 421.661 333.672C422.177 333.672 422.609 333.816 422.945 334.104C423.281 334.392 423.485 334.8 423.533 335.316ZM430.464 333.48C430.008 333.036 429.42 332.808 428.676 332.808C427.788 332.808 427.116 333.108 426.66 333.708L426.528 332.88H425.676V339H426.66V335.94C426.66 335.256 426.816 334.716 427.152 334.308C427.476 333.912 427.932 333.708 428.508 333.708C429.036 333.708 429.444 333.876 429.732 334.212C430.02 334.548 430.164 335.028 430.164 335.652V339H431.148V335.592C431.148 334.632 430.92 333.936 430.464 333.48ZM438.21 330.6H437.226V333.816C437.022 333.504 436.746 333.264 436.398 333.084C436.038 332.904 435.618 332.808 435.126 332.808C434.562 332.808 434.058 332.94 433.614 333.204C433.158 333.468 432.81 333.84 432.558 334.308C432.306 334.788 432.186 335.328 432.186 335.94C432.186 336.588 432.306 337.152 432.558 337.62C432.81 338.1 433.158 338.46 433.602 338.7C434.046 338.952 434.55 339.072 435.126 339.072C436.014 339.072 436.71 338.724 437.226 338.016L437.358 339H438.21V330.6ZM436.266 337.92C435.954 338.112 435.606 338.196 435.222 338.196C434.61 338.196 434.118 337.992 433.746 337.572C433.374 337.152 433.194 336.612 433.194 335.94C433.194 335.28 433.374 334.74 433.746 334.32C434.118 333.9 434.61 333.684 435.222 333.684C435.606 333.684 435.954 333.78 436.266 333.972C436.578 334.164 436.818 334.44 436.986 334.788C437.154 335.136 437.238 335.532 437.238 335.964C437.238 336.396 437.154 336.792 436.986 337.128C436.818 337.464 436.578 337.728 436.266 337.92ZM448.416 338.1H448.116C447.84 338.1 447.708 337.956 447.708 337.656V335.016C447.708 334.308 447.492 333.768 447.06 333.384C446.628 333 446.028 332.808 445.248 332.808C444.504 332.808 443.904 332.976 443.448 333.312C442.992 333.648 442.728 334.116 442.656 334.716H443.64C443.7 334.404 443.868 334.164 444.144 333.972C444.42 333.78 444.768 333.684 445.2 333.684C445.68 333.684 446.052 333.804 446.316 334.02C446.58 334.248 446.724 334.56 446.724 334.956V335.376H444.924C444.12 335.376 443.508 335.544 443.088 335.868C442.668 336.204 442.464 336.672 442.464 337.284C442.464 337.836 442.668 338.28 443.076 338.592C443.484 338.916 444.036 339.072 444.72 339.072C445.608 339.072 446.292 338.736 446.772 338.052C446.772 338.364 446.868 338.604 447.036 338.76C447.204 338.928 447.48 339 447.876 339H448.416V338.1ZM446.724 336.204V336.504C446.724 337.032 446.544 337.452 446.208 337.764C445.86 338.076 445.392 338.232 444.792 338.232C444.384 338.232 444.06 338.148 443.82 337.956C443.58 337.776 443.46 337.536 443.46 337.224C443.46 336.552 443.916 336.204 444.828 336.204H446.724ZM449.172 330.6V339H450.156V330.6H449.172ZM451.504 330.6V339H452.488V330.6H451.504Z" fill="white"/>
<path d="M65.154 341H66.414L67.45 338.354H71.72L72.756 341H74.058L70.334 331.2H68.892L65.154 341ZM67.814 337.248L69.578 332.53L71.356 337.248H67.814ZM84.9108 334.532C84.4068 334.028 83.7628 333.776 82.9648 333.776C81.8168 333.776 80.9908 334.238 80.4868 335.134C80.2908 334.686 79.9828 334.35 79.5908 334.126C79.1988 333.902 78.7368 333.776 78.2328 333.776C77.3508 333.776 76.6508 334.14 76.1468 334.84L75.9928 333.86H74.9988V341H76.1468V337.234C76.1468 336.52 76.3148 335.946 76.6508 335.498C76.9868 335.05 77.4488 334.826 78.0368 334.826C78.5828 334.826 79.0028 335.008 79.3108 335.372C79.6048 335.736 79.7588 336.268 79.7588 336.954V341H80.9068V337.178C80.9068 336.45 81.0748 335.876 81.4108 335.456C81.7468 335.036 82.2228 334.826 82.8248 334.826C83.3568 334.826 83.7768 335.008 84.0708 335.372C84.3648 335.736 84.5188 336.268 84.5188 336.954V341H85.6668V336.884C85.6668 335.82 85.4148 335.036 84.9108 334.532ZM88.5815 340.622C89.1135 340.93 89.7295 341.084 90.4295 341.084C91.1155 341.084 91.7315 340.93 92.2635 340.622C92.7955 340.314 93.2155 339.894 93.5235 339.334C93.8175 338.788 93.9715 338.158 93.9715 337.43C93.9715 336.716 93.8175 336.086 93.5235 335.526C93.2155 334.98 92.7955 334.546 92.2635 334.238C91.7315 333.93 91.1155 333.776 90.4295 333.776C89.7295 333.776 89.1135 333.93 88.5815 334.238C88.0495 334.546 87.6295 334.98 87.3355 335.526C87.0275 336.086 86.8875 336.716 86.8875 337.43C86.8875 338.158 87.0275 338.788 87.3355 339.334C87.6295 339.894 88.0495 340.314 88.5815 340.622ZM91.6615 339.726C91.2975 339.95 90.8915 340.062 90.4295 340.062C89.9535 340.062 89.5475 339.95 89.1835 339.726C88.8195 339.502 88.5535 339.194 88.3575 338.788C88.1615 338.396 88.0635 337.934 88.0635 337.43C88.0635 336.926 88.1615 336.478 88.3575 336.072C88.5535 335.68 88.8195 335.358 89.1835 335.134C89.5475 334.91 89.9535 334.798 90.4295 334.798C90.8915 334.798 91.2975 334.91 91.6615 335.134C92.0255 335.358 92.3055 335.68 92.5015 336.072C92.6975 336.478 92.7955 336.926 92.7955 337.43C92.7955 337.934 92.6975 338.396 92.5015 338.788C92.3055 339.194 92.0255 339.502 91.6615 339.726ZM101.434 333.86H100.286V337.43C100.286 338.242 100.09 338.872 99.7259 339.334C99.3619 339.81 98.8439 340.034 98.1999 340.034C97.5979 340.034 97.1359 339.852 96.8139 339.46C96.4919 339.068 96.3379 338.508 96.3379 337.766V333.86H95.1899V337.836C95.1899 338.956 95.4419 339.782 95.9599 340.3C96.4639 340.832 97.1499 341.084 98.0039 341.084C98.9839 341.084 99.7399 340.748 100.286 340.048L100.44 341H101.434V333.86ZM108.585 334.56C108.053 334.042 107.367 333.776 106.499 333.776C105.463 333.776 104.679 334.126 104.147 334.826L103.993 333.86H102.999V341H104.147V337.43C104.147 336.632 104.329 336.002 104.721 335.526C105.099 335.064 105.631 334.826 106.303 334.826C106.919 334.826 107.395 335.022 107.731 335.414C108.067 335.806 108.235 336.366 108.235 337.094V341H109.383V337.024C109.383 335.904 109.117 335.092 108.585 334.56ZM111.323 334.91V339.138C111.323 339.782 111.463 340.258 111.743 340.552C112.023 340.86 112.513 341 113.185 341H114.501V339.95H113.255C112.961 339.95 112.751 339.894 112.639 339.768C112.527 339.642 112.471 339.432 112.471 339.124V334.91H114.277V333.86H112.471V331.858H111.323V333.86H110.034V334.91H111.323ZM120.087 331.312C119.947 331.172 119.765 331.102 119.555 331.102C119.331 331.102 119.163 331.172 119.023 331.312C118.883 331.452 118.813 331.634 118.813 331.844C118.813 332.068 118.883 332.236 119.023 332.376C119.163 332.516 119.331 332.586 119.555 332.586C119.765 332.586 119.947 332.516 120.087 332.376C120.227 332.236 120.297 332.068 120.297 331.844C120.297 331.634 120.227 331.452 120.087 331.312ZM118.981 333.86V341H120.129V333.86H118.981ZM127.288 334.56C126.756 334.042 126.07 333.776 125.202 333.776C124.166 333.776 123.382 334.126 122.85 334.826L122.696 333.86H121.702V341H122.85V337.43C122.85 336.632 123.032 336.002 123.424 335.526C123.802 335.064 124.334 334.826 125.006 334.826C125.622 334.826 126.098 335.022 126.434 335.414C126.77 335.806 126.938 336.366 126.938 337.094V341H128.086V337.024C128.086 335.904 127.82 335.092 127.288 334.56ZM136.854 331.2H133.382V341H136.952C138.1 341 138.968 340.762 139.584 340.286C140.2 339.81 140.508 339.138 140.508 338.298C140.508 337.01 139.78 336.24 138.352 335.96C138.912 335.82 139.346 335.554 139.654 335.176C139.948 334.798 140.102 334.322 140.102 333.734C140.102 332.95 139.808 332.32 139.248 331.872C138.688 331.424 137.89 331.2 136.854 331.2ZM134.6 335.456V332.306H136.91C137.54 332.306 138.03 332.446 138.366 332.726C138.702 333.006 138.884 333.384 138.884 333.874C138.884 334.378 138.702 334.756 138.366 335.036C138.016 335.316 137.526 335.456 136.91 335.456H134.6ZM134.6 339.894V336.548H136.952C137.68 336.548 138.254 336.702 138.66 336.996C139.052 337.29 139.262 337.71 139.262 338.256C139.262 338.774 139.052 339.18 138.66 339.46C138.268 339.754 137.694 339.894 136.952 339.894H134.6ZM140.723 331.2V332.32H143.901V341H145.119V332.32H148.297V331.2H140.723ZM149.068 333.496C148.676 334.252 148.494 335.12 148.494 336.1C148.494 337.094 148.676 337.962 149.068 338.718C149.446 339.474 149.992 340.048 150.706 340.468C151.406 340.888 152.232 341.084 153.17 341.084C154.262 341.084 155.158 340.79 155.886 340.202C156.614 339.614 157.062 338.816 157.258 337.794H156.04C155.844 338.494 155.508 339.026 155.004 339.404C154.5 339.782 153.87 339.964 153.114 339.964C152.442 339.964 151.84 339.81 151.336 339.474C150.818 339.152 150.426 338.69 150.146 338.102C149.866 337.514 149.74 336.856 149.74 336.1C149.74 335.344 149.866 334.686 150.146 334.098C150.426 333.51 150.818 333.062 151.336 332.726C151.84 332.404 152.442 332.236 153.114 332.236C153.856 332.236 154.486 332.432 155.004 332.81C155.522 333.202 155.872 333.734 156.054 334.406H157.272C157.076 333.398 156.614 332.586 155.886 331.998C155.158 331.41 154.248 331.116 153.17 331.116C152.232 331.116 151.406 331.326 150.706 331.746C149.992 332.166 149.446 332.74 149.068 333.496Z" fill="#6E6E6E"/>
<path d="M374.792 377.6H371.816V386H374.876C375.86 386 376.604 385.796 377.132 385.388C377.66 384.98 377.924 384.404 377.924 383.684C377.924 382.58 377.3 381.92 376.076 381.68C376.556 381.56 376.928 381.332 377.192 381.008C377.444 380.684 377.576 380.276 377.576 379.772C377.576 379.1 377.324 378.56 376.844 378.176C376.364 377.792 375.68 377.6 374.792 377.6ZM372.86 381.248V378.548H374.84C375.38 378.548 375.8 378.668 376.088 378.908C376.376 379.148 376.532 379.472 376.532 379.892C376.532 380.324 376.376 380.648 376.088 380.888C375.788 381.128 375.368 381.248 374.84 381.248H372.86ZM372.86 385.052V382.184H374.876C375.5 382.184 375.992 382.316 376.34 382.568C376.676 382.82 376.856 383.18 376.856 383.648C376.856 384.092 376.676 384.44 376.34 384.68C376.004 384.932 375.512 385.052 374.876 385.052H372.86ZM384.873 385.1H384.573C384.297 385.1 384.165 384.956 384.165 384.656V382.016C384.165 381.308 383.949 380.768 383.517 380.384C383.085 380 382.485 379.808 381.705 379.808C380.961 379.808 380.361 379.976 379.905 380.312C379.449 380.648 379.185 381.116 379.113 381.716H380.097C380.157 381.404 380.325 381.164 380.601 380.972C380.877 380.78 381.225 380.684 381.657 380.684C382.137 380.684 382.509 380.804 382.773 381.02C383.037 381.248 383.181 381.56 383.181 381.956V382.376H381.381C380.577 382.376 379.965 382.544 379.545 382.868C379.125 383.204 378.921 383.672 378.921 384.284C378.921 384.836 379.125 385.28 379.533 385.592C379.941 385.916 380.493 386.072 381.177 386.072C382.065 386.072 382.749 385.736 383.229 385.052C383.229 385.364 383.325 385.604 383.493 385.76C383.661 385.928 383.937 386 384.333 386H384.873V385.1ZM383.181 383.204V383.504C383.181 384.032 383.001 384.452 382.665 384.764C382.317 385.076 381.849 385.232 381.249 385.232C380.841 385.232 380.517 385.148 380.277 384.956C380.037 384.776 379.917 384.536 379.917 384.224C379.917 383.552 380.373 383.204 381.285 383.204H383.181ZM385.629 377.6V386H386.613V377.6H385.629ZM393.685 385.1H393.385C393.109 385.1 392.977 384.956 392.977 384.656V382.016C392.977 381.308 392.761 380.768 392.329 380.384C391.897 380 391.297 379.808 390.517 379.808C389.773 379.808 389.173 379.976 388.717 380.312C388.261 380.648 387.997 381.116 387.925 381.716H388.909C388.969 381.404 389.137 381.164 389.413 380.972C389.689 380.78 390.037 380.684 390.469 380.684C390.949 380.684 391.321 380.804 391.585 381.02C391.849 381.248 391.993 381.56 391.993 381.956V382.376H390.193C389.389 382.376 388.777 382.544 388.357 382.868C387.937 383.204 387.733 383.672 387.733 384.284C387.733 384.836 387.937 385.28 388.345 385.592C388.753 385.916 389.305 386.072 389.989 386.072C390.877 386.072 391.561 385.736 392.041 385.052C392.041 385.364 392.137 385.604 392.305 385.76C392.473 385.928 392.749 386 393.145 386H393.685V385.1ZM391.993 383.204V383.504C391.993 384.032 391.813 384.452 391.477 384.764C391.129 385.076 390.661 385.232 390.061 385.232C389.653 385.232 389.329 385.148 389.089 384.956C388.849 384.776 388.729 384.536 388.729 384.224C388.729 383.552 389.185 383.204 390.097 383.204H391.993ZM399.23 380.48C398.774 380.036 398.186 379.808 397.442 379.808C396.554 379.808 395.882 380.108 395.426 380.708L395.294 379.88H394.442V386H395.426V382.94C395.426 382.256 395.582 381.716 395.918 381.308C396.242 380.912 396.698 380.708 397.274 380.708C397.802 380.708 398.21 380.876 398.498 381.212C398.786 381.548 398.93 382.028 398.93 382.652V386H399.914V382.592C399.914 381.632 399.686 380.936 399.23 380.48ZM405.728 385.496C406.196 385.112 406.496 384.572 406.628 383.888H405.644C405.548 384.296 405.356 384.62 405.056 384.848C404.744 385.088 404.372 385.196 403.928 385.196C403.34 385.196 402.86 384.992 402.5 384.572C402.14 384.152 401.96 383.6 401.96 382.928C401.96 382.268 402.14 381.728 402.5 381.308C402.86 380.9 403.34 380.684 403.928 380.684C404.36 380.684 404.72 380.804 405.032 381.032C405.332 381.272 405.536 381.584 405.632 381.968H406.628C406.508 381.296 406.208 380.768 405.74 380.384C405.272 380 404.684 379.808 403.964 379.808C403.364 379.808 402.848 379.94 402.392 380.204C401.936 380.468 401.576 380.828 401.324 381.296C401.072 381.776 400.952 382.316 400.952 382.928C400.952 383.552 401.072 384.092 401.324 384.572C401.564 385.052 401.912 385.412 402.368 385.676C402.812 385.94 403.328 386.072 403.928 386.072C404.648 386.072 405.248 385.88 405.728 385.496ZM407.781 381.296C407.541 381.776 407.421 382.316 407.421 382.94C407.421 383.564 407.541 384.104 407.793 384.584C408.045 385.064 408.405 385.424 408.861 385.688C409.317 385.952 409.845 386.072 410.457 386.072C411.153 386.072 411.741 385.88 412.221 385.484C412.701 385.088 413.001 384.572 413.121 383.948H412.125C412.017 384.344 411.813 384.656 411.501 384.872C411.189 385.088 410.817 385.196 410.385 385.196C409.809 385.196 409.353 385.016 409.005 384.656C408.645 384.296 408.465 383.816 408.453 383.216V383.132H413.205C413.217 382.94 413.229 382.808 413.229 382.712C413.205 382.124 413.073 381.608 412.833 381.164C412.581 380.732 412.245 380.396 411.813 380.156C411.381 379.928 410.877 379.808 410.325 379.808C409.749 379.808 409.245 379.94 408.813 380.204C408.369 380.468 408.021 380.828 407.781 381.296ZM412.209 382.316H408.513C408.561 381.836 408.753 381.44 409.113 381.128C409.461 380.828 409.869 380.672 410.337 380.672C410.853 380.672 411.285 380.816 411.621 381.104C411.957 381.392 412.161 381.8 412.209 382.316ZM414.424 380.42C414.292 380.54 414.232 380.708 414.232 380.9C414.232 381.104 414.292 381.272 414.424 381.392C414.544 381.512 414.712 381.572 414.916 381.572C415.108 381.572 415.276 381.512 415.408 381.392C415.528 381.272 415.6 381.104 415.6 380.9C415.6 380.708 415.528 380.54 415.408 380.42C415.276 380.3 415.108 380.228 414.916 380.228C414.712 380.228 414.544 380.3 414.424 380.42ZM414.424 384.92C414.292 385.04 414.232 385.208 414.232 385.4C414.232 385.604 414.292 385.772 414.424 385.892C414.544 386.012 414.712 386.072 414.916 386.072C415.108 386.072 415.276 386.012 415.408 385.892C415.528 385.772 415.6 385.604 415.6 385.4C415.6 385.208 415.528 385.04 415.408 384.92C415.276 384.8 415.108 384.728 414.916 384.728C414.712 384.728 414.544 384.8 414.424 384.92Z" fill="#9F9F9F"/>
<path d="M419.857 381.608V381.992C419.857 382.82 419.989 383.54 420.253 384.152C420.517 384.776 420.901 385.244 421.381 385.58C421.861 385.916 422.413 386.072 423.049 386.072C423.673 386.072 424.225 385.916 424.705 385.58C425.185 385.244 425.557 384.776 425.821 384.152C426.085 383.54 426.229 382.82 426.229 381.992V381.608C426.229 380.816 426.085 380.12 425.821 379.496C425.557 378.884 425.173 378.404 424.693 378.056C424.213 377.708 423.661 377.528 423.049 377.528C422.425 377.528 421.861 377.708 421.381 378.056C420.901 378.404 420.517 378.884 420.253 379.496C419.989 380.12 419.857 380.816 419.857 381.608ZM424.933 379.94C425.113 380.42 425.209 380.996 425.209 381.644V381.956C425.209 382.616 425.113 383.18 424.933 383.66C424.753 384.14 424.501 384.512 424.177 384.764C423.853 385.028 423.481 385.148 423.049 385.148C422.617 385.148 422.233 385.028 421.909 384.764C421.573 384.512 421.321 384.14 421.141 383.66C420.961 383.18 420.877 382.616 420.877 381.956V381.644C420.877 380.996 420.961 380.42 421.141 379.94C421.321 379.46 421.573 379.1 421.909 378.836C422.233 378.584 422.617 378.452 423.049 378.452C423.481 378.452 423.853 378.584 424.177 378.836C424.501 379.1 424.753 379.46 424.933 379.94ZM426.939 384.92C426.807 385.04 426.747 385.208 426.747 385.4C426.747 385.604 426.807 385.772 426.939 385.892C427.059 386.012 427.227 386.072 427.431 386.072C427.623 386.072 427.791 386.012 427.923 385.892C428.043 385.772 428.115 385.604 428.115 385.4C428.115 385.208 428.043 385.04 427.923 384.92C427.791 384.8 427.623 384.728 427.431 384.728C427.227 384.728 427.059 384.8 426.939 384.92ZM428.634 381.608V381.992C428.634 382.82 428.766 383.54 429.03 384.152C429.294 384.776 429.678 385.244 430.158 385.58C430.638 385.916 431.19 386.072 431.826 386.072C432.45 386.072 433.002 385.916 433.482 385.58C433.962 385.244 434.334 384.776 434.598 384.152C434.862 383.54 435.006 382.82 435.006 381.992V381.608C435.006 380.816 434.862 380.12 434.598 379.496C434.334 378.884 433.95 378.404 433.47 378.056C432.99 377.708 432.438 377.528 431.826 377.528C431.202 377.528 430.638 377.708 430.158 378.056C429.678 378.404 429.294 378.884 429.03 379.496C428.766 380.12 428.634 380.816 428.634 381.608ZM433.71 379.94C433.89 380.42 433.986 380.996 433.986 381.644V381.956C433.986 382.616 433.89 383.18 433.71 383.66C433.53 384.14 433.278 384.512 432.954 384.764C432.63 385.028 432.258 385.148 431.826 385.148C431.394 385.148 431.01 385.028 430.686 384.764C430.35 384.512 430.098 384.14 429.918 383.66C429.738 383.18 429.654 382.616 429.654 381.956V381.644C429.654 380.996 429.738 380.42 429.918 379.94C430.098 379.46 430.35 379.1 430.686 378.836C431.01 378.584 431.394 378.452 431.826 378.452C432.258 378.452 432.63 378.584 432.954 378.836C433.278 379.1 433.53 379.46 433.71 379.94ZM436.134 381.608V381.992C436.134 382.82 436.266 383.54 436.53 384.152C436.794 384.776 437.178 385.244 437.658 385.58C438.138 385.916 438.69 386.072 439.326 386.072C439.95 386.072 440.502 385.916 440.982 385.58C441.462 385.244 441.834 384.776 442.098 384.152C442.362 383.54 442.506 382.82 442.506 381.992V381.608C442.506 380.816 442.362 380.12 442.098 379.496C441.834 378.884 441.45 378.404 440.97 378.056C440.49 377.708 439.938 377.528 439.326 377.528C438.702 377.528 438.138 377.708 437.658 378.056C437.178 378.404 436.794 378.884 436.53 379.496C436.266 380.12 436.134 380.816 436.134 381.608ZM441.21 379.94C441.39 380.42 441.486 380.996 441.486 381.644V381.956C441.486 382.616 441.39 383.18 441.21 383.66C441.03 384.14 440.778 384.512 440.454 384.764C440.13 385.028 439.758 385.148 439.326 385.148C438.894 385.148 438.51 385.028 438.186 384.764C437.85 384.512 437.598 384.14 437.418 383.66C437.238 383.18 437.154 382.616 437.154 381.956V381.644C437.154 380.996 437.238 380.42 437.418 379.94C437.598 379.46 437.85 379.1 438.186 378.836C438.51 378.584 438.894 378.452 439.326 378.452C439.758 378.452 440.13 378.584 440.454 378.836C440.778 379.1 441.03 379.46 441.21 379.94ZM446.862 377.6H443.886V386H446.946C447.93 386 448.674 385.796 449.202 385.388C449.73 384.98 449.994 384.404 449.994 383.684C449.994 382.58 449.37 381.92 448.146 381.68C448.626 381.56 448.998 381.332 449.262 381.008C449.514 380.684 449.646 380.276 449.646 379.772C449.646 379.1 449.394 378.56 448.914 378.176C448.434 377.792 447.75 377.6 446.862 377.6ZM444.93 381.248V378.548H446.91C447.45 378.548 447.87 378.668 448.158 378.908C448.446 379.148 448.602 379.472 448.602 379.892C448.602 380.324 448.446 380.648 448.158 380.888C447.858 381.128 447.438 381.248 446.91 381.248H444.93ZM444.93 385.052V382.184H446.946C447.57 382.184 448.062 382.316 448.41 382.568C448.746 382.82 448.926 383.18 448.926 383.648C448.926 384.092 448.746 384.44 448.41 384.68C448.074 384.932 447.582 385.052 446.946 385.052H444.93ZM450.179 377.6V378.56H452.903V386H453.947V378.56H456.671V377.6H450.179ZM457.332 379.568C456.996 380.216 456.84 380.96 456.84 381.8C456.84 382.652 456.996 383.396 457.332 384.044C457.656 384.692 458.124 385.184 458.736 385.544C459.336 385.904 460.044 386.072 460.848 386.072C461.784 386.072 462.552 385.82 463.176 385.316C463.8 384.812 464.184 384.128 464.352 383.252H463.308C463.14 383.852 462.852 384.308 462.42 384.632C461.988 384.956 461.448 385.112 460.8 385.112C460.224 385.112 459.708 384.98 459.276 384.692C458.832 384.416 458.496 384.02 458.256 383.516C458.016 383.012 457.908 382.448 457.908 381.8C457.908 381.152 458.016 380.588 458.256 380.084C458.496 379.58 458.832 379.196 459.276 378.908C459.708 378.632 460.224 378.488 460.8 378.488C461.436 378.488 461.976 378.656 462.42 378.98C462.864 379.316 463.164 379.772 463.32 380.348H464.364C464.196 379.484 463.8 378.788 463.176 378.284C462.552 377.78 461.772 377.528 460.848 377.528C460.044 377.528 459.336 377.708 458.736 378.068C458.124 378.428 457.656 378.92 457.332 379.568Z" fill="white"/>
<g filter="url(#filter0_d_452_252)">
<rect y="96" width="509" height="40" fill="#1C1C1C"/>
</g>
<path d="M59.35 112.2V113.32H62.528V122H63.746V113.32H66.924V112.2H59.35ZM68.2397 121.622C68.7717 121.93 69.3877 122.084 70.0877 122.084C70.7737 122.084 71.3897 121.93 71.9217 121.622C72.4537 121.314 72.8737 120.894 73.1817 120.334C73.4757 119.788 73.6297 119.158 73.6297 118.43C73.6297 117.716 73.4757 117.086 73.1817 116.526C72.8737 115.98 72.4537 115.546 71.9217 115.238C71.3897 114.93 70.7737 114.776 70.0877 114.776C69.3877 114.776 68.7717 114.93 68.2397 115.238C67.7077 115.546 67.2877 115.98 66.9937 116.526C66.6857 117.086 66.5457 117.716 66.5457 118.43C66.5457 119.158 66.6857 119.788 66.9937 120.334C67.2877 120.894 67.7077 121.314 68.2397 121.622ZM71.3197 120.726C70.9557 120.95 70.5497 121.062 70.0877 121.062C69.6117 121.062 69.2057 120.95 68.8417 120.726C68.4777 120.502 68.2117 120.194 68.0157 119.788C67.8197 119.396 67.7217 118.934 67.7217 118.43C67.7217 117.926 67.8197 117.478 68.0157 117.072C68.2117 116.68 68.4777 116.358 68.8417 116.134C69.2057 115.91 69.6117 115.798 70.0877 115.798C70.5497 115.798 70.9557 115.91 71.3197 116.134C71.6837 116.358 71.9637 116.68 72.1597 117.072C72.3557 117.478 72.4537 117.926 72.4537 118.43C72.4537 118.934 72.3557 119.396 72.1597 119.788C71.9637 120.194 71.6837 120.502 71.3197 120.726ZM77.9802 122H79.2402L80.2762 119.354H84.5462L85.5822 122H86.8842L83.1602 112.2H81.7182L77.9802 122ZM80.6402 118.248L82.4042 113.53L84.1822 118.248H80.6402ZM94.2866 112.2H93.1386V115.952C92.9006 115.588 92.5786 115.308 92.1726 115.098C91.7526 114.888 91.2626 114.776 90.6886 114.776C90.0306 114.776 89.4426 114.93 88.9246 115.238C88.3926 115.546 87.9866 115.98 87.6926 116.526C87.3986 117.086 87.2586 117.716 87.2586 118.43C87.2586 119.186 87.3986 119.844 87.6926 120.39C87.9866 120.95 88.3926 121.37 88.9106 121.65C89.4286 121.944 90.0166 122.084 90.6886 122.084C91.7246 122.084 92.5366 121.678 93.1386 120.852L93.2926 122H94.2866V112.2ZM92.0186 120.74C91.6546 120.964 91.2486 121.062 90.8006 121.062C90.0866 121.062 89.5126 120.824 89.0786 120.334C88.6446 119.844 88.4346 119.214 88.4346 118.43C88.4346 117.66 88.6446 117.03 89.0786 116.54C89.5126 116.05 90.0866 115.798 90.8006 115.798C91.2486 115.798 91.6546 115.91 92.0186 116.134C92.3826 116.358 92.6626 116.68 92.8586 117.086C93.0546 117.492 93.1526 117.954 93.1526 118.458C93.1526 118.962 93.0546 119.424 92.8586 119.816C92.6626 120.208 92.3826 120.516 92.0186 120.74ZM102.626 112.2H101.478V115.952C101.24 115.588 100.918 115.308 100.512 115.098C100.092 114.888 99.6024 114.776 99.0284 114.776C98.3704 114.776 97.7824 114.93 97.2644 115.238C96.7324 115.546 96.3264 115.98 96.0324 116.526C95.7384 117.086 95.5984 117.716 95.5984 118.43C95.5984 119.186 95.7384 119.844 96.0324 120.39C96.3264 120.95 96.7324 121.37 97.2504 121.65C97.7684 121.944 98.3564 122.084 99.0284 122.084C100.064 122.084 100.876 121.678 101.478 120.852L101.632 122H102.626V112.2ZM100.358 120.74C99.9944 120.964 99.5884 121.062 99.1404 121.062C98.4264 121.062 97.8524 120.824 97.4184 120.334C96.9844 119.844 96.7744 119.214 96.7744 118.43C96.7744 117.66 96.9844 117.03 97.4184 116.54C97.8524 116.05 98.4264 115.798 99.1404 115.798C99.5884 115.798 99.9944 115.91 100.358 116.134C100.722 116.358 101.002 116.68 101.198 117.086C101.394 117.492 101.492 117.954 101.492 118.458C101.492 118.962 101.394 119.424 101.198 119.816C101.002 120.208 100.722 120.516 100.358 120.74ZM107.816 114.86H107.494C106.906 114.86 106.458 114.958 106.136 115.154C105.8 115.35 105.534 115.616 105.338 115.938L105.184 114.86H104.19V122H105.338V118.36C105.338 117.688 105.478 117.128 105.772 116.666C106.066 116.218 106.556 115.98 107.242 115.98H107.816V114.86ZM108.624 116.512C108.344 117.072 108.204 117.702 108.204 118.43C108.204 119.158 108.344 119.788 108.638 120.348C108.932 120.908 109.352 121.328 109.884 121.636C110.416 121.944 111.032 122.084 111.746 122.084C112.558 122.084 113.244 121.86 113.804 121.398C114.364 120.936 114.714 120.334 114.854 119.606H113.692C113.566 120.068 113.328 120.432 112.964 120.684C112.6 120.936 112.166 121.062 111.662 121.062C110.99 121.062 110.458 120.852 110.052 120.432C109.632 120.012 109.422 119.452 109.408 118.752V118.654H114.952C114.966 118.43 114.98 118.276 114.98 118.164C114.952 117.478 114.798 116.876 114.518 116.358C114.224 115.854 113.832 115.462 113.328 115.182C112.824 114.916 112.236 114.776 111.592 114.776C110.92 114.776 110.332 114.93 109.828 115.238C109.31 115.546 108.904 115.966 108.624 116.512ZM113.79 117.702H109.478C109.534 117.142 109.758 116.68 110.178 116.316C110.584 115.966 111.06 115.784 111.606 115.784C112.208 115.784 112.712 115.952 113.104 116.288C113.496 116.624 113.734 117.1 113.79 117.702ZM117.159 119.648H116.011C116.011 120.418 116.305 121.02 116.865 121.44C117.425 121.874 118.181 122.084 119.119 122.084C119.637 122.084 120.113 122 120.547 121.818C120.967 121.65 121.317 121.398 121.569 121.062C121.821 120.74 121.947 120.362 121.947 119.928C121.947 119.438 121.821 119.046 121.569 118.752C121.317 118.472 120.995 118.262 120.589 118.122C120.183 117.996 119.665 117.898 119.049 117.814C118.601 117.758 118.265 117.716 118.041 117.66C117.817 117.618 117.649 117.534 117.509 117.394C117.369 117.268 117.299 117.086 117.299 116.834C117.299 116.512 117.439 116.246 117.747 116.05C118.041 115.854 118.433 115.742 118.923 115.742C119.399 115.742 119.791 115.868 120.113 116.106C120.421 116.358 120.603 116.666 120.659 117.03H121.807C121.751 116.302 121.457 115.742 120.925 115.35C120.393 114.958 119.721 114.762 118.881 114.762C118.363 114.762 117.901 114.86 117.495 115.042C117.075 115.224 116.753 115.476 116.515 115.798C116.277 116.134 116.165 116.498 116.165 116.918C116.165 117.394 116.277 117.758 116.529 118.024C116.767 118.29 117.089 118.486 117.481 118.598C117.873 118.724 118.377 118.822 118.993 118.892C119.427 118.948 119.763 119.004 120.001 119.06C120.239 119.116 120.435 119.228 120.589 119.368C120.729 119.522 120.813 119.732 120.813 120.012C120.813 120.348 120.645 120.614 120.337 120.81C120.029 121.006 119.623 121.104 119.119 121.104C118.545 121.104 118.083 120.978 117.719 120.698C117.355 120.432 117.173 120.082 117.159 119.648ZM124.008 119.648H122.86C122.86 120.418 123.154 121.02 123.714 121.44C124.274 121.874 125.03 122.084 125.968 122.084C126.486 122.084 126.962 122 127.396 121.818C127.816 121.65 128.166 121.398 128.418 121.062C128.67 120.74 128.796 120.362 128.796 119.928C128.796 119.438 128.67 119.046 128.418 118.752C128.166 118.472 127.844 118.262 127.438 118.122C127.032 117.996 126.514 117.898 125.898 117.814C125.45 117.758 125.114 117.716 124.89 117.66C124.666 117.618 124.498 117.534 124.358 117.394C124.218 117.268 124.148 117.086 124.148 116.834C124.148 116.512 124.288 116.246 124.596 116.05C124.89 115.854 125.282 115.742 125.772 115.742C126.248 115.742 126.64 115.868 126.962 116.106C127.27 116.358 127.452 116.666 127.508 117.03H128.656C128.6 116.302 128.306 115.742 127.774 115.35C127.242 114.958 126.57 114.762 125.73 114.762C125.212 114.762 124.75 114.86 124.344 115.042C123.924 115.224 123.602 115.476 123.364 115.798C123.126 116.134 123.014 116.498 123.014 116.918C123.014 117.394 123.126 117.758 123.378 118.024C123.616 118.29 123.938 118.486 124.33 118.598C124.722 118.724 125.226 118.822 125.842 118.892C126.276 118.948 126.612 119.004 126.85 119.06C127.088 119.116 127.284 119.228 127.438 119.368C127.578 119.522 127.662 119.732 127.662 120.012C127.662 120.348 127.494 120.614 127.186 120.81C126.878 121.006 126.472 121.104 125.968 121.104C125.394 121.104 124.932 120.978 124.568 120.698C124.204 120.432 124.022 120.082 124.008 119.648Z" fill="#9F9F9F"/>
<path d="M174.35 112.2V113.32H177.528V122H178.746V113.32H181.924V112.2H174.35ZM183.24 121.622C183.772 121.93 184.388 122.084 185.088 122.084C185.774 122.084 186.39 121.93 186.922 121.622C187.454 121.314 187.874 120.894 188.182 120.334C188.476 119.788 188.63 119.158 188.63 118.43C188.63 117.716 188.476 117.086 188.182 116.526C187.874 115.98 187.454 115.546 186.922 115.238C186.39 114.93 185.774 114.776 185.088 114.776C184.388 114.776 183.772 114.93 183.24 115.238C182.708 115.546 182.288 115.98 181.994 116.526C181.686 117.086 181.546 117.716 181.546 118.43C181.546 119.158 181.686 119.788 181.994 120.334C182.288 120.894 182.708 121.314 183.24 121.622ZM186.32 120.726C185.956 120.95 185.55 121.062 185.088 121.062C184.612 121.062 184.206 120.95 183.842 120.726C183.478 120.502 183.212 120.194 183.016 119.788C182.82 119.396 182.722 118.934 182.722 118.43C182.722 117.926 182.82 117.478 183.016 117.072C183.212 116.68 183.478 116.358 183.842 116.134C184.206 115.91 184.612 115.798 185.088 115.798C185.55 115.798 185.956 115.91 186.32 116.134C186.684 116.358 186.964 116.68 187.16 117.072C187.356 117.478 187.454 117.926 187.454 118.43C187.454 118.934 187.356 119.396 187.16 119.788C186.964 120.194 186.684 120.502 186.32 120.726ZM192.98 122H194.24L195.276 119.354H199.546L200.582 122H201.884L198.16 112.2H196.718L192.98 122ZM195.64 118.248L197.404 113.53L199.182 118.248H195.64ZM201.455 114.86L204.129 122H205.515L208.189 114.86H206.985L204.843 120.698L202.687 114.86H201.455ZM208.94 116.512C208.66 117.072 208.52 117.702 208.52 118.43C208.52 119.158 208.66 119.788 208.954 120.348C209.248 120.908 209.668 121.328 210.2 121.636C210.732 121.944 211.348 122.084 212.062 122.084C212.874 122.084 213.56 121.86 214.12 121.398C214.68 120.936 215.03 120.334 215.17 119.606H214.008C213.882 120.068 213.644 120.432 213.28 120.684C212.916 120.936 212.482 121.062 211.978 121.062C211.306 121.062 210.774 120.852 210.368 120.432C209.948 120.012 209.738 119.452 209.724 118.752V118.654H215.268C215.282 118.43 215.296 118.276 215.296 118.164C215.268 117.478 215.114 116.876 214.834 116.358C214.54 115.854 214.148 115.462 213.644 115.182C213.14 114.916 212.552 114.776 211.908 114.776C211.236 114.776 210.648 114.93 210.144 115.238C209.626 115.546 209.22 115.966 208.94 116.512ZM214.106 117.702H209.794C209.85 117.142 210.074 116.68 210.494 116.316C210.9 115.966 211.376 115.784 211.922 115.784C212.524 115.784 213.028 115.952 213.42 116.288C213.812 116.624 214.05 117.1 214.106 117.702ZM222.192 115.56C221.66 115.042 220.974 114.776 220.106 114.776C219.07 114.776 218.286 115.126 217.754 115.826L217.6 114.86H216.606V122H217.754V118.43C217.754 117.632 217.936 117.002 218.328 116.526C218.706 116.064 219.238 115.826 219.91 115.826C220.526 115.826 221.002 116.022 221.338 116.414C221.674 116.806 221.842 117.366 221.842 118.094V122H222.99V118.024C222.99 116.904 222.724 116.092 222.192 115.56ZM225.56 112.312C225.42 112.172 225.238 112.102 225.028 112.102C224.804 112.102 224.636 112.172 224.496 112.312C224.356 112.452 224.286 112.634 224.286 112.844C224.286 113.068 224.356 113.236 224.496 113.376C224.636 113.516 224.804 113.586 225.028 113.586C225.238 113.586 225.42 113.516 225.56 113.376C225.7 113.236 225.77 113.068 225.77 112.844C225.77 112.634 225.7 112.452 225.56 112.312ZM224.454 114.86V122H225.602V114.86H224.454ZM229.219 118.332L226.503 122H227.777L229.877 119.13L231.977 122H233.349L230.619 118.332L233.167 114.86H231.893L229.961 117.506L228.057 114.86H226.685L229.219 118.332ZM244.585 120.95H244.235C243.913 120.95 243.759 120.782 243.759 120.432V117.352C243.759 116.526 243.507 115.896 243.003 115.448C242.499 115 241.799 114.776 240.889 114.776C240.021 114.776 239.321 114.972 238.789 115.364C238.257 115.756 237.949 116.302 237.865 117.002H239.013C239.083 116.638 239.279 116.358 239.601 116.134C239.923 115.91 240.329 115.798 240.833 115.798C241.393 115.798 241.827 115.938 242.135 116.19C242.443 116.456 242.611 116.82 242.611 117.282V117.772H240.511C239.573 117.772 238.859 117.968 238.369 118.346C237.879 118.738 237.641 119.284 237.641 119.998C237.641 120.642 237.879 121.16 238.355 121.524C238.831 121.902 239.475 122.084 240.273 122.084C241.309 122.084 242.107 121.692 242.667 120.894C242.667 121.258 242.779 121.538 242.975 121.72C243.171 121.916 243.493 122 243.955 122H244.585V120.95ZM242.611 118.738V119.088C242.611 119.704 242.401 120.194 242.009 120.558C241.603 120.922 241.057 121.104 240.357 121.104C239.881 121.104 239.503 121.006 239.223 120.782C238.943 120.572 238.803 120.292 238.803 119.928C238.803 119.144 239.335 118.738 240.399 118.738H242.611ZM250.788 121.412C251.334 120.964 251.684 120.334 251.838 119.536H250.69C250.578 120.012 250.354 120.39 250.004 120.656C249.64 120.936 249.206 121.062 248.688 121.062C248.002 121.062 247.442 120.824 247.022 120.334C246.602 119.844 246.392 119.2 246.392 118.416C246.392 117.646 246.602 117.016 247.022 116.526C247.442 116.05 248.002 115.798 248.688 115.798C249.192 115.798 249.612 115.938 249.976 116.204C250.326 116.484 250.564 116.848 250.676 117.296H251.838C251.698 116.512 251.348 115.896 250.802 115.448C250.256 115 249.57 114.776 248.73 114.776C248.03 114.776 247.428 114.93 246.896 115.238C246.364 115.546 245.944 115.966 245.65 116.512C245.356 117.072 245.216 117.702 245.216 118.416C245.216 119.144 245.356 119.774 245.65 120.334C245.93 120.894 246.336 121.314 246.868 121.622C247.386 121.93 247.988 122.084 248.688 122.084C249.528 122.084 250.228 121.86 250.788 121.412ZM258.334 121.412C258.88 120.964 259.23 120.334 259.384 119.536H258.236C258.124 120.012 257.9 120.39 257.55 120.656C257.186 120.936 256.752 121.062 256.234 121.062C255.548 121.062 254.988 120.824 254.568 120.334C254.148 119.844 253.938 119.2 253.938 118.416C253.938 117.646 254.148 117.016 254.568 116.526C254.988 116.05 255.548 115.798 256.234 115.798C256.738 115.798 257.158 115.938 257.522 116.204C257.872 116.484 258.11 116.848 258.222 117.296H259.384C259.244 116.512 258.894 115.896 258.348 115.448C257.802 115 257.116 114.776 256.276 114.776C255.576 114.776 254.974 114.93 254.442 115.238C253.91 115.546 253.49 115.966 253.196 116.512C252.902 117.072 252.762 117.702 252.762 118.416C252.762 119.144 252.902 119.774 253.196 120.334C253.476 120.894 253.882 121.314 254.414 121.622C254.932 121.93 255.534 122.084 256.234 122.084C257.074 122.084 257.774 121.86 258.334 121.412ZM262.003 121.622C262.535 121.93 263.151 122.084 263.851 122.084C264.537 122.084 265.153 121.93 265.685 121.622C266.217 121.314 266.637 120.894 266.945 120.334C267.239 119.788 267.393 119.158 267.393 118.43C267.393 117.716 267.239 117.086 266.945 116.526C266.637 115.98 266.217 115.546 265.685 115.238C265.153 114.93 264.537 114.776 263.851 114.776C263.151 114.776 262.535 114.93 262.003 115.238C261.471 115.546 261.051 115.98 260.757 116.526C260.449 117.086 260.309 117.716 260.309 118.43C260.309 119.158 260.449 119.788 260.757 120.334C261.051 120.894 261.471 121.314 262.003 121.622ZM265.083 120.726C264.719 120.95 264.313 121.062 263.851 121.062C263.375 121.062 262.969 120.95 262.605 120.726C262.241 120.502 261.975 120.194 261.779 119.788C261.583 119.396 261.485 118.934 261.485 118.43C261.485 117.926 261.583 117.478 261.779 117.072C261.975 116.68 262.241 116.358 262.605 116.134C262.969 115.91 263.375 115.798 263.851 115.798C264.313 115.798 264.719 115.91 265.083 116.134C265.447 116.358 265.727 116.68 265.923 117.072C266.119 117.478 266.217 117.926 266.217 118.43C266.217 118.934 266.119 119.396 265.923 119.788C265.727 120.194 265.447 120.502 265.083 120.726ZM274.856 114.86H273.708V118.43C273.708 119.242 273.512 119.872 273.148 120.334C272.784 120.81 272.266 121.034 271.622 121.034C271.02 121.034 270.558 120.852 270.236 120.46C269.914 120.068 269.76 119.508 269.76 118.766V114.86H268.612V118.836C268.612 119.956 268.864 120.782 269.382 121.3C269.886 121.832 270.572 122.084 271.426 122.084C272.406 122.084 273.162 121.748 273.708 121.048L273.862 122H274.856V114.86ZM282.007 115.56C281.475 115.042 280.789 114.776 279.921 114.776C278.885 114.776 278.101 115.126 277.569 115.826L277.415 114.86H276.421V122H277.569V118.43C277.569 117.632 277.751 117.002 278.143 116.526C278.521 116.064 279.053 115.826 279.725 115.826C280.341 115.826 280.817 116.022 281.153 116.414C281.489 116.806 281.657 117.366 281.657 118.094V122H282.805V118.024C282.805 116.904 282.539 116.092 282.007 115.56ZM284.744 115.91V120.138C284.744 120.782 284.884 121.258 285.164 121.552C285.444 121.86 285.934 122 286.606 122H287.922V120.95H286.676C286.382 120.95 286.172 120.894 286.06 120.768C285.948 120.642 285.892 120.432 285.892 120.124V115.91H287.698V114.86H285.892V112.858H284.744V114.86H283.456V115.91H284.744Z" fill="white"/>
<rect x="168" y="134" width="129" height="2" fill="#CFAA08"/>
<defs>
<filter id="filter0_d_452_252" x="0" y="96" width="509" height="40.33" filterUnits="userSpaceOnUse" color-interpolation-filters="sRGB">
<feFlood flood-opacity="0" result="BackgroundImageFix"/>
<feColorMatrix in="SourceAlpha" type="matrix" values="0 0 0 0 0 0 0 0 0 0 0 0 0 0 0 0 0 0 127 0" result="hardAlpha"/>
<feOffset dy="0.33"/>
<feComposite in2="hardAlpha" operator="out"/>
<feColorMatrix type="matrix" values="0 0 0 0 0.431373 0 0 0 0 0.431373 0 0 0 0 0.431373 0 0 0 1 0"/>
<feBlend mode="normal" in2="BackgroundImageFix" result="effect1_dropShadow_452_252"/>
<feBlend mode="normal" in="SourceGraphic" in2="effect1_dropShadow_452_252" result="shape"/>
</filter>
</defs>
</svg>
