<svg width="20" height="18" viewBox="0 0 20 18" fill="none" xmlns="http://www.w3.org/2000/svg">
<path fill-rule="evenodd" clip-rule="evenodd" d="M2.27296 0.163832C1.88494 -0.0914263 1.35831 -0.0484057 1.01701 0.292893C0.62649 0.683418 0.62649 1.31658 1.01701 1.70711L3.05438 3.74447C2.49553 4.29792 2.005 4.92148 1.59632 5.60261L0.37911 7.63129C-0.12637 8.47376 -0.12637 9.52624 0.37911 10.3687L1.59632 12.3974C2.52378 13.9432 3.87281 15.1924 5.48516 15.9986C8.15362 17.3328 11.2945 17.3328 13.963 15.9986C14.2584 15.8509 14.5449 15.6883 14.8217 15.5118L17.017 17.7071C17.4075 18.0976 18.0407 18.0976 18.4312 17.7071C18.8218 17.3166 18.8218 16.6834 18.4312 16.2929L17.8745 15.7362C17.8185 15.6994 17.7655 15.6563 17.7162 15.6071L2.27296 0.163832ZM3.3113 6.6316C3.63543 6.09139 4.02482 5.59707 4.46862 5.15871L6.27785 6.96795C5.92601 7.56356 5.72412 8.25838 5.72412 9.00047C5.72412 11.2096 7.51455 13 9.72365 13C10.4655 13 11.1603 12.7981 11.756 12.4461L13.3637 14.0538C13.2667 14.1079 13.1682 14.1599 13.0686 14.2097C10.9632 15.2624 8.48499 15.2624 6.37958 14.2097C5.10745 13.5737 4.04307 12.588 3.31131 11.3684L2.0941 9.33972C1.96863 9.13061 1.96863 8.86938 2.0941 8.66028L3.3113 6.6316ZM7.72412 9.00047C7.72412 8.82111 7.74768 8.6473 7.79186 8.48196L10.2421 10.9322C10.0768 10.9764 9.90296 11 9.72365 11C8.61912 11 7.72412 10.105 7.72412 9.00047Z" fill="#CFAA08"/>
<path d="M17.6526 12.715C17.721 12.6106 17.7874 12.5047 17.8518 12.3974L19.069 10.3687C19.5745 9.52624 19.5745 8.47376 19.069 7.63129L17.8518 5.60261C16.9244 4.05684 15.5753 2.8076 13.963 2.00142C11.6269 0.83339 8.92877 0.687896 6.5025 1.56494L8.11367 3.17612C9.76917 2.81114 11.5197 3.01586 13.0686 3.79028C14.3407 4.42635 15.4051 5.41199 16.1368 6.6316L17.3541 8.66028C17.4795 8.86938 17.4795 9.13061 17.3541 9.33972L16.2003 11.2627L17.6526 12.715Z" fill="#CFAA08"/>
<path d="M13.7182 8.78063C13.608 6.74555 11.9775 5.1161 9.94349 5.00594L13.7182 8.78063Z" fill="#CFAA08"/>
</svg>
